<?xml version="1.0" encoding="utf-8"?>
<!-- Generated by IcoMoon.io -->
<!DOCTYPE svg PUBLIC "-//W3C//DTD SVG 1.1//EN" "http://www.w3.org/Graphics/SVG/1.1/DTD/svg11.dtd">
<svg version="1.1" xmlns="http://www.w3.org/2000/svg" xmlns:xlink="http://www.w3.org/1999/xlink" width="224" height="448" viewBox="0 0 224 448">
<path d="M218.43 231.153l-112 205.333c-2.718 4.988-7.825 7.78-13.126 7.78-2.419 0-4.868-0.582-7.138-1.822-7.243-3.957-9.916-13.022-5.958-20.25l108.102-198.195-108.087-198.18c-3.957-7.228-1.284-16.307 5.958-20.25 7.198-3.957 16.307-1.284 20.25 5.958l112 205.333c2.449 4.435 2.449 9.841 0 14.291v0zM143.763 216.847l-112-205.333c-3.957-7.243-13.052-9.916-20.25-5.958-7.228 3.957-9.916 13.022-5.943 20.25l108.102 198.18-108.102 198.195c-3.957 7.213-1.284 16.307 5.958 20.235 2.255 1.239 4.704 1.822 7.138 1.822 5.286 0 10.409-2.807 13.126-7.78l112-205.333c2.419-4.42 2.419-9.826-0.030-14.276v0z"></path>
</svg>
