<?xml version="1.0" encoding="UTF-8" standalone="no"?>
<svg width="147px" height="65px" viewBox="0 0 147 65" version="1.1" xmlns="http://www.w3.org/2000/svg" xmlns:xlink="http://www.w3.org/1999/xlink">
    <!-- Generator: Sketch 3.8.2 (29753) - http://www.bohemiancoding.com/sketch -->
    <title>HRP logo</title>
    <desc>Created with Sketch.</desc>
    <defs>
        <polygon id="path-1" points="20.9340178 20.7912467 20.9340178 0.667246667 0.70055503 0.667246667 0.70055503 20.7912467 20.9340178 20.7912467"></polygon>
    </defs>
    <g id="Page-1" stroke="none" stroke-width="1" fill="none" fill-rule="evenodd">
        <g id="Landing_v2_4-(final)" transform="translate(-72.000000, -23.000000)">
            <g id="Header" transform="translate(-376.000000, 0.000000)">
                <g id="Top-Bar" transform="translate(376.000000, 0.000000)">
                    <g id="Logos" transform="translate(72.000000, 23.000000)">
                        <g id="HRP-logo">
                            <g id="Group-3" transform="translate(125.254438, 21.418713)">
                                <mask id="mask-2" fill="white">
                                    <use xlink:href="#path-1"></use>
                                </mask>
                                <g id="Clip-2"></g>
                                <path d="M20.9343657,10.72838 C20.9343657,16.2854467 16.4078095,20.7912467 10.8183302,20.7912467 C5.23059053,20.7912467 0.70055503,16.2854467 0.70055503,10.72838 C0.70055503,5.17044667 5.23059053,0.667246667 10.8183302,0.667246667 C16.4078095,0.667246667 20.9343657,5.17044667 20.9343657,10.72838" id="Fill-1" fill="#636567" mask="url(#mask-2)"></path>
                            </g>
                            <path d="M126.450879,45.2892267 C126.450879,48.5400933 123.79705,51.17476 120.530867,51.17476 C117.261204,51.17476 114.613464,48.5400933 114.613464,45.2892267 C114.613464,42.0374933 117.261204,39.4028267 120.530867,39.4028267 C123.79705,39.4028267 126.450879,42.0374933 126.450879,45.2892267" id="Fill-4" fill="#0E7DC1"></path>
                            <path d="M74.6234627,44.9845933 C74.6234627,45.62766 74.0989598,46.15286 73.450942,46.15286 C72.8055337,46.15286 72.2792911,45.62766 72.2792911,44.9845933 C72.2792911,44.3389267 72.8055337,43.8145933 73.450942,43.8145933 C74.0989598,43.8145933 74.6234627,44.3389267 74.6234627,44.9845933" id="Fill-6" fill="#000000"></path>
                            <path d="M1.84967751,53.66816 L0.20310355,53.66816 L0.20310355,47.45676 L1.7331213,47.45676 L1.7331213,48.3416267 C1.99493787,47.9204267 2.22892012,47.6430933 2.43854734,47.51136 C2.64556509,47.3770267 2.8821568,47.3094267 3.14919231,47.3094267 C3.52669527,47.3094267 3.88854142,47.4142933 4.23038166,47.6214267 L3.72240533,49.0600933 C3.44406213,48.87896 3.18572485,48.7896933 2.94565385,48.7896933 C2.71689053,48.7896933 2.52378994,48.8512267 2.3637426,48.97776 C2.20369527,49.1034267 2.08278994,49.3330933 1.99058876,49.66416 C1.89403846,49.99696 1.84967751,50.6920267 1.84967751,51.7502267 L1.84967751,53.66816 Z M8.55600888,51.6919 L10.1930148,51.9692333 C9.97990828,52.5689667 9.64676627,53.0248333 9.19271893,53.3385667 C8.74215089,53.6514333 8.17241716,53.8100333 7.48351775,53.8100333 C6.40145858,53.8100333 5.59948225,53.4564333 5.08367751,52.7561667 C4.6731213,52.1867667 4.47045266,51.4743667 4.47045266,50.6137667 C4.47045266,49.5841667 4.73835799,48.7773 5.27503846,48.1879667 C5.81258876,47.6029667 6.49365976,47.3091667 7.31999112,47.3091667 C8.24548225,47.3091667 8.97352367,47.6185667 9.50237574,48.2304333 C10.0347071,48.8423 10.2982633,49.7783 10.2982633,51.0375667 L6.15355917,51.0375667 C6.16573669,51.5237667 6.30055917,51.8999 6.55280769,52.1746333 C6.80418639,52.4467667 7.1216716,52.5828333 7.50004438,52.5828333 C7.75925148,52.5828333 7.98018639,52.5126333 8.15328107,52.3705 C8.32898521,52.2275 8.46293787,52.0021667 8.55600888,51.6919 Z M8.64560059,50.0322333 C8.63603254,49.5521 8.51164793,49.1889667 8.27505621,48.9402333 C8.04107396,48.6941 7.75577219,48.5701667 7.41828107,48.5701667 C7.06078402,48.5701667 6.76504438,48.6993 6.53193195,48.9619 C6.29881953,49.2227667 6.17878402,49.5807 6.17878402,50.0322333 L8.64560059,50.0322333 Z M11.0435272,51.8950467 L12.6961899,51.6428467 C12.7683852,51.9661133 12.9127757,52.2079133 13.1267521,52.3743133 C13.3433379,52.5398467 13.6451663,52.6230467 14.0322373,52.6230467 C14.4558408,52.6230467 14.778545,52.5450467 14.989042,52.38558 C15.136042,52.2772467 15.2125864,52.1290467 15.2125864,51.94618 C15.2125864,51.8248467 15.1699651,51.7243133 15.0890716,51.6428467 C15.0090479,51.56138 14.8255154,51.4877133 14.538474,51.42358 C13.2128645,51.1280467 12.3743556,50.8611133 12.0142491,50.6210467 C11.5210598,50.28218 11.2714207,49.8185133 11.2714207,49.2231133 C11.2714207,48.68318 11.485397,48.2299133 11.9116101,47.86158 C12.3369533,47.49238 12.9980183,47.3095133 13.8921959,47.3095133 C14.7463615,47.3095133 15.3778527,47.4490467 15.7910183,47.7281133 C16.2059237,48.0054467 16.4920953,48.41798 16.6547521,48.96138 L15.0960302,49.2482467 C15.0325331,49.0021133 14.9055391,48.8166467 14.7202669,48.6866467 C14.5349947,48.5601133 14.2696988,48.49598 13.9243793,48.49598 C13.4903379,48.49598 13.1772018,48.5549133 12.9919296,48.67538 C12.8658053,48.7620467 12.8049178,48.87558 12.8049178,49.01078 C12.8049178,49.13038 12.8588467,49.23178 12.9675746,49.3132467 C13.1154444,49.42158 13.6286396,49.5767133 14.5071604,49.77518 C15.3874207,49.9745133 15.9989059,50.2189133 16.3477047,50.5066467 C16.6938941,50.7961133 16.8635095,51.2008467 16.8635095,51.7243133 C16.8635095,52.2954467 16.6269178,52.78598 16.1493852,53.1959133 C15.6709828,53.60498 14.9655568,53.81038 14.0322373,53.81038 C13.1815509,53.81038 12.5074385,53.6379133 12.0133793,53.29298 C11.5201899,52.9515133 11.1983556,52.48438 11.0435272,51.8950467 Z M21.9163083,51.6919 L23.5550538,51.9692333 C23.3402077,52.5689667 23.0070657,53.0248333 22.5573675,53.3385667 C22.1024503,53.6514333 21.5318467,53.8100333 20.8464266,53.8100333 C19.7626278,53.8100333 18.9623911,53.4564333 18.4457166,52.7561667 C18.0351604,52.1867667 17.8316219,51.4743667 17.8316219,50.6137667 C17.8316219,49.5841667 18.1021367,48.7773 18.639687,48.1879667 C19.173758,47.6029667 19.8565686,47.3091667 20.6802905,47.3091667 C21.6083911,47.3091667 22.3373024,47.6185667 22.8661544,48.2304333 C23.3958763,48.8423 23.6629118,49.7783 23.6629118,51.0375667 L19.5190775,51.0375667 C19.5286456,51.5237667 19.6608586,51.8999 19.9139769,52.1746333 C20.1688349,52.4467667 20.4845805,52.5828333 20.8612136,52.5828333 C21.1230302,52.5828333 21.3413556,52.5126333 21.5144503,52.3705 C21.6901544,52.2275 21.8232373,52.0021667 21.9163083,51.6919 Z M22.0085095,50.0322333 C21.9954621,49.5521 21.8745568,49.1889667 21.6362254,48.9402333 C21.4065923,48.6941 21.1160716,48.5701667 20.7785805,48.5701667 C20.4228231,48.5701667 20.1288231,48.6993 19.893971,48.9619 C19.6608586,49.2227667 19.5434325,49.5807 19.5434325,50.0322333 L22.0085095,50.0322333 Z M26.224887,49.3544133 L24.7244432,49.0840133 C24.8949284,48.4799467 25.1828396,48.0327467 25.5942657,47.7441467 C26.0013426,47.45468 26.611958,47.30908 27.4191533,47.30908 C28.1567627,47.30908 28.7047509,47.3966133 29.0657272,47.5708133 C29.4267036,47.7467467 29.6789521,47.96688 29.8242124,48.23468 C29.9668633,48.5016133 30.0407982,48.9904133 30.0407982,49.70628 L30.022532,51.6268133 C30.022532,52.1719467 30.0486266,52.5749467 30.1069047,52.8349467 C30.1608337,53.0975467 30.2591237,53.3757467 30.4035142,53.6678133 L28.7708574,53.6678133 C28.7247568,53.5612133 28.6743071,53.4000133 28.6142893,53.1885467 C28.586455,53.0880133 28.5681888,53.02388 28.5568811,52.9909467 C28.2733189,53.26308 27.9749698,53.4693467 27.6531355,53.6045467 C27.3339107,53.7397467 26.9894609,53.8099467 26.6241355,53.8099467 C25.9865556,53.8099467 25.4811888,53.6357467 25.1097746,53.2908133 C24.7401,52.9441467 24.553958,52.50388 24.553958,51.9691467 C24.553958,51.6207467 24.6374609,51.3096133 24.8070763,51.0331467 C24.9758219,50.7601467 25.210674,50.5469467 25.5168515,50.40048 C25.8178101,50.25488 26.2553308,50.1257467 26.8233249,50.0165467 C27.5922479,49.8744133 28.1245793,49.7409467 28.4255379,49.6170133 L28.4255379,49.4523467 C28.4255379,49.1351467 28.3481237,48.91068 28.1932953,48.7737467 C28.0367272,48.64028 27.7418574,48.5709467 27.3052065,48.5709467 C27.0103367,48.5709467 26.7824432,48.6290133 26.6171769,48.7451467 C26.4545201,48.8621467 26.3214373,49.0649467 26.224887,49.3544133 Z M28.4255379,50.6856133 C28.2150408,50.7575467 27.8792893,50.84248 27.4235024,50.93868 C26.9659757,51.03748 26.6702361,51.13368 26.528455,51.2264133 C26.3092598,51.3789467 26.1987923,51.5722133 26.1987923,51.80448 C26.1987923,52.03588 26.2857746,52.23348 26.4562598,52.3990133 C26.6302243,52.5654133 26.8511592,52.64688 27.116455,52.64688 C27.4174136,52.64688 27.7009757,52.55328 27.9688811,52.3617467 C28.1628515,52.2092133 28.2941947,52.0272133 28.361171,51.8166133 C28.4046621,51.6727467 28.4255379,51.40408 28.4255379,51.0132133 L28.4255379,50.6856133 Z M33.2487036,53.66816 L31.6029994,53.66816 L31.6029994,47.45676 L33.133887,47.45676 L33.133887,48.3416267 C33.3974432,47.9204267 33.6305556,47.6430933 33.8375734,47.51136 C34.0454609,47.3770267 34.2837923,47.3094267 34.549958,47.3094267 C34.9292006,47.3094267 35.2884373,47.4142933 35.6320172,47.6214267 L35.1240408,49.0600933 C34.8456976,48.87896 34.5873604,48.7896933 34.3481592,48.7896933 C34.1176562,48.7896933 33.9236858,48.8512267 33.7627686,48.97776 C33.6079402,49.1034267 33.4835556,49.3330933 33.3904846,49.66416 C33.2948041,49.99696 33.2487036,50.6920267 33.2487036,51.7502267 L33.2487036,53.66816 Z M41.782532,49.2891533 L40.1594432,49.5846867 C40.1029047,49.26142 39.9785201,49.0187533 39.7845497,48.85582 C39.5897095,48.69202 39.3383308,48.6122867 39.028674,48.6122867 C38.6181178,48.6122867 38.2893249,48.75182 38.0457746,49.0308867 C37.8013544,49.3116867 37.6804491,49.7848867 37.6804491,50.44962 C37.6804491,51.1888867 37.8065734,51.7123533 38.0553426,52.01482 C38.3041118,52.31642 38.636384,52.4689533 39.0504195,52.4689533 C39.3679047,52.4689533 39.6279817,52.3796867 39.827171,52.2011533 C40.0254905,52.0269533 40.165532,51.7227533 40.2481651,51.29202 L41.8642953,51.5615533 C41.699029,52.3025533 41.3789343,52.8615533 40.8987923,53.2402867 C40.4229994,53.6198867 39.7810704,53.8105533 38.9764846,53.8105533 C38.063171,53.8105533 37.3377391,53.5219533 36.7958396,52.9516867 C36.2565497,52.3779533 35.9825556,51.5849533 35.9825556,50.5709533 C35.9825556,49.54222 36.2565497,48.74142 36.7993189,48.1685533 C37.3438278,47.59742 38.0814373,47.3096867 39.008668,47.3096867 C39.7697627,47.3096867 40.3716799,47.4743533 40.8187686,47.80022 C41.2632479,48.12782 41.5850822,48.62442 41.782532,49.2891533 Z M44.6867822,45.0869467 L44.6867822,48.24248 C45.2165041,47.6219467 45.8497349,47.30908 46.5873444,47.30908 C46.9700663,47.30908 47.3179953,47.3810133 47.6206935,47.5240133 C47.9277408,47.6661467 48.1565041,47.8455467 48.3122024,48.06308 C48.4661609,48.28148 48.5688,48.5241467 48.6279479,48.7893467 C48.6853562,49.0571467 48.7123207,49.4688133 48.7123207,50.0243467 L48.7123207,53.6678133 L47.0640071,53.6678133 L47.0640071,50.38488 C47.0640071,49.73488 47.0318237,49.32408 46.9691964,49.14468 C46.9074391,48.9687467 46.795232,48.82748 46.6377941,48.7243467 C46.4786166,48.6203467 46.2794272,48.5709467 46.0367467,48.5709467 C45.7644923,48.5709467 45.5218118,48.6368133 45.3043562,48.7694133 C45.0895101,48.9037467 44.9320722,49.1039467 44.8337822,49.37088 C44.7346225,49.63608 44.6867822,50.0321467 44.6867822,50.55648 L44.6867822,53.6678133 L43.0349893,53.6678133 L43.0349893,45.0869467 L44.6867822,45.0869467 Z M53.0014154,47.45676 L53.9208178,47.45676 L53.9208178,46.9844267 C53.9208178,46.4626933 53.978226,46.07096 54.0904331,45.81356 C54.2017704,45.5604933 54.4061787,45.3490267 54.7027882,45.1860933 C55.0002675,45.0214267 55.3821195,44.9390933 55.8413858,44.9390933 C56.3110899,44.9390933 56.771226,45.0118933 57.2191846,45.15316 L56.9965101,46.3058267 C56.7364331,46.2408267 56.4850544,46.2078933 56.2415041,46.2078933 C56.0031728,46.2078933 55.8300781,46.26336 55.7248296,46.37516 C55.6230604,46.4852267 55.570871,46.70016 55.570871,47.0164933 L55.570871,47.45676 L56.7999302,47.45676 L56.7999302,48.7498267 L55.570871,48.7498267 L55.570871,53.66816 L53.9208178,53.66816 L53.9208178,48.7498267 L53.0014154,48.7498267 L53.0014154,47.45676 Z M57.3521805,50.4744933 C57.3521805,49.9302267 57.487003,49.4006933 57.7566479,48.8876267 C58.0262929,48.3754267 58.408145,47.9854267 58.9039438,47.7150267 C59.4006124,47.4454933 59.9486006,47.3094267 60.5557367,47.3094267 C61.5021036,47.3094267 62.2762456,47.6188267 62.8781627,48.2306933 C63.4792101,48.84256 63.7819083,49.6164933 63.7819083,50.5464267 C63.7819083,51.48416 63.4757308,52.2624267 62.8685947,52.88036 C62.2623284,53.5000267 61.4968846,53.8102933 60.5748728,53.8102933 C59.9990503,53.8102933 59.4528018,53.6802933 58.936997,53.4254933 C58.4194527,53.1680933 58.0262929,52.79196 57.7566479,52.2936267 C57.487003,51.79356 57.3521805,51.1868933 57.3521805,50.4744933 Z M59.0396361,50.5628933 C59.0396361,51.1782267 59.1866361,51.65056 59.4788964,51.9772933 C59.7711568,52.3048933 60.1338728,52.4686933 60.5670444,52.4686933 C60.9967367,52.4686933 61.3603225,52.3048933 61.6508432,51.9772933 C61.9474527,51.65056 62.0909734,51.17476 62.0909734,50.5464267 C62.0909734,49.94236 61.9474527,49.4752267 61.6508432,49.14416 C61.3603225,48.81656 60.9967367,48.6492933 60.5670444,48.6492933 C60.1338728,48.6492933 59.7711568,48.81656 59.4788964,49.14416 C59.1866361,49.4752267 59.0396361,49.94756 59.0396361,50.5628933 Z M66.6573675,53.66816 L65.0099237,53.66816 L65.0099237,47.45676 L66.5442905,47.45676 L66.5442905,48.3416267 C66.8069769,47.9204267 67.041829,47.6430933 67.2488467,47.51136 C67.4567343,47.3770267 67.6950657,47.3094267 67.9612314,47.3094267 C68.3387343,47.3094267 68.7014503,47.4142933 69.0441604,47.6214267 L68.536184,49.0600933 C68.256971,48.87896 67.9951544,48.7896933 67.7568231,48.7896933 C67.5280598,48.7896933 67.3323497,48.8512267 67.1723024,48.97776 C67.0157343,49.1034267 66.8930893,49.3330933 66.8000183,49.66416 C66.7052077,49.99696 66.6573675,50.6920267 66.6573675,51.7502267 L66.6573675,53.66816 Z" id="Combined-Shape" fill="#0E7DC1"></path>
                            <path d="M72.6284379,53.6682467 L74.2750118,53.6682467 L74.2750118,47.4568467 L72.6284379,47.4568467 L72.6284379,53.6682467 Z M75.8924467,47.45676 L77.4155059,47.45676 L77.4155059,48.29916 C77.9574053,47.6396267 78.6062929,47.3094267 79.360429,47.3094267 C79.7588077,47.3094267 80.1058669,47.39436 80.4016065,47.5616267 C80.6921272,47.72716 80.9295888,47.9724267 81.1183402,48.29916 C81.3923343,47.9724267 81.6915533,47.72716 82.0090385,47.5616267 C82.3265237,47.39436 82.6648846,47.3094267 83.0189024,47.3094267 C83.476429,47.3094267 83.8669793,47.4030267 84.1827249,47.5876267 C84.5028195,47.7730933 84.7402811,48.0460933 84.8985888,48.40576 C85.0107959,48.6718267 85.069074,49.1034267 85.069074,49.6970933 L85.069074,53.66816 L83.4138018,53.66816 L83.4138018,50.1148267 C83.4138018,49.49776 83.359003,49.09996 83.251145,48.92056 C83.0954467,48.68656 82.8614645,48.5704267 82.5431095,48.5704267 C82.309997,48.5704267 82.0881923,48.63976 81.8863935,48.7810267 C81.6854645,48.9222933 81.5402041,49.1276933 81.4488728,49.39896 C81.3575414,49.6684933 81.3123107,50.0992267 81.3123107,50.68596 L81.3123107,53.66816 L79.6631272,53.66816 L79.6631272,50.2612933 C79.6631272,49.6554933 79.6326834,49.26636 79.576145,49.09216 C79.5143876,48.9188267 79.4221864,48.7870933 79.2978018,48.69956 C79.174287,48.6128933 79.0107604,48.5704267 78.8037426,48.5704267 C78.5462751,48.5704267 78.316642,48.63976 78.1131036,48.7740933 C77.9104349,48.9110267 77.7634349,49.1068933 77.6764527,49.3660267 C77.5859911,49.62516 77.5407604,50.05416 77.5407604,50.6530267 L77.5407604,53.66816 L75.8924467,53.66816 L75.8924467,47.45676 Z M86.6692864,47.4566733 L88.2027834,47.4566733 L88.2027834,48.3640733 C88.4045822,48.0546733 88.6768367,47.80074 89.0160675,47.6048733 C89.3535586,47.4090067 89.7301917,47.30934 90.1477065,47.30934 C90.8722686,47.30934 91.4872331,47.5936067 91.9899905,48.1612733 C92.4962272,48.72634 92.7484757,49.5176067 92.7484757,50.53074 C92.7484757,51.5672733 92.4918781,52.37154 91.983032,52.9470067 C91.4767953,53.52074 90.8600911,53.8102067 90.1390083,53.8102067 C89.7928189,53.8102067 89.4814225,53.7400067 89.1978604,53.6048067 C88.9169077,53.4696067 88.6237775,53.23474 88.3176,52.9002067 L88.3176,56.0332067 L86.6692864,56.0332067 L86.6692864,47.4566733 Z M88.3002036,50.4562067 C88.3002036,51.15734 88.4367657,51.6712733 88.7168485,52.0058067 C88.9908426,52.34034 89.331813,52.50934 89.7284521,52.50934 C90.1103041,52.50934 90.4312686,52.3550733 90.6887361,52.0474067 C90.9427243,51.7388733 91.0740675,51.2370733 91.0740675,50.5394067 C91.0740675,49.8842067 90.9409846,49.4006067 90.6782982,49.0842733 C90.4182213,48.7696733 90.0920379,48.61194 89.7023574,48.61194 C89.2978899,48.61194 88.9656178,48.76534 88.7003219,49.07734 C88.435026,49.3884733 88.3002036,49.84694 88.3002036,50.4562067 Z M95.2980124,49.3544133 L93.795829,49.0840133 C93.9654444,48.4799467 94.2568349,48.0327467 94.6656515,47.7441467 C95.0753379,47.45468 95.6859533,47.30908 96.4948882,47.30908 C97.2342373,47.30908 97.7839651,47.3966133 98.1440716,47.5708133 C98.5059178,47.7467467 98.7572964,47.96688 98.9051663,48.23468 C99.0460775,48.5016133 99.1191426,48.9904133 99.1191426,49.70628 L99.1043556,51.6268133 C99.1043556,52.1719467 99.1278408,52.5749467 99.1861189,52.8349467 C99.2400479,53.0975467 99.3365982,53.3757467 99.4801189,53.6678133 L97.848332,53.6678133 C97.803971,53.5612133 97.7509118,53.4000133 97.6908941,53.1885467 C97.6647994,53.0880133 97.6456633,53.02388 97.6352254,52.9909467 C97.3490538,53.26308 97.0489651,53.4693467 96.7288704,53.6045467 C96.4096456,53.7397467 96.0651959,53.8099467 95.7016101,53.8099467 C95.0588112,53.8099467 94.5543142,53.6357467 94.1829,53.2908133 C93.810616,52.9441467 93.6236041,52.50388 93.6236041,51.9691467 C93.6236041,51.6207467 93.7097166,51.3096133 93.8775923,51.0331467 C94.0472077,50.7601467 94.2837994,50.5469467 94.5891071,50.40048 C94.8900657,50.25488 95.3249769,50.1257467 95.8964503,50.0165467 C96.6688527,49.8744133 97.2029237,49.7409467 97.5021426,49.6170133 L97.5021426,49.4523467 C97.5021426,49.1351467 97.4247284,48.91068 97.2716396,48.7737467 C97.1115923,48.64028 96.8167225,48.5709467 96.3792018,48.5709467 C96.084332,48.5709467 95.8555686,48.6290133 95.6911722,48.7451467 C95.5267757,48.8621467 95.3954325,49.0649467 95.2980124,49.3544133 Z M97.5021426,50.6856133 C97.2907757,50.7575467 96.9550243,50.84248 96.4974976,50.93868 C96.0417107,51.03748 95.7442314,51.13368 95.6015805,51.2264133 C95.3815154,51.3789467 95.2727876,51.5722133 95.2727876,51.80448 C95.2727876,52.03588 95.3580302,52.23348 95.5319947,52.3990133 C95.7033497,52.5654133 95.9251544,52.64688 96.1904503,52.64688 C96.4914089,52.64688 96.7775805,52.55328 97.0437462,52.3617467 C97.240326,52.2092133 97.3699296,52.0272133 97.4377757,51.8166133 C97.4821367,51.6727467 97.5021426,51.40408 97.5021426,51.0132133 L97.5021426,50.6856133 Z M106.189321,49.2891533 L104.566232,49.5846867 C104.510563,49.26142 104.387918,49.0187533 104.194818,48.85582 C103.999108,48.69202 103.74512,48.6122867 103.432853,48.6122867 C103.024037,48.6122867 102.696983,48.75182 102.455173,49.0308867 C102.210753,49.3116867 102.089847,49.7848867 102.089847,50.44962 C102.089847,51.1888867 102.212492,51.7123533 102.462131,52.01482 C102.71177,52.31642 103.043173,52.4689533 103.458948,52.4689533 C103.774693,52.4689533 104.033901,52.3796867 104.23309,52.2011533 C104.434019,52.0269533 104.57493,51.7227533 104.654954,51.29202 L106.269344,51.5615533 C106.108427,52.3025533 105.783983,52.8615533 105.308191,53.2402867 C104.829788,53.6198867 104.18612,53.8105533 103.384143,53.8105533 C102.473439,53.8105533 101.742788,53.5219533 101.203498,52.9516867 C100.662469,52.3779533 100.392824,51.5849533 100.392824,50.5709533 C100.392824,49.54222 100.662469,48.74142 101.206108,48.1685533 C101.750617,47.59742 102.489096,47.3096867 103.416327,47.3096867 C104.177421,47.3096867 104.778469,47.4743533 105.225557,47.80022 C105.671776,48.12782 105.992741,48.62442 106.189321,49.2891533 Z M110.307408,47.45676 L110.307408,48.7654267 L109.17403,48.7654267 L109.17403,51.2666267 C109.17403,51.7788267 109.185337,52.0778267 109.206213,52.1566933 C109.230568,52.2390267 109.278408,52.3074933 109.354953,52.3612267 C109.431497,52.4166933 109.523698,52.44356 109.634166,52.44356 C109.787254,52.44356 110.00732,52.3932933 110.29697,52.2884267 L110.437012,53.5624267 C110.05603,53.7244933 109.621118,53.8102933 109.133148,53.8102933 C108.839148,53.8102933 108.572982,53.7582933 108.334651,53.6612267 C108.098059,53.5624267 107.919746,53.43676 107.807538,53.2772933 C107.696201,53.1186933 107.617917,52.9046267 107.574426,52.6324933 C107.541373,52.4400933 107.525716,52.0544267 107.525716,51.4702933 L107.525716,48.7654267 L106.764621,48.7654267 L106.764621,47.45676 L107.525716,47.45676 L107.525716,46.22436 L109.17403,45.2588933 L109.17403,47.45676 L110.307408,47.45676 Z" id="Combined-Shape" fill="#000000"></path>
                            <path d="M27.2843308,12.6039333 L27.2843308,4.99546667 L28.2211296,4.99546667 L28.2211296,7.7272 C28.6577805,7.2202 29.2048988,6.96626667 29.8685734,6.96626667 C30.2791296,6.96626667 30.634887,7.04686667 30.9367154,7.20893333 C31.2350645,7.371 31.4507805,7.59286667 31.5821237,7.87626667 C31.712597,8.15793333 31.7778337,8.57046667 31.7778337,9.11126667 L31.7778337,12.6039333 L30.8410349,12.6039333 L30.8410349,9.11126667 C30.8410349,8.6424 30.7392657,8.3018 30.5357272,8.08946667 C30.3339284,7.87626667 30.0460172,7.77053333 29.6798219,7.77053333 C29.3988692,7.77053333 29.1387923,7.84246667 28.895242,7.98806667 C28.6534314,8.1328 28.4812065,8.32866667 28.3768278,8.5748 C28.2715793,8.82093333 28.2211296,9.1598 28.2211296,9.58966667 L28.2211296,12.6039333 L27.2843308,12.6039333 Z M36.8965651,12.6039333 L36.8965651,11.7927333 C36.466003,12.4158667 35.8832219,12.727 35.1482219,12.727 C34.8185592,12.727 34.5141213,12.6654667 34.2322988,12.5424 C33.952216,12.4193333 33.7425888,12.2633333 33.6051568,12.0752667 C33.4677249,11.8863333 33.3720444,11.6549333 33.3189852,11.3793333 C33.280713,11.1956 33.2607071,10.9061333 33.2607071,10.5100667 L33.2607071,7.09713333 L34.1957663,7.09713333 L34.1957663,10.1478 C34.1957663,10.6357333 34.2149024,10.9642 34.2540444,11.1332 C34.3123225,11.3793333 34.4358373,11.5726 34.6254586,11.713 C34.8133402,11.8525333 35.0490621,11.9227333 35.3300148,11.9227333 C35.6092278,11.9227333 35.8745237,11.8516667 36.1206834,11.7086667 C36.367713,11.5665333 36.5425473,11.3715333 36.6425769,11.1219333 C36.7443462,10.8732 36.7956657,10.5144 36.7956657,10.0455333 L36.7956657,7.09713333 L37.7333343,7.09713333 L37.7333343,12.6039333 L36.8965651,12.6039333 Z M39.2851846,12.6039333 L39.2851846,7.09713333 L40.121084,7.09713333 L40.121084,7.865 C40.2950485,7.59373333 40.5272911,7.3762 40.8160722,7.2124 C41.1022438,7.0486 41.4301669,6.96626667 41.7937527,6.96626667 C42.2051787,6.96626667 42.5426698,7.05206667 42.8036166,7.22366667 C43.0654331,7.3944 43.2498355,7.63273333 43.3568237,7.93693333 C43.7969538,7.28953333 44.3675574,6.96626667 45.0660249,6.96626667 C45.6131432,6.96626667 46.0350071,7.11793333 46.3307467,7.423 C46.6264864,7.7272 46.7743562,8.19346667 46.7743562,8.82093333 L46.7743562,12.6039333 L45.8436462,12.6039333 L45.8436462,9.13293333 C45.8436462,8.76113333 45.8123325,8.49246667 45.7523148,8.32866667 C45.6914272,8.16486667 45.5818296,8.0314 45.4226521,7.93 C45.2626047,7.8286 45.0729834,7.77746667 44.854658,7.77746667 C44.4667172,7.77746667 44.144013,7.90746667 43.8874154,8.16486667 C43.6299479,8.424 43.502084,8.83566667 43.502084,9.40073333 L43.502084,12.6039333 L42.5644154,12.6039333 L42.5644154,9.0246 C42.5644154,8.6086 42.4887408,8.2966 42.3347822,8.08946667 C42.1834331,7.88146667 41.9337941,7.77746667 41.5893444,7.77746667 C41.3231787,7.77746667 41.0778888,7.8468 40.8552142,7.9846 C40.6316698,8.1224 40.4707527,8.3252 40.3715929,8.593 C40.2715633,8.8608 40.2228533,9.24473333 40.2228533,9.74133333 L40.2228533,12.6039333 L39.2851846,12.6039333 Z M51.8438556,11.9223867 C51.4950568,12.2170533 51.161045,12.4250533 50.8409503,12.54552 C50.5208556,12.6659867 50.1764059,12.7266533 49.808471,12.7266533 C49.2013349,12.7266533 48.7359799,12.57932 48.4089266,12.2846533 C48.0818734,11.9908533 47.9174769,11.6138533 47.9174769,11.15452 C47.9174769,10.88412 47.9801041,10.6362533 48.1036189,10.4117867 C48.2271337,10.18732 48.3871811,10.0070533 48.5863704,9.87185333 C48.7855598,9.73665333 49.009974,9.63525333 49.2639621,9.56765333 C49.4466249,9.51912 49.7232284,9.47318667 50.092903,9.42985333 C50.8487787,9.33798667 51.4063349,9.22965333 51.7647018,9.10398667 C51.7690509,8.97832 51.7716604,8.89772 51.7716604,8.86478667 C51.7716604,8.48345333 51.6829385,8.21478667 51.503755,8.05965333 C51.2645538,7.84732 50.9114059,7.74158667 50.4417018,7.74158667 C49.9989621,7.74158667 49.6736485,7.81872 49.4631515,7.97298667 C49.2526544,8.12812 49.0952166,8.40025333 48.9934473,8.79198667 L48.0775243,8.66892 C48.1610272,8.27718667 48.2967195,7.96172 48.4889503,7.71905333 C48.6803112,7.47812 48.956045,7.29178667 49.3178911,7.16178667 C49.6779976,7.03092 50.0972521,6.96592 50.573045,6.96592 C51.0470982,6.96592 51.4306899,7.02138667 51.7246899,7.13232 C52.0178201,7.24412 52.2344059,7.38365333 52.376187,7.55265333 C52.5153586,7.72165333 52.6127787,7.93398667 52.6667077,8.19052 C52.6962817,8.34998667 52.7101988,8.63685333 52.7101988,9.05285333 L52.7101988,10.2921867 C52.7101988,11.1614533 52.7302047,11.71092 52.7719562,11.9405867 C52.811968,12.1702533 52.8911219,12.3912533 53.0076781,12.6035867 L52.0326071,12.6035867 C51.935187,12.41032 51.8734296,12.1832533 51.8438556,11.9223867 Z M51.7647018,9.83545333 C51.4246012,9.97585333 50.915755,10.09372 50.2381633,10.1907867 C49.8493527,10.2488533 49.5753586,10.3112533 49.4153112,10.3788533 C49.2552639,10.4464533 49.1326189,10.5469867 49.0456367,10.6795867 C48.9577846,10.8130533 48.9142935,10.9612533 48.9142935,11.12592 C48.9142935,11.3720533 49.0091041,11.57832 49.2013349,11.74472 C49.3926959,11.9119867 49.6710391,11.9951867 50.0346249,11.9951867 C50.3921219,11.9951867 50.7122166,11.91632 50.9940391,11.7594533 C51.2749917,11.6025867 51.4811396,11.38852 51.611613,11.11812 C51.7133822,10.9057867 51.7647018,10.5937867 51.7647018,10.1838533 L51.7647018,9.83545333 Z M54.2458704,12.6039333 L54.2458704,7.09713333 L55.0887284,7.09713333 L55.0887284,7.87886667 C55.4914562,7.27046667 56.0777166,6.96626667 56.8483793,6.96626667 C57.1789118,6.96626667 57.4850893,7.02693333 57.7651722,7.1474 C58.045255,7.26786667 58.2548822,7.42473333 58.393184,7.61886667 C58.5314858,7.81126667 58.6271663,8.04093333 58.6810953,8.307 C58.7202373,8.48033333 58.7393734,8.78193333 58.7393734,9.21266667 L58.7393734,12.6039333 L57.7999651,12.6039333 L57.7999651,9.24906667 C57.7999651,8.87206667 57.7651722,8.58953333 57.6929769,8.4006 C57.6199118,8.21253333 57.4903083,8.06173333 57.3024266,7.9482 C57.1171544,7.83466667 56.8970893,7.77746667 56.6457107,7.77746667 C56.2482018,7.77746667 55.9046219,7.90486667 55.6158408,8.15793333 C55.3279296,8.41186667 55.1817994,8.89113333 55.1817994,9.5966 L55.1817994,12.6039333 L54.2458704,12.6039333 Z M0.115947337,22.3539333 L0.115947337,16.8462667 L0.957935503,16.8462667 L0.957935503,17.68 C1.17539112,17.2882667 1.37458047,17.03 1.55637337,16.9043333 C1.73729645,16.7786667 1.9364858,16.7162667 2.15481124,16.7162667 C2.46968698,16.7162667 2.78978166,16.8176667 3.1124858,17.0204667 L2.79326095,17.8897333 C2.56536746,17.7545333 2.33660414,17.6869333 2.10436154,17.6869333 C1.9016929,17.6869333 1.71729053,17.7476 1.55637337,17.8680667 C1.39371657,17.9885333 1.2789,18.161 1.21018402,18.3828667 C1.1049355,18.7113333 1.05013669,19.0736 1.05013669,19.4696667 L1.05013669,22.3539333 L0.115947337,22.3539333 Z M7.52109408,20.5780467 L8.48659704,20.7011133 C8.33698757,21.2618467 8.05603491,21.69778 7.64025976,22.00978 C7.22796391,22.32178 6.70085148,22.4769133 6.06240178,22.4769133 C5.25433669,22.4769133 4.61414734,22.2299133 4.14096391,21.73418 C3.67038994,21.2384467 3.43379822,20.5425133 3.43379822,19.64378 C3.43379822,18.71558 3.67299941,17.9962467 4.14966213,17.4840467 C4.62632485,16.9718467 5.24650828,16.71618 6.01108225,16.71618 C6.74608225,16.71618 7.35060888,16.9666467 7.81857337,17.4693133 C8.28827751,17.97198 8.52312959,18.6774467 8.52312959,19.5857133 C8.52312959,19.64378 8.52138994,19.7278467 8.51617101,19.8396467 L4.40017101,19.8396467 C4.43409408,20.4437133 4.60457929,20.9056467 4.91162663,21.22718 C5.21867396,21.5478467 5.60487515,21.7090467 6.06936036,21.7090467 C6.41381006,21.7090467 6.70607041,21.6189133 6.94788107,21.44038 C7.19056154,21.2618467 7.38105266,20.9741133 7.52109408,20.5780467 Z M4.45062071,19.0709133 L7.53588107,19.0709133 C7.49238994,18.6072467 7.37409408,18.2588467 7.17925385,18.0274467 C6.88090473,17.66518 6.49296391,17.4840467 6.01891065,17.4840467 C5.58834852,17.4840467 5.22563254,17.6279133 4.93424201,17.9156467 C4.64111183,18.2025133 4.48019467,18.58818 4.45062071,19.0709133 Z M9.74409941,24.4624467 L9.74409941,16.84618 L10.593916,16.84618 L10.593916,17.55598 C10.7965846,17.2769133 11.0244781,17.0663133 11.2758568,16.9259133 C11.5272355,16.7855133 11.8360225,16.71618 12.1978686,16.71618 C12.666703,16.71618 13.0824781,16.83838 13.4434544,17.0819133 C13.8018213,17.3254467 14.0758154,17.66778 14.2593479,18.10718 C14.4428805,18.54658 14.5350817,19.03018 14.5350817,19.5571133 C14.5350817,20.1213133 14.4341822,20.6300467 14.2315136,21.08158 C14.0271053,21.53398 13.7313657,21.8789133 13.3451645,22.1181133 C12.9572237,22.3573133 12.5501467,22.4769133 12.1256734,22.4769133 C11.8160166,22.4769133 11.5359337,22.4119133 11.2862947,22.2819133 C11.0375254,22.1510467 10.8348568,21.98378 10.6800284,21.78098 L10.6800284,24.4624467 L9.74409941,24.4624467 Z M10.5869574,19.6290467 C10.5869574,20.3388467 10.7304781,20.86318 11.0192592,21.2020467 C11.3054308,21.5400467 11.6559692,21.7090467 12.0673953,21.7090467 C12.4831704,21.7090467 12.8389278,21.53398 13.1337976,21.1838467 C13.4286675,20.8328467 13.5774071,20.28858 13.5774071,19.5493133 C13.5774071,18.8490467 13.4321467,18.3238467 13.1407562,17.9728467 C12.8511053,17.6227133 12.504916,17.4476467 12.1039278,17.4476467 C11.7072888,17.4476467 11.3550107,17.63398 11.0479633,18.00578 C10.7383065,18.3784467 10.5869574,18.9192467 10.5869574,19.6290467 Z M15.7269124,22.3539333 L15.7269124,16.8462667 L16.5697704,16.8462667 L16.5697704,17.68 C16.7863562,17.2882667 16.9872852,17.03 17.1690781,16.9043333 C17.3500012,16.7786667 17.5500604,16.7162667 17.7683858,16.7162667 C18.0815219,16.7162667 18.4016166,16.8176667 18.7260604,17.0204667 L18.4077053,17.8897333 C18.178942,17.7545333 17.9484391,17.6869333 17.7170663,17.6869333 C17.512658,17.6869333 17.3299953,17.7476 17.1690781,17.8680667 C17.0064213,17.9885333 16.8907349,18.161 16.8237586,18.3828667 C16.7159006,18.7113333 16.6645811,19.0736 16.6645811,19.4696667 L16.6645811,22.3539333 L15.7269124,22.3539333 Z M19.0104923,19.5994067 C19.0104923,18.5810733 19.2931846,17.8244733 19.8594391,17.3322067 C20.3334923,16.9214067 20.9127941,16.7160067 21.5947349,16.7160067 C22.3540899,16.7160067 22.9751432,16.96474 23.4570249,17.4622067 C23.9380367,17.9596733 24.1789775,18.6460733 24.1789775,19.52054 C24.1789775,20.23034 24.0728592,20.7884733 23.8606225,21.1940733 C23.6466462,21.5996733 23.3369893,21.91514 22.9307822,22.1404733 C22.5237053,22.3640733 22.0783562,22.47674 21.5947349,22.47674 C20.8258118,22.47674 20.2030189,22.22974 19.7254864,21.7340067 C19.2488237,21.2382733 19.0104923,20.5276067 19.0104923,19.5994067 Z M19.9681669,19.5994067 C19.9681669,20.30574 20.1247349,20.8326733 20.4335219,21.1836733 C20.7431787,21.5338067 21.1302497,21.7088733 21.5947349,21.7088733 C22.0600899,21.7088733 22.4471609,21.5320733 22.7559479,21.1802067 C23.0656047,20.8274733 23.221303,20.2910067 23.221303,19.5708067 C23.221303,18.8852733 23.0656047,18.3670067 22.7515988,18.0168733 C22.4410722,17.6658733 22.0557408,17.4908067 21.5947349,17.4908067 C21.1302497,17.4908067 20.7431787,17.6658733 20.4335219,18.0168733 C20.1247349,18.3670067 19.9681669,18.89394 19.9681669,19.5994067 Z M28.9361237,22.3539333 L28.9361237,21.658 C28.5881947,22.204 28.0723899,22.477 27.3904491,22.477 C26.9485793,22.477 26.5449817,22.3565333 26.1779166,22.1147333 C25.8091118,21.8729333 25.5246799,21.5349333 25.3202716,21.0998667 C25.1167331,20.6656667 25.0167036,20.1682 25.0167036,19.6074667 C25.0167036,19.0562667 25.1062953,18.5570667 25.2915675,18.1072667 C25.4759698,17.6583333 25.7508337,17.3142667 26.1196385,17.0750667 C26.4867036,16.8358667 26.8989994,16.7162667 27.3539166,16.7162667 C27.6818396,16.7162667 27.9784491,16.7856 28.238526,16.926 C28.5003426,17.0664 28.7117095,17.2492667 28.8700172,17.4772 L28.8700172,14.7446 L29.8076858,14.7446 L29.8076858,22.3539333 L28.9361237,22.3539333 Z M25.9813367,19.6074667 C25.9813367,20.3129333 26.1309462,20.8398667 26.4275556,21.1874 C26.7267746,21.5349333 27.077313,21.7091333 27.4852598,21.7091333 C27.890597,21.7091333 28.2359166,21.5427333 28.522958,21.2090667 C28.8073899,20.8754 28.9509107,20.3658 28.9509107,19.6802667 C28.9509107,18.9262667 28.8047805,18.3724667 28.5151296,18.0206 C28.2246089,17.6678667 27.866242,17.4910667 27.4408988,17.4910667 C27.023384,17.4910667 26.6771947,17.6609333 26.3979817,17.9989333 C26.1205083,18.3369333 25.9813367,18.8725333 25.9813367,19.6074667 Z M34.9708651,22.3539333 L34.9708651,21.5427333 C34.5394331,22.1658667 33.9566521,22.477 33.2199124,22.477 C32.8919893,22.477 32.5866817,22.4154667 32.305729,22.2924 C32.0256462,22.1693333 31.8151491,22.0133333 31.6777172,21.8252667 C31.5402852,21.6363333 31.4446047,21.4040667 31.3906757,21.1293333 C31.3515337,20.9456 31.3323976,20.6561333 31.3323976,20.2600667 L31.3323976,16.8462667 L32.2709361,16.8462667 L32.2709361,19.8978 C32.2709361,20.3857333 32.2892024,20.7133333 32.3274746,20.8823333 C32.3857527,21.1293333 32.5083976,21.3226 32.6971491,21.4621333 C32.8867704,21.6025333 33.1216225,21.6727333 33.4025751,21.6727333 C33.6817882,21.6727333 33.9462142,21.6008 34.192374,21.4586667 C34.4394036,21.3165333 34.6142379,21.1206667 34.7160071,20.8719333 C34.8169065,20.6232 34.868226,20.2644 34.868226,19.7955333 L34.868226,16.8462667 L35.8050249,16.8462667 L35.8050249,22.3539333 L34.9708651,22.3539333 Z M40.9611586,20.3319133 L41.8840402,20.45498 C41.782271,21.0885133 41.5239337,21.5825133 41.1098982,21.9413133 C40.6949929,22.29838 40.1835373,22.4769133 39.5798805,22.4769133 C38.8231349,22.4769133 38.2142592,22.23078 37.7532533,21.7376467 C37.2922473,21.24538 37.063484,20.5399133 37.063484,19.6221133 C37.063484,19.02758 37.1609041,18.5067133 37.3600935,18.06038 C37.5601527,17.61318 37.8611112,17.27778 38.2664485,17.0524467 C38.670916,16.82798 39.1101763,16.71618 39.5859692,16.71618 C40.1861467,16.71618 40.6775964,16.8687133 41.0585787,17.1729133 C41.4395609,17.4771133 41.6822414,17.90698 41.7900994,18.4625133 L40.8802651,18.6003133 C40.792413,18.2328467 40.6393243,17.9546467 40.4183893,17.76658 C40.1974544,17.5785133 39.9321586,17.4840467 39.6233716,17.4840467 C39.1475787,17.4840467 38.7631172,17.6530467 38.469987,17.9910467 C38.175987,18.3299133 38.0298568,18.86378 38.0298568,19.5926467 C38.0298568,20.3319133 38.1716379,20.8692467 38.4552,21.2055133 C38.739632,21.5409133 39.1101763,21.7090467 39.5711822,21.7090467 C39.9391172,21.7090467 40.2461645,21.59638 40.4914544,21.3719133 C40.7358746,21.1474467 40.8924426,20.80078 40.9611586,20.3319133 Z M44.8014249,21.5202 L44.9397266,22.347 C44.6726911,22.3998667 44.4352296,22.4267333 44.227342,22.4267333 C43.8872414,22.4267333 43.624555,22.373 43.4375432,22.2672667 C43.2505314,22.1606667 43.1183183,22.0194 43.041774,21.8426 C42.9643598,21.6666667 42.9252178,21.2983333 42.9252178,20.7376 L42.9252178,17.5716667 L42.2424071,17.5716667 L42.2424071,16.8462667 L42.9252178,16.8462667 L42.9252178,15.4769333 L43.8559278,14.9188 L43.8559278,16.8462667 L44.8014249,16.8462667 L44.8014249,17.5716667 L43.8559278,17.5716667 L43.8559278,20.7887333 C43.8559278,21.0591333 43.8724544,21.2316 43.9072473,21.307 C43.9403006,21.3824 43.9942296,21.4422 44.0716438,21.4881333 C44.1455787,21.5340667 44.251697,21.5566 44.3873893,21.5566 C44.4935077,21.5566 44.6318095,21.5453333 44.8014249,21.5202 Z M45.7918047,22.35298 L46.7303432,22.35298 L46.7303432,16.84618 L45.7918047,16.84618 L45.7918047,22.35298 Z M45.7918047,15.82438 L46.7303432,15.82438 L46.7303432,14.7445133 L45.7918047,14.7445133 L45.7918047,15.82438 Z M47.8886858,19.5994067 C47.8886858,18.5810733 48.1731178,17.8244733 48.740242,17.3322067 C49.2134254,16.9214067 49.793597,16.7160067 50.4772775,16.7160067 C51.2375024,16.7160067 51.8594254,16.96474 52.3421769,17.4622067 C52.8249284,17.9596733 53.0658692,18.6460733 53.0658692,19.52054 C53.0658692,20.23034 52.9597509,20.7884733 52.7457746,21.1940733 C52.5317982,21.5996733 52.2221414,21.91514 51.8150645,22.1404733 C51.4079876,22.3640733 50.9608988,22.47674 50.4772775,22.47674 C49.7066148,22.47674 49.0820822,22.22974 48.6054195,21.7340067 C48.127887,21.2382733 47.8886858,20.5276067 47.8886858,19.5994067 Z M48.8481,19.5994067 C48.8481,20.30574 49.0037982,20.8326733 49.313455,21.1836733 C49.6231118,21.5338067 50.0119225,21.7088733 50.4772775,21.7088733 C50.9426325,21.7088733 51.3314432,21.5320733 51.6411,21.1802067 C51.949887,20.8274733 52.1055852,20.2910067 52.1055852,19.5708067 C52.1055852,18.8852733 51.949887,18.3670067 51.6376207,18.0168733 C51.3244846,17.6658733 50.9382834,17.4908067 50.4772775,17.4908067 C50.0119225,17.4908067 49.6231118,17.6658733 49.313455,18.0168733 C49.0037982,18.3670067 48.8481,18.89394 48.8481,19.5994067 Z M54.2458704,22.3539333 L54.2458704,16.8462667 L55.0887284,16.8462667 L55.0887284,17.6288667 C55.4914562,17.0204667 56.0777166,16.7162667 56.8483793,16.7162667 C57.1789118,16.7162667 57.4850893,16.7769333 57.7651722,16.8974 C58.045255,17.0178667 58.2548822,17.1756 58.393184,17.368 C58.5314858,17.5612667 58.6271663,17.7909333 58.6810953,18.057 C58.7202373,18.2303333 58.7393734,18.5319333 58.7393734,18.9626667 L58.7393734,22.3539333 L57.7999651,22.3539333 L57.7999651,18.9990667 C57.7999651,18.6220667 57.7651722,18.3395333 57.6929769,18.1506 C57.6199118,17.9625333 57.4903083,17.8108667 57.3024266,17.6982 C57.1171544,17.5846667 56.8970893,17.5274667 56.6457107,17.5274667 C56.2482018,17.5274667 55.9046219,17.6548667 55.6158408,17.9079333 C55.3279296,18.1618667 55.1817994,18.6411333 55.1817994,19.3466 L55.1817994,22.3539333 L54.2458704,22.3539333 Z M5.11429527,34.21158 L5.11429527,26.59618 L5.96411183,26.59618 L5.96411183,27.30598 C6.16852012,27.0260467 6.39641361,26.8154467 6.64692249,26.6750467 C6.89830118,26.5346467 7.2044787,26.4653133 7.5680645,26.4653133 C8.03863846,26.4653133 8.45354379,26.5875133 8.8136503,26.8310467 C9.17462663,27.07458 9.44688107,27.4169133 9.62954379,27.8563133 C9.81394615,28.29658 9.90527751,28.7793133 9.90527751,29.3062467 C9.90527751,29.8713133 9.80437811,30.37918 9.59996982,30.83158 C9.39817101,31.2831133 9.10243136,31.6280467 8.71536036,31.8681133 C8.32915917,32.1073133 7.92208225,32.2260467 7.49586923,32.2260467 C7.18621243,32.2260467 6.90612959,32.1610467 6.65736036,32.0310467 C6.40946095,31.90018 6.20679231,31.73378 6.05196391,31.5301133 L6.05196391,34.21158 L5.11429527,34.21158 Z M5.95628343,29.37818 C5.95628343,30.0888467 6.10154379,30.61318 6.38945503,30.95118 C6.67649645,31.28918 7.02616509,31.45818 7.43759112,31.45818 C7.85423609,31.45818 8.20999349,31.2831133 8.50573314,30.93298 C8.80060296,30.58198 8.94760296,30.0377133 8.94760296,29.2984467 C8.94760296,28.59818 8.80321243,28.07298 8.51182189,27.72198 C8.22217101,27.3718467 7.87598166,27.19678 7.47499349,27.19678 C7.07661479,27.19678 6.72520651,27.3831133 6.41815917,27.7549133 C6.11111183,28.12758 5.95628343,28.66838 5.95628343,29.37818 Z M11.098326,32.1030667 L11.098326,26.5962667 L11.9394444,26.5962667 L11.9394444,27.4291333 C12.1577698,27.0374 12.357829,26.78 12.5387521,26.6543333 C12.720545,26.5278 12.9206041,26.4654 13.1380598,26.4654 C13.4520657,26.4654 13.7712905,26.5668 14.0966041,26.7696 L13.7773793,27.6388667 C13.5494858,27.5036667 13.3189828,27.4360667 13.0858704,27.4360667 C12.8840716,27.4360667 12.7005391,27.4967333 12.5387521,27.6172 C12.3769651,27.7385333 12.2621485,27.9101333 12.1951722,28.132 C12.0873142,28.4613333 12.0351249,28.8227333 12.0351249,29.2196667 L12.0351249,32.1030667 L11.098326,32.1030667 Z M14.3810361,29.3494067 C14.3810361,28.3302067 14.6645982,27.5736067 15.2308527,27.08134 C15.7040361,26.67054 16.282468,26.46514 16.9652787,26.46514 C17.7255036,26.46514 18.3474266,26.7138733 18.8275686,27.21134 C19.3085805,27.7088067 19.5495213,28.3952067 19.5495213,29.2696733 C19.5495213,29.9794733 19.4442728,30.5376067 19.2294266,30.9432067 C19.0180598,31.3496733 18.7066633,31.6642733 18.301326,31.8896067 C17.8942491,32.1140733 17.4497698,32.2258733 16.9652787,32.2258733 C16.1954858,32.2258733 15.5726929,31.9788733 15.0960302,31.48314 C14.6202373,30.9882733 14.3810361,30.27674 14.3810361,29.3494067 Z M15.3395805,29.3494067 C15.3395805,30.0548733 15.4944089,30.5818067 15.8040657,30.9328067 C16.1128527,31.28294 16.5007935,31.4580067 16.9652787,31.4580067 C17.4297639,31.4580067 17.8185746,31.2812067 18.1264917,30.92934 C18.4378882,30.5766067 18.5909769,30.04014 18.5909769,29.31994 C18.5909769,28.6344067 18.4361485,28.11614 18.1230124,27.7660067 C17.8124858,27.4150067 17.4254148,27.2408067 16.9652787,27.2408067 C16.5007935,27.2408067 16.1128527,27.4150067 15.8040657,27.7660067 C15.4944089,28.11614 15.3395805,28.64394 15.3395805,29.3494067 Z M20.5534704,32.5598 L21.4606953,32.6976 C21.4989675,32.9775333 21.604216,33.1803333 21.7790503,33.306 C22.0121627,33.4802 22.3287781,33.566 22.7306361,33.566 C23.167287,33.566 23.5012988,33.4802 23.7370207,33.306 C23.9718728,33.1326667 24.1293107,32.8908667 24.2119438,32.5814667 C24.2606538,32.3882 24.2823994,31.9869333 24.2771805,31.3785333 C23.8701036,31.8612667 23.3612574,32.1030667 22.7515118,32.1030667 C21.9930266,32.1030667 21.4058964,31.8300667 20.9892515,31.2840667 C20.5726065,30.7380667 20.3647189,30.0846 20.3647189,29.3202 C20.3647189,28.7941333 20.4603994,28.3088 20.6517604,27.8642 C20.8422515,27.4196 21.1197249,27.0746667 21.4824408,26.8311333 C21.8460266,26.5876 22.2705,26.4654 22.7602101,26.4654 C23.4082278,26.4654 23.9457781,26.7288667 24.3728609,27.2549333 L24.3728609,26.5962667 L25.2278964,26.5962667 L25.2278964,31.3568667 C25.2278964,32.2122667 25.1409142,32.8198 24.9678195,33.1794667 C24.7929852,33.5391333 24.514642,33.8234 24.1353994,34.0305333 C23.7561568,34.2385333 23.2890621,34.3425333 22.7375947,34.3425333 C22.0800089,34.3425333 21.5468077,34.1934667 21.1406006,33.8962 C20.7343935,33.5998 20.5386834,33.1543333 20.5534704,32.5598 Z M21.3293521,29.2482667 C21.3293521,29.9728 21.4746124,30.5006 21.7616538,30.8316667 C22.0495651,31.1618667 22.4088018,31.3282667 22.8384941,31.3282667 C23.2707959,31.3282667 23.6317722,31.1636 23.9214231,30.8351333 C24.2119438,30.5066667 24.358074,29.9875333 24.358074,29.2768667 C24.358074,28.6052 24.2075947,28.0982 23.9066361,27.755 C23.6065473,27.4126667 23.2464408,27.2410667 22.8245769,27.2410667 C22.4088018,27.2410667 22.0556538,27.4100667 21.7642633,27.7480667 C21.4746124,28.0860667 21.3293521,28.5861333 21.3293521,29.2482667 Z M26.7118136,32.1030667 L26.7118136,26.5962667 L27.552932,26.5962667 L27.552932,27.4291333 C27.7712574,27.0374 27.9704467,26.78 28.1513698,26.6543333 C28.3331627,26.5278 28.5323521,26.4654 28.7498077,26.4654 C29.0655533,26.4654 29.3847781,26.5668 29.7083521,26.7696 L29.3891272,27.6388667 C29.1612337,27.5036667 28.9324704,27.4360667 28.7010976,27.4360667 C28.4975592,27.4360667 28.3131568,27.4967333 28.1513698,27.6172 C27.9895828,27.7385333 27.8747663,27.9101333 27.8060503,28.132 C27.7008018,28.4613333 27.646003,28.8227333 27.646003,29.2196667 L27.646003,32.1030667 L26.7118136,32.1030667 Z M33.9428219,31.42152 C33.5948929,31.7161867 33.2608811,31.9241867 32.9407864,32.0446533 C32.6215615,32.16512 32.2788515,32.2257867 31.9100467,32.2257867 C31.3055201,32.2257867 30.8392953,32.0784533 30.5139817,31.7837867 C30.1860586,31.4899867 30.022532,31.1129867 30.022532,30.6536533 C30.022532,30.3823867 30.0842893,30.1353867 30.208674,29.91092 C30.3313189,29.6864533 30.4931059,29.5061867 30.6905556,29.3709867 C30.8888751,29.2357867 31.115029,29.1343867 31.3655379,29.0667867 C31.5508101,29.0182533 31.825674,28.97232 32.1936089,28.9289867 C32.947745,28.83712 33.5053012,28.7287867 33.8627982,28.60312 C33.8671473,28.4774533 33.8697568,28.3968533 33.8697568,28.36392 C33.8697568,27.98172 33.7792953,27.71392 33.6018515,27.5587867 C33.3652598,27.3464533 33.0103722,27.24072 32.5415379,27.24072 C32.1022775,27.24072 31.7760941,27.3178533 31.565597,27.47212 C31.3551,27.6272533 31.198532,27.9002533 31.0976325,28.29112 L30.1825793,28.1680533 C30.2643426,27.77632 30.4017746,27.4599867 30.5922657,27.2181867 C30.7836266,26.9772533 31.0602302,26.79092 31.4194669,26.66092 C31.7804432,26.5300533 32.197958,26.4650533 32.6728811,26.4650533 C33.1478041,26.4650533 33.530526,26.52052 33.8236562,26.6314533 C34.1167864,26.7432533 34.3316325,26.8827867 34.4725438,27.0517867 C34.6143249,27.2207867 34.7100053,27.43312 34.7621947,27.6896533 C34.7917686,27.84912 34.8065556,28.1359867 34.8065556,28.5519867 L34.8065556,29.79132 C34.8065556,30.6605867 34.8274314,31.2100533 34.868313,31.43972 C34.9091947,31.6693867 34.9883485,31.8903867 35.1040349,32.10272 L34.1315734,32.10272 C34.0350231,31.9094533 33.9723959,31.6823867 33.9428219,31.42152 Z M33.8627982,29.3345867 C33.5253071,29.4749867 33.0164609,29.5928533 32.3379994,29.68992 C31.9500586,29.7479867 31.6778041,29.8103867 31.5186266,29.8779867 C31.3585793,29.9455867 31.2350645,30.04612 31.1472124,30.17872 C31.0611,30.3121867 31.0176089,30.4603867 31.0176089,30.6250533 C31.0176089,30.8711867 31.1132893,31.0774533 31.3029107,31.2438533 C31.4951414,31.41112 31.771745,31.49432 32.1353308,31.49432 C32.4936976,31.49432 32.8137923,31.4154533 33.0930053,31.2585867 C33.373958,31.10172 33.5792361,30.8876533 33.7097095,30.6172533 C33.8123485,30.40492 33.8627982,30.09292 33.8627982,29.6829867 L33.8627982,29.3345867 Z M36.3405746,32.1030667 L36.3405746,26.5962667 L37.1756041,26.5962667 L37.1756041,27.3641333 C37.3495686,27.0928667 37.5809414,26.8753333 37.8697225,26.7115333 C38.1585036,26.5477333 38.484687,26.4654 38.8482728,26.4654 C39.2596988,26.4654 39.5971899,26.5512 39.8590065,26.7228 C40.1208231,26.8935333 40.3043556,27.1318667 40.4113438,27.4360667 C40.851474,26.7886667 41.4220775,26.4654 42.120545,26.4654 C42.6676633,26.4654 43.0895272,26.6179333 43.3852669,26.9221333 C43.6810065,27.2263333 43.8288763,27.6926 43.8288763,28.3200667 L43.8288763,32.1030667 L42.8981663,32.1030667 L42.8981663,28.6320667 C42.8981663,28.2602667 42.8685923,27.9916 42.8077047,27.8278 C42.7459473,27.664 42.6372195,27.5305333 42.4763024,27.4291333 C42.3171249,27.3277333 42.1275036,27.2766 41.9100479,27.2766 C41.5212373,27.2766 41.1985331,27.4066 40.9419355,27.6648667 C40.684468,27.9231333 40.5566041,28.3348 40.5566041,28.8998667 L40.5566041,32.1030667 L39.6189355,32.1030667 L39.6189355,28.5237333 C39.6189355,28.1077333 39.5423911,27.7957333 39.391042,27.5886 C39.2370834,27.3806 38.9883142,27.2766 38.6447343,27.2766 C38.3776988,27.2766 38.1324089,27.3459333 37.9097343,27.4837333 C37.6870598,27.6215333 37.524403,27.8243333 37.4269828,28.0921333 C37.3269533,28.3599333 37.2773734,28.7438667 37.2773734,29.2404667 L37.2773734,32.1030667 L36.3405746,32.1030667 Z M45.2927876,32.1030667 L45.2927876,26.5962667 L46.1278172,26.5962667 L46.1278172,27.3641333 C46.3026515,27.0928667 46.5357639,26.8753333 46.8228053,26.7115333 C47.1107166,26.5477333 47.4369,26.4654 47.8004858,26.4654 C48.2136515,26.4654 48.5511426,26.5512 48.8120893,26.7228 C49.0739059,26.8935333 49.2574385,27.1318667 49.3644266,27.4360667 C49.8054266,26.7886667 50.3751604,26.4654 51.072758,26.4654 C51.621616,26.4654 52.0434799,26.6179333 52.3383497,26.9221333 C52.6340893,27.2263333 52.782829,27.6926 52.782829,28.3200667 L52.782829,32.1030667 L51.8521189,32.1030667 L51.8521189,28.6320667 C51.8521189,28.2602667 51.8208053,27.9916 51.7599178,27.8278 C51.7007698,27.664 51.5903024,27.5305333 51.430255,27.4291333 C51.2702077,27.3277333 51.0814562,27.2766 50.8631308,27.2766 C50.4743201,27.2766 50.1524858,27.4066 49.8950183,27.6648667 C49.6384207,27.9231333 49.5105568,28.3348 49.5105568,28.8998667 L49.5105568,32.1030667 L48.5720183,32.1030667 L48.5720183,28.5237333 C48.5720183,28.1077333 48.495474,27.7957333 48.343255,27.5886 C48.1901663,27.3806 47.9422669,27.2766 47.5969473,27.2766 C47.3316515,27.2766 47.0854917,27.3459333 46.863687,27.4837333 C46.6401426,27.6215333 46.4792254,27.8243333 46.3791959,28.0921333 C46.2800361,28.3599333 46.2295864,28.7438667 46.2295864,29.2404667 L46.2295864,32.1030667 L45.2927876,32.1030667 Z M58.0262059,30.3280467 L58.9925787,30.4511133 C58.8429692,31.01098 58.5611467,31.4469133 58.1462414,31.7589133 C57.7322059,32.0709133 57.2042237,32.2260467 56.5640343,32.2260467 C55.7559692,32.2260467 55.1140402,31.9790467 54.6417266,31.4833133 C54.1685432,30.9884467 53.9319515,30.2916467 53.9319515,29.3929133 C53.9319515,28.46558 54.1720225,27.74538 54.6486852,27.23318 C55.1262178,26.7218467 55.747271,26.4653133 56.5144544,26.4653133 C57.2520639,26.4653133 57.8539811,26.7166467 58.3236852,27.2184467 C58.7959988,27.7211133 59.0299811,28.42658 59.0299811,29.3348467 C59.0299811,29.3929133 59.0282414,29.47698 59.0221527,29.58878 L54.9000639,29.58878 C54.9331172,30.1928467 55.1044722,30.65478 55.4123893,30.9763133 C55.7211763,31.2978467 56.1073775,31.45818 56.5727325,31.45818 C56.9180521,31.45818 57.2103124,31.3680467 57.4512533,31.1895133 C57.6948036,31.01098 57.8852947,30.7232467 58.0262059,30.3280467 Z M54.9496438,28.8209133 L58.0418627,28.8209133 C57.9975018,28.35638 57.8792059,28.0088467 57.6843657,27.77658 C57.3851467,27.4143133 56.9963361,27.23318 56.5205432,27.23318 C56.0908509,27.23318 55.7281349,27.3779133 55.4332651,27.66478 C55.1410047,27.9516467 54.9792178,28.3373133 54.9496438,28.8209133 Z" id="Combined-Shape" fill="#696B6E"></path>
                            <path d="M81.0680645,32.1360867 L81.0680645,18.57362 C81.0680645,17.5162867 80.9515083,16.5568867 80.7236148,15.6936867 C80.4939817,14.8287533 80.1225675,14.08602 79.6137213,13.46462 C79.1048751,12.8440867 78.4481592,12.3656867 77.6383544,12.02942 C76.8276799,11.6948867 75.8639166,11.52502 74.7470645,11.52502 C73.6876207,11.52502 72.7125497,11.7321533 71.8253308,12.1472867 C70.9337627,12.55982 70.1683189,13.12402 69.5229107,13.8381533 C68.879242,14.5531533 68.3782243,15.3955533 68.0181178,16.3670867 C67.6614905,17.3377533 67.4805675,18.38122 67.4805675,19.49402 L67.4805675,32.1360867 L64.4274905,32.1360867 L64.4274905,8.66666664e-05 L67.4805675,8.66666664e-05 L67.4805675,9.72582 C67.4805675,10.2258867 67.4718692,10.73202 67.4596917,11.24682 C67.4301178,11.77462 67.4083722,12.2538867 67.3953249,12.68202 C67.3805379,13.12402 67.3657509,13.4966867 67.3518337,13.7965533 C67.3239994,14.0955533 67.3100822,14.2740867 67.3100822,14.3321533 L67.3953249,14.3321533 C68.3390822,12.5892867 69.4976858,11.2970867 70.8650467,10.45382 C72.2332775,9.61228667 73.8789817,9.19022 75.8004195,9.19022 C77.2617213,9.19022 78.5107864,9.39735333 79.5493544,9.81075333 C80.590532,10.2258867 81.4420882,10.8091533 82.1083722,11.55882 C82.7737864,12.3084867 83.2661059,13.2106867 83.5818515,14.2671533 C83.897597,15.32362 84.0559047,16.50922 84.0559047,17.8239533 L84.0559047,32.1360867 L81.0680645,32.1360867 Z M96.544816,11.6538933 C95.5271237,11.6538933 94.6346858,11.9078267 93.8709817,12.4156933 C93.1020586,12.9218267 92.4644787,13.59436 91.9547627,14.42896 C91.4476562,15.2644267 91.0675438,16.2290267 90.8170349,17.3210267 C90.5673959,18.4138933 90.4404018,19.5440267 90.4404018,20.7148933 L90.4404018,32.1358267 L87.3873249,32.1358267 L87.3873249,15.16736 C87.3873249,14.6672933 87.3847154,14.1108933 87.3777568,13.4964267 C87.3699284,12.8810933 87.3577509,12.2960933 87.3438337,11.7396933 C87.3290467,11.18156 87.3203485,10.70316 87.3133899,10.30276 C87.3055615,9.90409333 87.3012124,9.66142667 87.3012124,9.57562667 L90.0733367,9.57562667 C90.0733367,9.63196 90.0898633,9.87549333 90.115958,10.30276 C90.1316148,10.7464933 90.1542302,11.2396267 90.1829343,11.7812933 C90.1951118,12.33856 90.2159876,12.8958267 90.2368633,13.4530933 C90.2568692,14.0112267 90.2673071,14.43156 90.2673071,14.71756 L90.3534195,14.71756 C90.6552479,13.7884933 90.997958,12.9790267 91.385029,12.28656 C91.7721,11.59496 92.2391947,11.0238267 92.7828337,10.5722933 C93.3282124,10.12336 93.9492657,9.78016 94.6425142,9.54442667 C95.3375024,9.30869333 96.1351296,9.18996 97.0380053,9.18996 C97.6990704,9.18996 98.2209639,9.26796 98.6097746,9.42569333 L98.6097746,11.9104267 C98.3523071,11.81076 98.0469994,11.74316 97.6955911,11.7076267 C97.3441828,11.6720933 96.9597213,11.6538933 96.544816,11.6538933 Z M122.686809,20.7800667 C122.686809,22.4501333 122.48414,24.0127333 122.072714,25.4618 C121.665637,26.9108667 121.046324,28.1606 120.213034,29.211 C119.379744,30.2605333 118.330738,31.0864667 117.066886,31.6862 C115.803034,32.2859333 114.326075,32.5858 112.632531,32.5858 C110.72588,32.5858 109.051472,32.1784667 107.611915,31.3655333 C106.172359,30.5508667 105.072904,29.4294 104.314418,28.0011333 L104.229176,28.0011333 C104.229176,28.0158667 104.235264,28.1510667 104.248312,28.4084667 C104.248312,28.6658667 104.25701,28.9943333 104.270927,29.3938667 C104.270927,29.809 104.277016,30.2501333 104.292673,30.7216 C104.30659,31.2078 104.314418,31.6784 104.314418,32.136 L104.314418,42.8896 L101.260472,42.8896 L101.260472,14.3962 C101.260472,13.8103333 101.256992,13.2435333 101.250904,12.6940667 C101.242205,12.1437333 101.232637,11.6540667 101.21872,11.2250667 C101.203063,10.7978 101.189146,10.4372667 101.186537,10.1434667 C101.179578,9.8514 101.175229,9.6616 101.175229,9.5758 L104.034336,9.5758 C104.049122,9.61913333 104.06304,9.78726667 104.086525,10.0802 C104.10914,10.3731333 104.126537,10.7319333 104.141324,11.1609333 C104.15698,11.6038 104.175247,12.0674667 104.20656,12.5528 C104.222217,13.0398667 104.229176,13.4896667 104.229176,13.9030667 L104.314418,13.9030667 C105.173803,12.3742667 106.300223,11.2016667 107.699767,10.3800667 C109.094963,9.5602 110.884188,9.14766667 113.062223,9.14766667 C114.710537,9.14766667 116.144004,9.4406 117.349578,10.0256 C118.553412,10.6114667 119.551099,11.4252667 120.340028,12.4678667 C121.129827,13.5113333 121.719566,14.7428667 122.106637,16.1642 C122.494578,17.5855333 122.686809,19.1221333 122.686809,20.7800667 Z M119.54327,20.7800667 C119.54327,19.3370667 119.385833,18.0448667 119.071827,16.9026 C118.753472,15.7603333 118.281158,14.7888 117.648797,13.9888667 C117.018176,13.1889333 116.220549,12.5727333 115.258525,12.1368 C114.297371,11.7017333 113.177909,11.4816 111.90275,11.4816 C110.884188,11.4816 109.912596,11.6506 108.988844,11.9877333 C108.065963,12.3222667 107.252679,12.8613333 106.548992,13.6032 C105.847915,14.3450667 105.283401,15.3166 104.858927,16.5169333 C104.437933,17.7164 104.229176,19.1932 104.229176,20.9508 C104.229176,22.6642 104.436193,24.1167333 104.850229,25.3023333 C105.265134,26.4879333 105.821821,27.4447333 106.515939,28.1736 C107.209188,28.9016 108.018992,29.4242 108.945353,29.7457333 C109.868235,30.0681333 110.840696,30.2293333 111.859259,30.2293333 C114.326075,30.2293333 116.223158,29.4155333 117.549637,27.7870667 C118.877856,26.1586 119.54327,23.8238 119.54327,20.7800667 Z" id="Combined-Shape" fill="#0E7DC1"></path>
                            <path d="M2.50969882,60.8647 L3.01767515,60.8647 L3.01767515,63.0747 C3.01767515,63.4569 2.9733142,63.7628333 2.88546213,63.9881667 C2.79847988,64.2126333 2.64017219,64.3963667 2.4122787,64.5385 C2.18525503,64.6806333 1.88690592,64.7517 1.51984083,64.7517 C1.15973432,64.7517 0.864864497,64.6901667 0.635231361,64.5662333 C0.406468047,64.4423 0.243811243,64.2637667 0.146391124,64.0306333 C0.0489710059,63.7992333 0.000260946745,63.4803 0.000260946745,63.0747 L0.000260946745,60.8647 L0.507367456,60.8647 L0.507367456,63.0703667 C0.507367456,63.4031667 0.539550888,63.6475667 0.601308284,63.8044333 C0.66306568,63.9595667 0.770053846,64.0817667 0.920533136,64.1684333 C1.07188225,64.2533667 1.25541479,64.2967 1.47200059,64.2967 C1.84776391,64.2967 2.11392959,64.2126333 2.27223728,64.0436333 C2.43054497,63.8763667 2.50969882,63.5513667 2.50969882,63.0703667 L2.50969882,60.8647 Z M3.81991243,64.6860067 L3.81991243,60.8648733 L4.33832663,60.8648733 L6.35544497,63.86354 L6.35544497,60.8648733 L6.84080592,60.8648733 L6.84080592,64.6860067 L6.31891243,64.6860067 L4.3061432,61.6838733 L4.3061432,64.6860067 L3.81991243,64.6860067 Z M7.65382899,64.6863533 L7.65382899,60.8643533 L8.97595917,60.8643533 C9.27343846,60.8643533 9.50046213,60.88342 9.65876982,60.91982 C9.87796509,60.9700867 10.0658467,61.06282 10.221545,61.1962867 C10.4233438,61.3652867 10.5746929,61.58282 10.6747225,61.84802 C10.7747521,62.1123533 10.824332,62.4139533 10.824332,62.7536867 C10.824332,63.0448867 10.7904089,63.3031533 10.7225627,63.52762 C10.6538467,63.75122 10.5668645,63.9366867 10.4607462,64.0831533 C10.3554976,64.2313533 10.2389414,64.34662 10.1119473,64.42982 C9.98495325,64.51302 9.83273432,64.5771533 9.65355089,64.6204867 C9.47523728,64.6646867 9.26995917,64.6863533 9.03858639,64.6863533 L7.65382899,64.6863533 Z M8.16180533,64.2356867 L8.98030828,64.2356867 C9.23342663,64.2356867 9.43174615,64.21142 9.57526686,64.16462 C9.71878757,64.1160867 9.83360414,64.0510867 9.91884675,63.9652867 C10.0406219,63.84742 10.1345627,63.6853533 10.2015391,63.4842867 C10.2685154,63.28062 10.3024385,63.0353533 10.3024385,62.7458867 C10.3024385,62.3480867 10.236332,62.04302 10.1049888,61.8280867 C9.97364556,61.6131533 9.8127284,61.4692867 9.6231071,61.3964867 C9.48654497,61.34362 9.26821953,61.3167533 8.96900059,61.3167533 L8.16180533,61.3167533 L8.16180533,64.2356867 Z M11.4847882,64.6855733 L11.4847882,60.86444 L12.931303,60.86444 C13.1870308,60.86444 13.381871,60.87744 13.5158237,60.90084 C13.7028355,60.9329067 13.8611432,60.9935733 13.9881373,61.0811067 C14.116871,61.1703733 14.2186402,61.2925733 14.2960544,61.4511733 C14.371729,61.6089067 14.4100012,61.78224 14.4100012,61.97204 C14.4100012,62.29704 14.3073621,62.5717733 14.1003444,62.79624 C13.8933266,63.0207067 13.5175633,63.1325067 12.9747941,63.1325067 L11.9927645,63.1325067 L11.9927645,64.6855733 L11.4847882,64.6855733 Z M11.9927645,62.6809733 L12.9826225,62.6809733 C13.3114154,62.6809733 13.5445278,62.6211733 13.6819598,62.4989733 C13.8193917,62.37764 13.8881077,62.2069067 13.8881077,61.9859067 C13.8881077,61.82644 13.8480959,61.68864 13.7680722,61.57684 C13.6871787,61.4641733 13.5801905,61.38964 13.4462379,61.35324 C13.3609953,61.3281067 13.2035574,61.31684 12.9747941,61.31684 L11.9927645,61.31684 L11.9927645,62.6809733 Z M16.2425432,62.7791667 C16.2425432,62.8909667 16.2025314,62.9854333 16.1242473,63.0651667 C16.0450935,63.1440333 15.9502828,63.1839 15.8406852,63.1839 C15.7293479,63.1839 15.6336675,63.1440333 15.5545136,63.0651667 C15.4744899,62.9854333 15.4353479,62.8909667 15.4353479,62.7791667 C15.4353479,62.6673667 15.4744899,62.5729 15.5545136,62.4931667 C15.6336675,62.4143 15.7293479,62.3753 15.8406852,62.3753 C15.9502828,62.3753 16.0450935,62.4143 16.1242473,62.4931667 C16.2025314,62.5729 16.2425432,62.6673667 16.2425432,62.7791667 Z M20.0046994,60.8647 L20.5126757,60.8647 L20.5126757,63.0747 C20.5126757,63.4569 20.4683148,63.7628333 20.3813325,63.9881667 C20.2934805,64.2126333 20.1351728,64.3963667 19.9081491,64.5385 C19.6802556,64.6806333 19.3827763,64.7517 19.0148414,64.7517 C18.6547349,64.7517 18.3598651,64.6901667 18.1311018,64.5662333 C17.9023385,64.4423 17.7388118,64.2637667 17.6413917,64.0306333 C17.5439716,63.7992333 17.4952615,63.4803 17.4952615,63.0747 L17.4952615,60.8647 L18.0032379,60.8647 L18.0032379,63.0703667 C18.0032379,63.4031667 18.0345515,63.6475667 18.0963089,63.8044333 C18.1589361,63.9595667 18.2650544,64.0817667 18.4155337,64.1684333 C18.5668828,64.2533667 18.7504154,64.2967 18.967871,64.2967 C19.3427645,64.2967 19.6089302,64.2126333 19.7672379,64.0436333 C19.9255456,63.8763667 20.0046994,63.5513667 20.0046994,63.0703667 L20.0046994,60.8647 Z M21.3144781,64.6860067 L21.3144781,60.8648733 L21.8337621,60.8648733 L23.8500107,63.86354 L23.8500107,60.8648733 L24.3353716,60.8648733 L24.3353716,64.6860067 L23.8134781,64.6860067 L21.8007089,61.6838733 L21.8007089,64.6860067 L21.3144781,64.6860067 Z M25.1747503,64.6860067 L25.1747503,60.8648733 L27.7607325,60.8648733 L27.7607325,61.3164067 L25.6818568,61.3164067 L25.6818568,62.4994067 L27.4832592,62.4994067 L27.4832592,62.9500733 L25.6818568,62.9500733 L25.6818568,64.6860067 L25.1747503,64.6860067 Z M28.3843953,64.6855733 L28.3843953,60.86444 L29.8309101,60.86444 C30.0866379,60.86444 30.2814781,60.87744 30.4154308,60.90084 C30.6033124,60.9329067 30.7607503,60.9935733 30.8886142,61.0811067 C31.0164781,61.1703733 31.1182473,61.2925733 31.1956615,61.4511733 C31.2722059,61.6089067 31.3104781,61.78224 31.3104781,61.97204 C31.3104781,62.29704 31.2069692,62.5717733 30.9999515,62.79624 C30.7929337,63.0207067 30.4180402,63.1325067 29.875271,63.1325067 L28.8923716,63.1325067 L28.8923716,64.6855733 L28.3843953,64.6855733 Z M28.8923716,62.6809733 L29.8822296,62.6809733 C30.2110225,62.6809733 30.4441349,62.6211733 30.5815669,62.4989733 C30.7189988,62.37764 30.7885846,62.2069067 30.7885846,61.9859067 C30.7885846,61.82644 30.747703,61.68864 30.6676793,61.57684 C30.5876556,61.4641733 30.4797976,61.38964 30.345845,61.35324 C30.2606024,61.3281067 30.1031645,61.31684 29.875271,61.31684 L28.8923716,61.31684 L28.8923716,62.6809733 Z M31.4992296,64.6863533 L32.9718391,60.8643533 L33.5198272,60.8643533 L35.0863775,64.6863533 L34.5088154,64.6863533 L34.0634663,63.5293533 L32.4603834,63.5293533 L32.0367799,64.6863533 L31.4992296,64.6863533 Z M32.6065136,63.1176867 L33.9060284,63.1176867 L33.5050402,62.05862 C33.3823953,61.73882 33.2928036,61.4744867 33.2345254,61.2690867 C33.1858154,61.5134867 33.1162296,61.75702 33.0266379,61.9970867 L32.6065136,63.1176867 Z M36.818455,62.7791667 C36.818455,62.8909667 36.7784432,62.9854333 36.6992893,63.0651667 C36.6201355,63.1440333 36.5261947,63.1839 36.416597,63.1839 C36.3043899,63.1839 36.2087095,63.1440333 36.1295556,63.0651667 C36.0504018,62.9854333 36.0103899,62.8909667 36.0103899,62.7791667 C36.0103899,62.6673667 36.0504018,62.5729 36.1295556,62.4931667 C36.2087095,62.4143 36.3043899,62.3753 36.416597,62.3753 C36.5261947,62.3753 36.6201355,62.4143 36.6992893,62.4931667 C36.7784432,62.5729 36.818455,62.6673667 36.818455,62.7791667 Z M40.7292639,60.8647 L41.2372402,60.8647 L41.2372402,63.0747 C41.2372402,63.4569 41.1928793,63.7628333 41.105897,63.9881667 C41.018045,64.2126333 40.8606071,64.3963667 40.6327136,64.5385 C40.4048201,64.6806333 40.1073408,64.7517 39.7402757,64.7517 C39.3792994,64.7517 39.0844296,64.6901667 38.8556663,64.5662333 C38.626903,64.4423 38.4633763,64.2637667 38.3659562,64.0306333 C38.2694059,63.7992333 38.219826,63.4803 38.219826,63.0747 L38.219826,60.8647 L38.7278024,60.8647 L38.7278024,63.0703667 C38.7278024,63.4031667 38.759116,63.6475667 38.8208734,63.8044333 C38.8835006,63.9595667 38.9896189,64.0817667 39.140968,64.1684333 C39.2914473,64.2533667 39.4749799,64.2967 39.6924355,64.2967 C40.067329,64.2967 40.3334947,64.2126333 40.4918024,64.0436333 C40.6501101,63.8763667 40.7292639,63.5513667 40.7292639,63.0703667 L40.7292639,60.8647 Z M42.0399124,64.6860067 L42.0399124,60.8648733 L42.5583266,60.8648733 L44.5745751,63.86354 L44.5745751,60.8648733 L45.0599361,60.8648733 L45.0599361,64.6860067 L44.5380426,64.6860067 L42.5252734,61.6838733 L42.5252734,64.6860067 L42.0399124,64.6860067 Z M45.9605503,64.68618 L46.3888615,64.68618 L46.3888615,60.8650467 L45.9605503,60.8650467 L45.9605503,64.68618 Z M50.058545,63.3470933 L50.5665213,63.4744933 C50.4586633,63.8896267 50.2673024,64.20596 49.9906988,64.42436 C49.7140953,64.64276 49.3766041,64.75196 48.9773556,64.75196 C48.5659296,64.75196 48.2301781,64.6678933 47.970971,64.5006267 C47.7117639,64.33336 47.5143142,64.0906933 47.3794917,63.7726267 C47.2437994,63.45456 47.1768231,63.1130933 47.1768231,62.7464933 C47.1768231,62.3486933 47.2524976,62.0020267 47.4047166,61.7056267 C47.5569355,61.4100933 47.7743911,61.18476 48.0562136,61.0304933 C48.3389059,60.8762267 48.6494325,60.79996 48.9877935,60.79996 C49.3705154,60.79996 49.6923497,60.8970267 49.9541663,61.0928933 C50.2159828,61.2878933 50.3977757,61.56176 50.5004148,61.9136267 L50.0002669,62.02976 C49.9124148,61.7532933 49.7836811,61.55136 49.6149355,61.42396 C49.4453201,61.29656 49.2330834,61.2332933 48.9773556,61.2332933 C48.6824858,61.2332933 48.436326,61.30436 48.2371367,61.4438933 C48.039687,61.5842933 47.8996456,61.7740933 47.8196219,62.01156 C47.7387284,62.2490267 47.6987166,62.4942933 47.6987166,62.7464933 C47.6987166,63.06976 47.7465568,63.3522933 47.8413675,63.59496 C47.9361781,63.83676 48.0840479,64.01876 48.2849769,64.13836 C48.4859059,64.2588267 48.7033615,64.3186267 48.9373438,64.3186267 C49.2217757,64.3186267 49.4627166,64.23716 49.6584266,64.07336 C49.8541367,63.90956 49.9880893,63.66776 50.058545,63.3470933 Z M51.1640893,64.6860067 L51.1640893,60.8648733 L53.9362136,60.8648733 L53.9362136,61.3164067 L51.6720657,61.3164067 L51.6720657,62.48814 L53.7944325,62.48814 L53.7944325,62.93534 L51.6720657,62.93534 L51.6720657,64.23534 L54.0240657,64.23534 L54.0240657,64.6860067 L51.1640893,64.6860067 Z M54.7139219,64.6860067 L54.7139219,60.8648733 L57.2999041,60.8648733 L57.2999041,61.3164067 L55.2210284,61.3164067 L55.2210284,62.4994067 L57.0224308,62.4994067 L57.0224308,62.9500733 L55.2210284,62.9500733 L55.2210284,64.6860067 L54.7139219,64.6860067 Z M59.2962337,62.7791667 C59.2962337,62.8909667 59.2562219,62.9854333 59.1779379,63.0651667 C59.098784,63.1440333 59.0048432,63.1839 58.8952456,63.1839 C58.7830385,63.1839 58.687358,63.1440333 58.6082041,63.0651667 C58.5290503,62.9854333 58.4890385,62.8909667 58.4890385,62.7791667 C58.4890385,62.6673667 58.5290503,62.5729 58.6082041,62.4931667 C58.687358,62.4143 58.7830385,62.3753 58.8952456,62.3753 C59.0048432,62.3753 59.098784,62.4143 59.1779379,62.4931667 C59.2562219,62.5729 59.2962337,62.6673667 59.2962337,62.7791667 Z M61.5089751,64.6860067 L60.4938923,60.8648733 L61.0123065,60.8648733 L61.5968272,63.3686733 C61.6603243,63.6330067 61.7133834,63.8938733 61.7568746,64.1512733 C61.8569041,63.74394 61.9160521,63.5090733 61.9325787,63.44494 L62.6597503,60.8648733 L63.2729751,60.8648733 L63.8209633,62.8010067 C63.9601349,63.2794067 64.0592947,63.7292067 64.1210521,64.1512733 C64.1688923,63.9112067 64.2323893,63.63474 64.3106734,63.3218733 L64.9134604,60.8648733 L65.424916,60.8648733 L64.3724308,64.6860067 L63.8835905,64.6860067 L63.0763953,61.77574 C63.0076793,61.5322067 62.9676675,61.38314 62.9554899,61.3268067 C62.9146083,61.5018733 62.8763361,61.65094 62.842413,61.77574 L62.0282592,64.6860067 L61.5089751,64.6860067 Z M65.8729615,64.6860067 L65.8729615,60.8648733 L66.3809379,60.8648733 L66.3809379,62.43354 L68.374571,62.43354 L68.374571,60.8648733 L68.8825473,60.8648733 L68.8825473,64.6860067 L68.374571,64.6860067 L68.374571,62.8850733 L66.3809379,62.8850733 L66.3809379,64.6860067 L65.8729615,64.6860067 Z M69.535784,62.8264 C69.535784,62.1911333 69.7062692,61.6945333 70.0489793,61.3357333 C70.3908195,60.9786667 70.8326893,60.7992667 71.3728491,60.7992667 C71.725997,60.7992667 72.0443521,60.8842 72.3279142,61.0523333 C72.6114763,61.2213333 72.828932,61.4562 72.9776716,61.7569333 C73.1281509,62.0576667 73.2029556,62.4 73.2029556,62.7822 C73.2029556,63.1687333 73.1238018,63.5145333 72.9672337,63.8204667 C72.8097959,64.1264 72.5879911,64.3578 72.3009497,64.5146667 C72.0130385,64.6732667 71.7025118,64.7521333 71.3693698,64.7521333 C71.0083935,64.7521333 70.6865592,64.6654667 70.4012574,64.4921333 C70.1159556,64.3188 69.9011095,64.0804667 69.7549793,63.7806 C69.6088491,63.4798667 69.535784,63.1618 69.535784,62.8264 Z M70.0576775,62.8342 C70.0576775,63.2952667 70.1820621,63.6575333 70.4308314,63.9218667 C70.6787308,64.1870667 70.9901272,64.3188 71.3650207,64.3188 C71.7477426,64.3188 72.0626183,64.1853333 72.3096479,63.9184 C72.5566775,63.6514667 72.6801923,63.2718667 72.6801923,62.7796 C72.6801923,62.4693333 72.628003,62.1980667 72.5210148,61.9658 C72.4157663,61.7335333 72.2609379,61.5532667 72.0573994,61.4258667 C71.8538609,61.2976 71.6259675,61.2326 71.3728491,61.2326 C71.0153521,61.2326 70.7065651,61.3565333 70.4464882,61.6018 C70.1872811,61.8479333 70.0576775,62.2596 70.0576775,62.8342 Z M75.1925006,62.7791667 C75.1925006,62.8909667 75.1524888,62.9854333 75.0733349,63.0651667 C74.9941811,63.1440333 74.9002402,63.1839 74.7906426,63.1839 C74.6775657,63.1839 74.5836249,63.1440333 74.504471,63.0651667 C74.4253172,62.9854333 74.3844355,62.8909667 74.3844355,62.7791667 C74.3844355,62.6673667 74.4253172,62.5729 74.504471,62.4931667 C74.5836249,62.4143 74.6775657,62.3753 74.7906426,62.3753 C74.9002402,62.3753 74.9941811,62.4143 75.0733349,62.4931667 C75.1524888,62.5729 75.1925006,62.6673667 75.1925006,62.7791667 Z M77.1071538,64.6860067 L76.0903314,60.8648733 L76.6096154,60.8648733 L77.1941361,63.3686733 C77.2576331,63.6330067 77.3098225,63.8938733 77.3541834,64.1512733 C77.4533432,63.74394 77.5133609,63.5090733 77.5290178,63.44494 L78.2561893,60.8648733 L78.8694142,60.8648733 L79.4174024,62.8010067 C79.556574,63.2794067 79.6574734,63.7292067 79.7183609,64.1512733 C79.767071,63.9112067 79.8296982,63.63474 79.9079822,63.3218733 L80.5098994,60.8648733 L81.0222249,60.8648733 L79.9688698,64.6860067 L79.4808994,64.6860067 L78.6737041,61.77574 C78.6049882,61.5322067 78.5649763,61.38314 78.551929,61.3268067 C78.5110473,61.5018733 78.4727751,61.65094 78.4388521,61.77574 L77.625568,64.6860067 L77.1071538,64.6860067 Z M81.3013509,62.8264 C81.3013509,62.1911333 81.4727059,61.6945333 81.8145462,61.3357333 C82.1572562,60.9786667 82.599126,60.7992667 83.1392858,60.7992667 C83.4924337,60.7992667 83.8099189,60.8842 84.0934811,61.0523333 C84.377913,61.2213333 84.5953686,61.4562 84.7441083,61.7569333 C84.8937178,62.0576667 84.9685225,62.4 84.9685225,62.7822 C84.9685225,63.1687333 84.8902385,63.5145333 84.7336704,63.8204667 C84.5762325,64.1264 84.353558,64.3578 84.0673864,64.5146667 C83.7794751,64.6732667 83.4689485,64.7521333 83.1358065,64.7521333 C82.7757,64.7521333 82.4529959,64.6654667 82.1676941,64.4921333 C81.8823923,64.3188 81.6666763,64.0804667 81.5205462,63.7806 C81.374416,63.4798667 81.3013509,63.1618 81.3013509,62.8264 Z M81.8241142,62.8342 C81.8241142,63.2952667 81.9484988,63.6575333 82.197268,63.9218667 C82.4451675,64.1870667 82.7565639,64.3188 83.1323272,64.3188 C83.5133095,64.3188 83.829055,64.1853333 84.0760846,63.9184 C84.3231142,63.6514667 84.4474988,63.2718667 84.4474988,62.7796 C84.4474988,62.4693333 84.3944396,62.1980667 84.2883213,61.9658 C84.182203,61.7335333 84.0273746,61.5532667 83.8247059,61.4258667 C83.6202976,61.2976 83.393274,61.2326 83.1392858,61.2326 C82.7817888,61.2326 82.4730018,61.3565333 82.2129249,61.6018 C81.9537178,61.8479333 81.8241142,62.2596 81.8241142,62.8342 Z M85.593055,64.6860067 L85.593055,60.8648733 L87.2952976,60.8648733 C87.636268,60.8648733 87.8954751,60.89954 88.0729189,60.9688733 C88.2512325,61.03734 88.3930136,61.1586733 88.499132,61.3328733 C88.6052503,61.5062067 88.6565698,61.6986067 88.6565698,61.9092067 C88.6565698,62.17874 88.5704574,62.4066733 88.3947533,62.5938733 C88.2190491,62.7810733 87.9476645,62.8980733 87.5797296,62.9466067 C87.7136822,63.0124733 87.8154515,63.0766067 87.8832976,63.1398733 C88.0320373,63.2750733 88.1729485,63.4440733 88.3069012,63.64514 L88.9723154,64.6860067 L88.3356053,64.6860067 L87.827629,63.8930067 C87.6788893,63.6624733 87.557984,63.48654 87.4605639,63.3660733 C87.3648834,63.2438733 87.278771,63.15894 87.2039663,63.1112733 C87.1282917,63.0618733 87.0517473,63.0280733 86.9743331,63.00814 C86.9151852,62.9968733 86.8203746,62.98994 86.6890314,62.98994 L86.1010314,62.98994 L86.1010314,64.6860067 L85.593055,64.6860067 Z M86.1010314,62.55314 L87.1935284,62.55314 C87.4240314,62.55314 87.6049544,62.52974 87.7354278,62.48034 C87.8650314,62.4326733 87.9650609,62.35554 88.0337769,62.25154 C88.1016231,62.14754 88.1355462,62.03314 88.1355462,61.9092067 C88.1355462,61.7272067 88.0703095,61.57814 87.9372266,61.4620067 C87.8067533,61.3450067 87.5988657,61.28694 87.3135639,61.28694 L86.1010314,61.28694 L86.1010314,62.55314 Z M89.3942663,64.6860067 L89.3942663,60.8648733 L89.9022426,60.8648733 L89.9022426,64.23534 L91.7906272,64.23534 L91.7906272,64.6860067 L89.3942663,64.6860067 Z M92.3596651,64.6863533 L92.3596651,60.8643533 L93.6826651,60.8643533 C93.9784047,60.8643533 94.2062982,60.88342 94.3654757,60.91982 C94.584671,60.9700867 94.7716828,61.06282 94.9273811,61.1962867 C95.1300497,61.3652867 95.280529,61.58282 95.3805586,61.84802 C95.4797183,62.1123533 95.5310379,62.4139533 95.5310379,62.7536867 C95.5310379,63.0448867 95.4953751,63.3031533 95.427529,63.52762 C95.358813,63.75122 95.2727006,63.9366867 95.1674521,64.0831533 C95.0604639,64.2313533 94.9447775,64.34662 94.8177834,64.42982 C94.6916592,64.51302 94.5385704,64.5771533 94.359387,64.6204867 C94.1810734,64.6646867 93.9749254,64.6863533 93.7444225,64.6863533 L92.3596651,64.6863533 Z M92.8667716,64.2356867 L93.6852746,64.2356867 C93.9383929,64.2356867 94.1367124,64.21142 94.2802331,64.16462 C94.4246237,64.1160867 94.5385704,64.0510867 94.6246828,63.9652867 C94.7455882,63.84742 94.8412686,63.6853533 94.9073751,63.4842867 C94.9752213,63.28062 95.0074047,63.0353533 95.0074047,62.7458867 C95.0074047,62.3480867 94.942168,62.04302 94.809955,61.8280867 C94.6786118,61.6131533 94.5176947,61.4692867 94.3289432,61.3964867 C94.1915112,61.34362 93.9740556,61.3167533 93.6748367,61.3167533 L92.8667716,61.3167533 L92.8667716,64.2356867 Z M97.6167852,64.6863533 L97.6167852,60.8643533 L99.0563414,60.8643533 C99.3486018,60.8643533 99.5843237,60.9033533 99.7617675,60.9813533 C99.9400811,61.0593533 100.077513,61.1789533 100.177543,61.3401533 C100.278442,61.50222 100.327152,61.6694867 100.327152,61.8436867 C100.327152,62.0074867 100.282791,62.1591533 100.194939,62.3038867 C100.104478,62.4477533 99.9705249,62.56562 99.7904716,62.6557533 C100.025324,62.72162 100.203637,62.83602 100.327152,62.9989533 C100.452407,63.16362 100.513294,63.35602 100.513294,63.5804867 C100.513294,63.75642 100.475892,63.92282 100.400217,64.07622 C100.324543,64.2313533 100.231472,64.3500867 100.119264,64.4332867 C100.007057,64.5164867 99.8678858,64.5797533 99.7000101,64.62222 C99.5312645,64.6655533 99.3259864,64.6863533 99.0824361,64.6863533 L97.6167852,64.6863533 Z M98.1247615,64.2356867 L99.0824361,64.2356867 C99.2450929,64.2356867 99.3590396,64.2287533 99.4251462,64.2174867 C99.5425722,64.1975533 99.6399923,64.1628867 99.7191462,64.11262 C99.7991698,64.0640867 99.8626669,63.99302 99.9131166,63.89942 C99.9626964,63.80842 99.9887911,63.70182 99.9887911,63.5804867 C99.9887911,63.43662 99.9522586,63.3126867 99.8791935,63.2060867 C99.8061284,63.10122 99.7034893,63.0266867 99.573016,62.9850867 C99.4434124,62.94262 99.2564006,62.9209533 99.0128503,62.9209533 L98.1247615,62.9209533 L98.1247615,64.2356867 Z M98.1247615,62.4702867 L98.9537024,62.4702867 C99.180726,62.4702867 99.3416432,62.4546867 99.440803,62.4260867 C99.5686669,62.3879533 99.6652172,62.32382 99.7304538,62.2345533 C99.7939509,62.14702 99.8270041,62.0360867 99.8270041,61.90262 C99.8270041,61.7760867 99.7965604,61.6651533 99.7365426,61.56982 C99.6747852,61.4727533 99.5886728,61.4068867 99.474726,61.3704867 C99.3616491,61.3340867 99.1668089,61.3167533 98.8928148,61.3167533 L98.1247615,61.3167533 L98.1247615,62.4702867 Z M100.755018,64.6863533 L102.226757,60.8643533 L102.774746,60.8643533 L104.341296,64.6863533 L103.763734,64.6863533 L103.318385,63.5293533 L101.714432,63.5293533 L101.291698,64.6863533 L100.755018,64.6863533 Z M101.861432,63.1176867 L103.160947,63.1176867 L102.759089,62.05862 C102.638183,61.73882 102.546852,61.4744867 102.489444,61.2690867 C102.440734,61.5134867 102.371148,61.75702 102.280686,61.9970867 L101.861432,63.1176867 Z M104.705317,64.6860067 L104.705317,60.8648733 L105.223731,60.8648733 L107.239979,63.86354 L107.239979,60.8648733 L107.72534,60.8648733 L107.72534,64.6860067 L107.203447,64.6860067 L105.190678,61.6838733 L105.190678,64.6860067 L104.705317,64.6860067 Z M108.516792,64.6860067 L108.516792,60.8648733 L109.024768,60.8648733 L109.024768,62.76114 L110.931419,60.8648733 L111.618579,60.8648733 L110.011147,62.41534 L111.688164,64.6860067 L111.019271,64.6860067 L109.65365,62.7542067 L109.024768,63.3626067 L109.024768,64.6860067 L108.516792,64.6860067 Z" id="Combined-Shape" fill="#000000"></path>
                        </g>
                    </g>
                </g>
            </g>
        </g>
    </g>
</svg>