<?xml version="1.0" encoding="UTF-8" standalone="no"?>
<svg width="20px" height="20px" viewBox="0 0 20 20" version="1.1" xmlns="http://www.w3.org/2000/svg" xmlns:xlink="http://www.w3.org/1999/xlink">
    <!-- Generator: Sketch 3.8.3 (29802) - http://www.bohemiancoding.com/sketch -->
    <title>ic_link</title>
    <desc>Created with Sketch.</desc>
    <defs></defs>
    <g id="Page-1" stroke="none" stroke-width="1" fill="none" fill-rule="evenodd">
        <g id="Landing_v2_4-(final)" transform="translate(-1343.000000, -1059.000000)" fill="#4A90E2">
            <g id="Body" transform="translate(400.000000, 986.000000)">
                <g id="Sidebar" transform="translate(915.000000, 13.000000)">
                    <g id="Links">
                        <g id="arrows-7" transform="translate(28.000000, 60.000000)">
                            <g id="Group">
                                <path d="M10,0 C4.45454545,0 0,4.45454545 0,10 C0,15.5454545 4.45454545,20 10,20 C15.5454545,20 20,15.5454545 20,10 C20,4.45454545 15.5454545,0 10,0 L10,0 Z M7.63636364,11.0909091 L7,11.7272727 C6.81818182,11.9090909 6.54545455,11.9090909 6.36363636,11.7272727 L5.22727273,10.5909091 C4.5,9.86363636 4.09090909,8.90909091 4.09090909,7.86363636 C4.09090909,5.77272727 5.81818182,4.04545455 7.90909091,4.04545455 C8.90909091,4.04545455 9.90909091,4.45454545 10.6363636,5.18181818 L11.7727273,6.31818182 C11.9545455,6.5 11.9545455,6.77272727 11.7727273,6.95454545 L11.1363636,7.59090909 C10.9545455,7.77272727 10.6818182,7.77272727 10.5,7.59090909 L9.36363636,6.45454545 C9,6.09090909 8.5,5.86363636 7.95454545,5.86363636 C6.86363636,5.86363636 5.95454545,6.77272727 5.95454545,7.86363636 C5.95454545,8.40909091 6.18181818,8.90909091 6.54545455,9.27272727 L7.68181818,10.4090909 C7.77272727,10.6363636 7.77272727,10.9090909 7.63636364,11.0909091 L7.63636364,11.0909091 Z M7.86363636,8.5 L8.5,7.86363636 C8.68181818,7.68181818 8.95454545,7.68181818 9.13636364,7.86363636 L12.1363636,10.8636364 C12.3181818,11.0454545 12.3181818,11.3181818 12.1363636,11.5 L11.5,12.1363636 C11.3181818,12.3181818 11.0454545,12.3181818 10.8636364,12.1363636 L7.86363636,9.13636364 C7.68181818,8.95454545 7.68181818,8.68181818 7.86363636,8.5 L7.86363636,8.5 Z M12.0909091,15.9090909 C11.0909091,15.9090909 10.0909091,15.5 9.36363636,14.7727273 L8.22727273,13.6363636 C8.04545455,13.4545455 8.04545455,13.1818182 8.22727273,13 L8.86363636,12.3636364 C9.04545455,12.1818182 9.31818182,12.1818182 9.5,12.3636364 L10.6363636,13.5 C11,13.8636364 11.5,14.0909091 12.0454545,14.0909091 C13.1363636,14.0909091 14.0454545,13.1818182 14.0454545,12.0909091 C14.0454545,11.5454545 13.8181818,11.0454545 13.4545455,10.6818182 L12.3181818,9.54545455 C12.1363636,9.36363636 12.1363636,9.09090909 12.3181818,8.90909091 L12.9545455,8.27272727 C13.1363636,8.09090909 13.4090909,8.09090909 13.5909091,8.27272727 L14.7272727,9.40909091 C15.4545455,10.1363636 15.8636364,11.0909091 15.8636364,12.1363636 C15.9090909,14.1818182 14.1818182,15.9090909 12.0909091,15.9090909 L12.0909091,15.9090909 Z" id="ic_link"></path>
                            </g>
                        </g>
                    </g>
                </g>
            </g>
        </g>
    </g>
</svg>