<?xml version="1.0" encoding="UTF-8" standalone="no"?>
<svg width="180px" height="43px" viewBox="0 0 180 43" version="1.1" xmlns="http://www.w3.org/2000/svg" xmlns:xlink="http://www.w3.org/1999/xlink">
    <!-- Generator: sketchtool 3.7 (28169) - http://www.bohemiancoding.com/sketch -->
    <title>C27F7F3E-3C5E-4FD2-90ED-0B81E73A541E</title>
    <desc>Created with sketchtool.</desc>
    <defs>
        <polygon id="path-1" points="13.0758541 12.6314154 13.0758541 0.419887912 0.216332768 0.419887912 0.216332768 12.6314154 13.0758541 12.6314154"></polygon>
    </defs>
    <g id="Page-1" stroke="none" stroke-width="1" fill="none" fill-rule="evenodd">
        <g id="Landing_v2_4-(final)-" transform="translate(-410.000000, -4413.000000)">
            <g id="Footer" transform="translate(0.000000, 4233.000000)">
                <g id="UNF" transform="translate(410.000000, 180.000000)">
                    <path d="M3.59238687,9.24263736 C1.68398104,6.23736264 3.31173895,2.55164835 5.05175603,0 C4.37820103,2.94857143 5.10788561,6.57758242 3.59238687,9.24263736" id="Fill-1" fill="#0E7DC1"></path>
                    <path d="M4.26570799,16.5575989 C2.47002908,13.7786648 -0.505306572,10.9435 1.01019217,7.20155495 L1.51535842,6.1808956 C1.40309925,7.25778571 1.29084009,8.73207143 1.73987675,9.6965 C2.63795008,11.2270165 3.19924591,12.8151813 3.70441216,14.4595769 C3.81667133,12.4182582 4.60248549,10.5470495 5.44442924,8.73207143 L5.94959549,6.12371978 C7.97026048,9.92284066 4.43409674,12.9281154 4.26570799,16.5575989" id="Fill-3" fill="#0E7DC1"></path>
                    <g id="Group-7" transform="translate(0.000000, 12.629053)" fill="#0E7DC1">
                        <path d="M7.4090582,5.85650549 C6.62324403,7.67053846 6.84776236,10.1092527 7.52131736,11.8670549 C5.10774529,9.99584615 1.90835905,8.18134066 0.841896972,5.17606593 C0.336730724,3.6446044 -4.67746527e-05,1.83057143 -4.67746527e-05,0.29910989 C0.673508223,1.7733956 1.4031928,3.24815385 2.58191405,4.55185714 C4.04128321,5.85650549 4.88322696,7.61430769 5.89355945,9.2587033 C5.66904112,7.89735165 5.33273137,6.31013187 5.7251707,4.89254945 C6.23033695,3.30485714 6.56711445,1.65998901 6.79163278,0.0155934066 C7.35292861,1.7733956 7.85809486,3.87189011 7.4090582,5.85650549" id="Fill-5"></path>
                    </g>
                    <path d="M11.5066113,27.1040813 C11.955648,28.8051802 12.7975917,30.2799385 13.6956651,31.7537516 C11.5066113,30.3933451 8.70013216,30.3933451 6.67946716,28.6350703 C4.82719092,26.8777407 3.53621051,24.8359495 2.2452301,22.7946308 C3.64846968,24.0425758 4.99557967,25.4601582 6.62333758,26.0271912 C8.36335466,26.8777407 9.82272382,28.2953231 11.282093,29.6557297 C10.3278901,28.2381473 9.31755757,26.7076308 9.09303924,24.9498286 L8.75626174,19.7898286 C9.99111257,22.0574879 11.4504817,24.3256198 11.5066113,27.1040813" id="Fill-8" fill="#0E7DC1"></path>
                    <path d="M59.1044042,28.2951341 L58.7114972,28.2951341 C58.4874466,27.5008154 58.2624605,26.4806286 57.3082576,26.1966396 C56.1856659,25.9135956 54.8946855,25.9698264 53.6598347,26.0270022 C53.3791868,27.1610681 53.5475755,28.5214747 53.4914459,29.7689473 L57.7572942,30.5632659 L56.3540547,32.0942549 C55.5121109,31.5839253 54.5017784,31.4138154 53.5475755,31.1865297 C53.5475755,32.9448044 53.3791868,34.8727165 53.7720938,36.5171121 C54.1650009,36.9702659 54.8946855,36.8006286 55.4559813,36.9140352 C55.5121109,36.9702659 55.4559813,37.1408484 55.4559813,37.2542549 L50.0114118,37.2542549 C49.8991526,36.5738154 50.8533555,36.9702659 51.2462626,36.6309912 C51.8075584,36.1197165 51.5825724,35.1557604 51.6952993,34.3623868 L51.6952993,30.8467824 C48.2152651,30.4493868 44.3423239,30.5632659 42.4905154,33.9082879 C40.9184193,37.0841451 39.6274389,41.5070022 35.6422385,42.4709582 C34.2951285,42.9245846 32.611241,42.9808154 31.1518719,42.6972989 C33.4531848,42.0740352 35.8667568,41.1096066 37.326126,38.785244 C39.1227404,35.3258703 42.2655293,31.640156 46.0266791,30.4493868 C47.7662285,29.8823538 49.6746343,29.5430791 51.6396374,29.6555407 C51.6952993,28.5214747 51.8075584,27.2744747 51.4146514,26.2538154 C51.0778739,25.9135956 50.516578,25.9135956 50.0680091,25.9135956 L50.0680091,25.5162 L58.8237563,25.5162 L59.1044042,28.2951341 Z" id="Fill-10" fill="#0E7DC1"></path>
                    <path d="M17.4002643,31.1302989 C18.2422081,33.0577385 20.2067435,34.6459033 21.7222422,36.0634857 C17.9054306,35.7799692 13.7518414,36.3470022 10.7208439,34.1918044 C9.42986351,33.3984308 8.19454494,32.0942549 7.29693935,30.8467824 C10.6085848,33.0577385 14.9305627,32.774222 18.4105968,34.6459033 C15.3795993,32.7175187 13.9763597,29.4292 13.134416,26.2538154 C14.7621739,27.6713978 16.3899318,29.3157934 17.4002643,31.1302989" id="Fill-12" fill="#0E7DC1"></path>
                    <path d="M27.0546462,36.0064516 C27.8965899,36.6306604 28.7946632,37.1976934 29.9172549,37.1405176 C27.7277334,37.7647264 26.0438459,39.6359352 23.6302738,39.8055725 C20.7681328,40.3163747 17.9616537,39.6359352 15.8287295,37.8214297 C17.1753718,38.2745835 18.9158566,38.3317593 20.4313554,38.1611769 C22.2270343,37.4240341 24.1359078,37.1405176 26.2127024,37.1976934 L27.3352941,37.2543967 C25.3141613,36.460078 23.1255753,35.6662319 21.6100766,33.7954956 C20.9360539,32.5480231 19.8700595,31.4134846 18.7474679,30.4495286 C22.0591133,31.0165615 24.5288149,33.5686824 27.0546462,36.0064516" id="Fill-14" fill="#0E7DC1"></path>
                    <path d="M35.7547783,35.3830462 C36.6523839,35.2696396 37.5504572,35.2134088 38.392401,34.9294198 C35.4175331,36.9140352 33.6213864,40.9399692 30.0295608,41.6204088 C28.0084281,42.1874418 25.6514534,41.847222 23.6864502,41.3368923 C27.1664844,41.3368923 30.0295608,39.3522769 32.8917018,37.5372989 L35.4741304,36.2902989 C33.7902429,36.5171121 31.5450596,36.7434527 30.0852227,35.8366725 C29.1310198,35.0995297 28.289076,33.9654637 27.2230817,33.5685407 C30.4224679,33.3417275 32.4987947,35.7232659 35.7547783,35.3830462" id="Fill-16" fill="#0E7DC1"></path>
                    <path d="M22.7503491,15.0740516 C22.7503491,18.3765462 21.475272,20.0823703 18.0625934,20.0823703 C14.8477715,20.0823703 13.2850304,18.9393264 13.2850304,15.6552604 L13.2850304,11.3179308 C13.2850304,10.737667 13.2850304,9.39474396 13.1054157,8.90473297 C12.8715424,8.28808462 12.1353094,8.28808462 11.5609167,8.28808462 L11.5609167,7.87037033 C12.4047314,7.88832637 13.267256,7.92518352 14.1110707,7.94266703 C15.0269184,7.92518352 15.9254595,7.88832637 16.8413072,7.87037033 L16.8413072,8.28808462 C16.2664467,8.28808462 15.5119716,8.26965604 15.2963404,8.90473297 C15.1349679,9.39474396 15.1349679,10.737667 15.1349679,11.3179308 L15.1349679,15.7814253 C15.1349679,18.1038978 16.0330412,19.4288648 18.4938557,19.4288648 C20.9724445,19.4288648 22.2115051,18.1223264 22.2115051,15.6911725 L22.2115051,11.716744 C22.2115051,11.0821396 22.2115051,9.68487582 22.0318904,9.1220956 C21.7802428,8.36038132 21.0622519,8.28808462 20.3615676,8.28808462 L20.3615676,7.87037033 C21.0622519,7.88832637 21.744694,7.92518352 22.4449106,7.94266703 C23.1095784,7.92518352 23.7742462,7.88832637 24.4566884,7.87037033 L24.4566884,8.28808462 C23.8818279,8.30604066 23.2531766,8.28808462 23.0019967,8.94111758 C22.7503491,9.59415055 22.7503491,10.9909418 22.7503491,11.716744 L22.7503491,15.0740516 Z" id="Fill-18" fill="#0E7DC1"></path>
                    <path d="M28.1392568,9.37645714 C27.5821707,8.57788571 27.1513761,8.30618242 26.1812698,8.28775385 L26.1812698,7.87003956 C26.7561303,7.88846813 27.3127487,7.92532527 27.8876092,7.94280879 C28.354888,7.92532527 28.8394734,7.88846813 29.3062844,7.87003956 L36.8861168,17.2152154 L36.9221333,17.2152154 L36.9221333,12.1705121 C36.9221333,11.3903692 36.9221333,10.1206879 36.760293,9.37645714 C36.5451296,8.36052308 36.0600765,8.43281978 35.1620031,8.28775385 L35.1620031,7.87003956 C35.826671,7.88846813 36.4730967,7.92532527 37.1377645,7.94280879 C37.7664158,7.92532527 38.3772928,7.88846813 39.0414928,7.87003956 L39.0414928,8.28775385 C38.3772928,8.36052308 37.910014,8.30618242 37.6766085,9.08632527 C37.4965261,9.66658901 37.4609773,11.5354352 37.4609773,12.2617099 L37.4609773,20.0820396 L36.9221333,20.0820396 C36.5268875,19.5920286 36.1316417,19.0840615 35.7368636,18.5760945 L28.7141173,9.97514945 L28.6781008,9.97514945 L28.6781008,16.0716989 C28.6781008,16.743633 28.6781008,18.1040396 28.9475228,18.7206879 C29.2524935,19.4290066 29.8455961,19.392622 30.5097962,19.4653912 L30.5097962,19.882633 C29.827354,19.8642044 29.1266697,19.8278198 28.4442275,19.8093912 C27.7800275,19.8278198 27.1153597,19.8642044 26.4506918,19.882633 L26.4506918,19.4653912 C27.1513761,19.392622 27.816044,19.3557648 27.9951909,18.5760945 C28.1392568,17.9230615 28.1392568,16.7795451 28.1392568,16.0716989 L28.1392568,9.37645714 Z" id="Fill-20" fill="#0E7DC1"></path>
                    <path d="M43.1904981,11.317789 C43.1904981,10.7375253 43.1904981,9.39507473 43.0108834,8.90506374 C42.7774779,8.28794286 42.0407771,8.28794286 41.4663844,8.28794286 L41.4663844,7.87022857 C42.3284412,7.88865714 43.1904981,7.92504176 44.0525549,7.94252527 C44.9688704,7.92504176 45.8669437,7.88865714 46.765017,7.87022857 L46.765017,8.28794286 C46.1901565,8.28794286 45.4539235,8.28794286 45.2200502,8.90506374 C45.0404356,9.39507473 45.0404356,10.7375253 45.0404356,11.317789 L45.0404356,16.434789 C45.0404356,17.0155253 45.0404356,18.3579758 45.2200502,18.8484593 C45.4539235,19.4651077 46.1901565,19.4651077 46.765017,19.4651077 L46.765017,19.882822 C45.9207345,19.8643934 45.0409033,19.8280088 44.1783787,19.8095802 C43.2803054,19.8280088 42.3644577,19.8643934 41.4663844,19.882822 L41.4663844,19.4651077 C42.0407771,19.4651077 42.7774779,19.4651077 43.0108834,18.8484593 C43.1904981,18.3579758 43.1904981,17.0155253 43.1904981,16.434789 L43.1904981,11.317789 Z" id="Fill-22" fill="#0E7DC1"></path>
                    <path d="M59.9841887,10.7008571 L59.4991355,10.7008571 C59.3915538,8.92273626 58.7091117,8.45115385 57.0210144,8.45115385 C56.3563466,8.45115385 55.2781909,8.36042857 55.2781909,8.94116484 L55.2781909,17.5421099 C55.2781909,18.8840879 55.5298385,19.393 57.2721943,19.4652967 L57.2721943,19.883011 C56.2843137,19.8645824 55.2781909,19.8277253 54.290778,19.8092967 C53.338446,19.8277253 52.4043562,19.8645824 51.4347177,19.883011 L51.4347177,19.4652967 C53.1770735,19.393 53.4282534,18.8840879 53.4282534,17.5421099 L53.4282534,8.94116484 C53.4282534,8.39681319 52.6377617,8.45115385 51.9197708,8.45115385 C50.1418663,8.45115385 49.2793417,8.54187912 49.2073087,10.7008571 L48.7947563,10.7008571 L48.7947563,7.87041758 L59.8223484,7.87041758 L59.9841887,10.7008571 Z" id="Fill-24" fill="#0E7DC1"></path>
                    <path d="M63.5404655,11.3902747 C63.5404655,10.810011 63.5404655,9.46756044 63.3608509,8.97754945 C63.1274453,8.36042857 62.3912123,8.36042857 61.8163518,8.36042857 L61.8163518,7.87041758 L70.7428265,7.87041758 L70.7428265,10.6106044 L70.3298063,10.6106044 C69.9888191,8.48706593 69.0547293,8.36042857 67.1505332,8.36042857 L65.8576818,8.36042857 C65.5882598,8.36042857 65.462436,8.342 65.4086451,8.43272527 C65.3726287,8.50549451 65.390403,8.70537363 65.390403,9.10465934 L65.390403,13.4046593 C67.8512175,13.5133407 68.2104468,12.4794505 68.3180285,11.1729121 L68.7315165,11.1729121 C68.7132743,11.9899121 68.6955,12.8239231 68.6594835,13.6404505 C68.6955,14.3846813 68.7132743,15.1463956 68.7315165,15.8906264 L68.3180285,15.8906264 C68.0668487,13.9853956 67.1149845,13.8946703 65.390403,13.8946703 L65.390403,16.8706484 C65.390403,17.4145275 65.390403,18.2674396 65.7136159,18.7035824 C66.1808947,19.3381868 67.2945991,19.3740989 68.0130578,19.3556703 C69.8807697,19.3197582 71.1020559,19.083967 71.3354614,16.9245165 L71.7484816,16.9245165 L71.587109,19.8461538 L61.8163518,19.8461538 L61.8163518,19.4289121 C62.3912123,19.4289121 63.1274453,19.4289121 63.3608509,18.8117912 C63.5404655,18.3222527 63.5404655,16.9793297 63.5404655,16.3985934 L63.5404655,11.3902747 Z" id="Fill-26" fill="#0E7DC1"></path>
                    <path d="M77.6039197,16.688678 C77.6039197,17.3062714 77.5328222,18.1761945 77.8915838,18.7035352 C78.304604,19.319711 79.2209194,19.3929527 79.9033616,19.3929527 C83.0466182,19.3929527 83.6570275,17.1063923 83.6570275,14.4205462 C83.6570275,10.8283923 82.6335981,8.36038132 78.7896571,8.36038132 C78.574026,8.36038132 77.8733417,8.32446923 77.7115014,8.48701868 C77.6039197,8.59617253 77.6039197,8.90473297 77.6039197,9.0497989 L77.6039197,16.688678 Z M75.7539822,11.3543154 C75.7539822,10.7735791 75.7539822,9.43112857 75.5926096,8.94111758 C75.3947528,8.30604066 74.6407454,8.32446923 74.0658849,8.32446923 L74.0658849,7.87037033 C74.8025857,7.88832637 75.5748352,7.92518352 76.3288426,7.94266703 C77.2989489,7.92518352 78.2690552,7.88832637 79.2386938,7.87037033 C83.0288439,7.7976011 85.9022108,10.1933154 85.9022108,14.1304143 C85.9022108,17.9767879 83.4053798,19.972744 79.7059726,19.8829637 C78.6455912,19.8645352 77.5683709,19.827678 76.5084573,19.8092495 C75.6828847,19.827678 74.8741509,19.8645352 74.0658849,19.8829637 L74.0658849,19.4652495 C74.6407454,19.4652495 75.3947528,19.4652495 75.5926096,18.8481286 C75.7539822,18.3581176 75.7539822,17.0151945 75.7539822,16.4349308 L75.7539822,11.3543154 Z" id="Fill-28" fill="#0E7DC1"></path>
                    <path d="M96.0328521,9.37645714 C95.475766,8.57788571 95.0445037,8.30618242 94.0743974,8.28775385 L94.0743974,7.87003956 C94.6492579,7.88846813 95.2058763,7.92532527 95.7812045,7.94280879 C96.2480155,7.92532527 96.7330687,7.88846813 97.199412,7.87003956 L104.779244,17.2152154 L104.815261,17.2152154 L104.815261,12.1705121 C104.815261,11.3903692 104.815261,10.1206879 104.653888,9.37645714 C104.438725,8.36052308 103.953672,8.43281978 103.055598,8.28775385 L103.055598,7.87003956 C103.719799,7.88846813 104.366224,7.92532527 105.030892,7.94280879 C105.659543,7.92532527 106.27042,7.88846813 106.935556,7.87003956 L106.935556,8.28775385 C106.27042,8.36052308 105.803609,8.30618242 105.569736,9.08632527 C105.390589,9.66658901 105.354573,11.5354352 105.354573,12.2617099 L105.354573,20.0820396 L104.815261,20.0820396 C104.420483,19.5920286 104.025237,19.0840615 103.629991,18.5760945 L96.6072449,9.97514945 L96.5712284,9.97514945 L96.5712284,16.0716989 C96.5712284,16.743633 96.5712284,18.1040396 96.8406504,18.7206879 C97.1460889,19.4290066 97.7387237,19.392622 98.4033915,19.4653912 L98.4033915,19.882633 C97.7209494,19.8642044 97.0202651,19.8278198 96.3378229,19.8093912 C95.6726873,19.8278198 95.008955,19.8642044 94.3438194,19.882633 L94.3438194,19.4653912 C95.0445037,19.392622 95.7096393,19.3557648 95.8883185,18.5760945 C96.0328521,17.9230615 96.0328521,16.7795451 96.0328521,16.0716989 L96.0328521,9.37645714 Z" id="Fill-30" fill="#0E7DC1"></path>
                    <path d="M115.251107,14.9106989 L113.275346,9.79417143 L111.281342,14.9106989 L115.251107,14.9106989 Z M110.886564,15.944589 C110.617142,16.6340066 110.024507,17.9769297 110.024507,18.6847758 C110.024507,19.4653912 110.940355,19.410578 111.479667,19.4653912 L111.479667,19.882633 C110.814531,19.8642044 110.168105,19.8278198 109.503438,19.8093912 C108.874786,19.8278198 108.263909,19.8642044 107.635726,19.882633 L107.635726,19.4653912 C108.605364,19.3557648 109.00061,19.0661055 109.359372,18.1763363 C109.862667,17.0153363 110.348188,15.8722923 110.850548,14.7112923 L113.598558,7.57990769 L114.209435,7.57990769 L117.837745,16.7975011 C118.052909,17.269556 118.448154,18.3766879 118.771367,18.7934571 C119.166145,19.3198527 119.704989,19.392622 120.316334,19.4653912 L120.316334,19.882633 C119.472052,19.8642044 118.609995,19.8278198 117.765712,19.8093912 C116.903655,19.8278198 116.023356,19.8642044 115.1613,19.882633 L115.1613,19.4653912 C115.664595,19.4469626 116.544426,19.4833473 116.544426,18.7759736 C116.544426,18.3223473 116.347037,17.7770505 116.185197,17.3607538 L115.484512,15.4914352 L111.047937,15.4914352 L110.886564,15.944589 Z" id="Fill-32" fill="#0E7DC1"></path>
                    <path d="M131.236251,10.7008571 L130.751198,10.7008571 C130.643616,8.92273626 129.961174,8.45115385 128.272609,8.45115385 C127.608409,8.45115385 126.530721,8.36042857 126.530721,8.94116484 L126.530721,17.5421099 C126.530721,18.8840879 126.782368,19.393 128.524256,19.4652967 L128.524256,19.883011 C127.536376,19.8645824 126.530721,19.8277253 125.54284,19.8092967 C124.590976,19.8277253 123.656886,19.8645824 122.687248,19.883011 L122.687248,19.4652967 C124.429136,19.393 124.680316,18.8840879 124.680316,17.5421099 L124.680316,8.94116484 C124.680316,8.39681319 123.890292,8.45115385 123.171833,8.45115385 C121.393461,8.45115385 120.531872,8.54187912 120.459839,10.7008571 L120.046818,10.7008571 L120.046818,7.87041758 L131.074411,7.87041758 L131.236251,10.7008571 Z" id="Fill-34" fill="#0E7DC1"></path>
                    <path d="M134.918398,11.317789 C134.918398,10.7375253 134.918398,9.39507473 134.738784,8.90506374 C134.505378,8.28794286 133.768677,8.28794286 133.194752,8.28794286 L133.194752,7.87022857 C134.056341,7.88865714 134.918398,7.92504176 135.780455,7.94252527 C136.696771,7.92504176 137.594844,7.88865714 138.492917,7.87022857 L138.492917,8.28794286 C137.918057,8.28794286 137.181824,8.28794286 136.94795,8.90506374 C136.768336,9.39507473 136.768336,10.7375253 136.768336,11.317789 L136.768336,16.434789 C136.768336,17.0155253 136.768336,18.3579758 136.94795,18.8484593 C137.181824,19.4651077 137.918057,19.4651077 138.492917,19.4651077 L138.492917,19.882822 C137.648635,19.8643934 136.768336,19.8280088 135.906279,19.8095802 C135.008206,19.8280088 134.09189,19.8643934 133.194752,19.882822 L133.194752,19.4651077 C133.768677,19.4651077 134.505378,19.4651077 134.738784,18.8484593 C134.918398,18.3579758 134.918398,17.0155253 134.918398,16.434789 L134.918398,11.317789 Z" id="Fill-36" fill="#0E7DC1"></path>
                    <path d="M142.875094,13.9125791 C142.875094,16.7609747 143.988799,19.5918868 147.257411,19.5918868 C150.454927,19.5918868 151.424097,16.5615681 151.424097,13.858711 C151.424097,11.1369527 150.310861,8.14254615 147.150297,8.14254615 C144.042589,8.14254615 142.875094,11.226733 142.875094,13.9125791 M140.629911,13.9125791 C140.629911,10.3015242 143.755393,7.65253516 147.221863,7.65253516 C150.652316,7.65253516 153.669748,10.1933154 153.669748,13.7859418 C153.669748,17.5052055 150.778139,20.0823703 147.150297,20.0823703 C143.647344,20.0823703 140.629911,17.5600187 140.629911,13.9125791" id="Fill-38" fill="#0E7DC1"></path>
                    <path d="M157.405874,9.37645714 C156.849255,8.57788571 156.417993,8.30618242 155.447887,8.28775385 L155.447887,7.87003956 C156.022747,7.88846813 156.579366,7.92532527 157.154226,7.94280879 C157.621037,7.92532527 158.10609,7.88846813 158.573369,7.87003956 L166.152734,17.2152154 L166.189218,17.2152154 L166.189218,12.1705121 C166.189218,11.3903692 166.189218,10.1206879 166.027846,9.37645714 C165.811747,8.36052308 165.327161,8.43281978 164.42862,8.28775385 L164.42862,7.87003956 C165.093288,7.88846813 165.739714,7.92532527 166.404381,7.94280879 C167.033501,7.92532527 167.64391,7.88846813 168.308578,7.87003956 L168.308578,8.28775385 C167.64391,8.36052308 167.177099,8.30618242 166.943693,9.08632527 C166.763611,9.66658901 166.728062,11.5354352 166.728062,12.2617099 L166.728062,20.0820396 L166.189218,20.0820396 C165.793972,19.5920286 165.398726,19.0840615 165.003481,18.5760945 L157.980734,9.97514945 L157.94425,9.97514945 L157.94425,16.0716989 C157.94425,16.743633 157.94425,18.1040396 158.21414,18.7206879 C158.519578,19.4290066 159.111745,19.392622 159.776881,19.4653912 L159.776881,19.882633 C159.093971,19.8642044 158.393287,19.8278198 157.710845,19.8093912 C157.046644,19.8278198 156.381509,19.8642044 155.717777,19.882633 L155.717777,19.4653912 C156.417993,19.392622 157.082661,19.3557648 157.261808,18.5760945 C157.405874,17.9230615 157.405874,16.7795451 157.405874,16.0716989 L157.405874,9.37645714 Z" id="Fill-40" fill="#0E7DC1"></path>
                    <path d="M170.589544,16.2170484 L171.002564,16.2170484 C171.361793,18.0499824 172.331899,19.5923121 174.397,19.5923121 C175.798369,19.5923121 176.965864,18.7932681 176.965864,17.3237077 C176.965864,15.6726967 175.547189,15.0196637 174.236095,14.4932681 C172.601321,13.8586637 170.858498,12.9873231 170.858498,10.9185978 C170.858498,8.85034505 172.457723,7.65296044 174.415242,7.65296044 C175.402655,7.65296044 176.319438,7.99743297 177.127704,8.5776967 L177.540257,7.87032308 L177.737646,7.87032308 L177.827921,11.0093231 L177.414433,11.0093231 C177.001881,9.50337802 176.157598,8.14297143 174.415242,8.14297143 C173.265989,8.14297143 172.313657,8.88625714 172.313657,10.0656857 C172.313657,11.4998066 173.589202,11.9898176 174.702906,12.4614 C176.570151,13.2415429 178.653961,14.1851802 178.653961,16.5619934 C178.653961,18.9392791 176.463037,20.0823231 174.361451,20.0823231 C173.140165,20.0823231 172.187833,19.719422 171.218663,18.9931473 L170.786933,19.7553341 L170.589544,19.7553341 L170.589544,16.2170484 Z" id="Fill-42" fill="#0E7DC1"></path>
                    <path d="M62.9886649,31.3771473 C62.9886649,34.2260154 64.1019017,37.0564549 67.3714499,37.0564549 C70.5684974,37.0564549 71.5381359,34.0261363 71.5381359,31.3232791 C71.5381359,28.6015209 70.4248992,25.6071143 67.2634004,25.6071143 C64.1561603,25.6071143 62.9886649,28.6913011 62.9886649,31.3771473 M60.7434816,31.3771473 C60.7434816,27.7660923 63.8684962,25.1171033 67.3354334,25.1171033 C70.7658864,25.1171033 73.7833193,27.6578835 73.7833193,31.2500374 C73.7833193,34.9702462 70.8917102,37.5464659 67.2634004,37.5464659 C63.7609145,37.5464659 60.7434816,35.0241143 60.7434816,31.3771473" id="Fill-44" fill="#0E7DC1"></path>
                    <path d="M86.4998037,32.5386198 C86.4998037,35.8406418 85.224259,37.5464659 81.8125158,37.5464659 C78.5967584,37.5464659 77.034485,36.4038945 77.034485,33.119356 L77.034485,28.7824989 C77.034485,28.2017626 77.034485,26.8588396 76.8548704,26.3688286 C76.6209971,25.7526527 75.8847641,25.7526527 75.3099036,25.7526527 L75.3099036,25.3349385 C76.1541861,25.3528945 77.0162429,25.3897516 77.8605254,25.4072352 C78.7768409,25.3897516 79.6744464,25.3528945 80.5907619,25.3349385 L80.5907619,25.7526527 C80.0159014,25.7526527 79.2614263,25.7342242 79.0457951,26.3688286 C78.8844226,26.8588396 78.8844226,28.2017626 78.8844226,28.7824989 L78.8844226,33.2459934 C78.8844226,35.5684659 79.7829636,36.8929604 82.2428426,36.8929604 C84.7218992,36.8929604 85.9614275,35.5868945 85.9614275,33.1552681 L85.9614275,29.1817846 C85.9614275,28.5467077 85.9614275,27.149444 85.7813451,26.5866637 C85.5296974,25.8249495 84.8117065,25.7526527 84.1110222,25.7526527 L84.1110222,25.3349385 C84.8117065,25.3528945 85.4941487,25.3897516 86.194833,25.4072352 C86.8585653,25.3897516 87.5237009,25.3528945 88.2061431,25.3349385 L88.2061431,25.7526527 C87.6312826,25.7706088 87.0026313,25.7526527 86.7514514,26.4056857 C86.4998037,27.0582462 86.4998037,28.4555099 86.4998037,29.1817846 L86.4998037,32.5386198 Z" id="Fill-46" fill="#0E7DC1"></path>
                    <path d="M91.8880098,26.8410725 C91.3318592,26.0425011 90.9005969,25.7703253 89.9304906,25.7523692 L89.9304906,25.3346549 C90.5053511,25.3530835 91.0619695,25.3899407 91.6372977,25.4074242 C92.1041087,25.3899407 92.5886941,25.3530835 93.0555052,25.3346549 L100.635338,34.6798308 L100.671354,34.6798308 L100.671354,29.6351275 C100.671354,28.8549846 100.671354,27.5853033 100.509982,26.8410725 C100.294818,25.8251385 99.809765,25.8974352 98.9116917,25.7523692 L98.9116917,25.3346549 C99.5758918,25.3530835 100.222317,25.3899407 100.886985,25.4074242 C101.515637,25.3899407 102.126514,25.3530835 102.790714,25.3346549 L102.790714,25.7523692 C102.126514,25.8251385 101.659703,25.7703253 101.425829,26.5509407 C101.246215,27.1312044 101.210666,29.0000505 101.210666,29.7258527 L101.210666,37.5461824 L100.671354,37.5461824 C100.276576,37.0561714 99.8813302,36.5486769 99.4860844,36.0402374 L92.4633381,27.4397648 L92.4268538,27.4397648 L92.4268538,33.5363143 C92.4268538,34.2082484 92.4268538,35.5686549 92.6967436,36.1853033 C93.0021821,36.8931495 93.5943492,36.8567648 94.2594847,36.9300066 L94.2594847,37.3467758 C93.5770426,37.3288198 92.8763583,37.2924352 92.1934483,37.2740066 C91.5287805,37.2924352 90.8650482,37.3288198 90.1999126,37.3467758 L90.1999126,36.9300066 C90.9005969,36.8567648 91.5657325,36.8203802 91.7444117,36.0402374 C91.8880098,35.3876769 91.8880098,34.2441604 91.8880098,33.5363143 L91.8880098,26.8410725 Z" id="Fill-48" fill="#0E7DC1"></path>
                    <path d="M109.02381,34.1532462 C109.02381,34.7708396 108.951777,35.6407626 109.310539,36.1676308 C109.724027,36.7842791 110.639875,36.8570484 111.322317,36.8570484 C114.465573,36.8570484 115.07645,34.5709604 115.07645,31.8851143 C115.07645,28.2924879 114.053021,25.8249495 110.20908,25.8249495 C109.992981,25.8249495 109.292765,25.7890374 109.130924,25.9520593 C109.02381,26.0607407 109.02381,26.3688286 109.02381,26.514367 L109.02381,34.1532462 Z M107.173873,28.8188835 C107.173873,28.2376747 107.173873,26.8952242 107.012032,26.4056857 C106.813708,25.7706088 106.059701,25.7890374 105.485776,25.7890374 L105.485776,25.3349385 C106.221541,25.3528945 106.99379,25.3897516 107.747798,25.4072352 C108.718372,25.3897516 109.68801,25.3528945 110.658117,25.3349385 C114.448267,25.2626418 117.321166,27.6578835 117.321166,31.5949824 C117.321166,35.4418286 114.824803,37.4373121 111.124928,37.3470593 C110.065482,37.3291033 108.987326,37.2927187 107.92788,37.2738176 C107.10184,37.2927187 106.293106,37.3291033 105.485776,37.3470593 L105.485776,36.9298176 C106.059701,36.9298176 106.813708,36.9298176 107.012032,36.3126967 C107.173873,35.8226857 107.173873,34.4797626 107.173873,33.8994989 L107.173873,28.8188835 Z" id="Fill-50" fill="#0E7DC1"></path>
                    <path d="M125.476233,32.375267 L123.500472,27.2587396 L121.506468,32.375267 L125.476233,32.375267 Z M121.111222,33.4096297 C120.842268,34.0990473 120.249633,35.4414978 120.249633,36.149344 C120.249633,36.9299593 121.165481,36.8751462 121.703857,36.9299593 L121.703857,37.3467286 C121.039657,37.3287725 120.393232,37.2923879 119.728096,37.2739593 C119.099445,37.2923879 118.488568,37.3287725 117.860852,37.3467286 L117.860852,36.9299593 C118.83049,36.820333 119.225736,36.5302011 119.584498,35.6409044 C120.087793,34.4799044 120.572378,33.3368604 121.075674,32.1758604 L123.823685,25.0444758 L124.433626,25.0444758 L128.062404,34.2620692 C128.278035,34.7341242 128.673281,35.8407835 128.996026,36.2580253 C129.391271,36.7844209 129.930115,36.8567176 130.540992,36.9299593 L130.54146,37.3467286 C129.69671,37.3287725 128.835121,37.2923879 127.990371,37.2739593 C127.128782,37.2923879 126.248015,37.3287725 125.386426,37.3467286 L125.386426,36.9299593 C125.889253,36.9115308 126.769084,36.9479154 126.769084,36.2405418 C126.769084,35.7869154 126.571695,35.2416187 126.409855,34.8248495 L125.709639,32.9560033 L121.273063,32.9560033 L121.111222,33.4096297 Z" id="Fill-52" fill="#0E7DC1"></path>
                    <path d="M141.694783,28.1654253 L141.209729,28.1654253 C141.102148,26.3873044 140.419705,25.915722 138.731141,25.915722 C138.06694,25.915722 136.988785,25.8249967 136.988785,26.405733 L136.988785,35.006678 C136.988785,36.348656 137.2409,36.8570956 138.982788,36.9298648 L138.982788,37.3471066 C137.994908,37.3291505 136.988785,37.2927659 136.001372,37.2738648 C135.049508,37.2927659 134.115418,37.3291505 133.145779,37.3471066 L133.145779,36.9298648 C134.887667,36.8570956 135.138847,36.348656 135.138847,35.006678 L135.138847,26.405733 C135.138847,25.8613813 134.348823,25.915722 133.630365,25.915722 C131.851992,25.915722 130.990403,26.0064473 130.917903,28.1654253 L130.50535,28.1654253 L130.50535,25.3349857 L141.532942,25.3349857 L141.694783,28.1654253 Z" id="Fill-54" fill="#0E7DC1"></path>
                    <path d="M145.556451,28.7824044 C145.556451,28.2016681 145.556451,26.8592176 145.376836,26.3692066 C145.143431,25.7525582 144.407198,25.7525582 143.83187,25.7525582 L143.83187,25.334844 C144.694394,25.3528 145.556451,25.3896571 146.418976,25.4071407 C147.334823,25.3896571 148.232897,25.3528 149.131438,25.334844 L149.131438,25.7525582 C148.55611,25.7525582 147.819877,25.7525582 147.586471,26.3692066 C147.406389,26.8592176 147.406389,28.2016681 147.406389,28.7824044 L147.406389,33.8994044 C147.406389,34.4801407 147.406389,35.8225912 147.586471,36.3130747 C147.819877,36.9297231 148.55611,36.9297231 149.131438,36.9297231 L149.131438,37.3469648 C148.287155,37.3290088 147.406389,37.2926242 146.544332,37.2741956 C145.646258,37.2926242 144.730411,37.3290088 143.83187,37.3469648 L143.83187,36.9297231 C144.407198,36.9297231 145.143431,36.9297231 145.376836,36.3130747 C145.556451,35.8225912 145.556451,34.4801407 145.556451,33.8994044 L145.556451,28.7824044 Z" id="Fill-56" fill="#0E7DC1"></path>
                    <path d="M153.692668,31.3771473 C153.692668,34.2260154 154.806372,37.0564549 158.075453,37.0564549 C161.2725,37.0564549 162.242607,34.0261363 162.242607,31.3232791 C162.242607,28.6015209 161.128435,25.6071143 157.967871,25.6071143 C154.860163,25.6071143 153.692668,28.6913011 153.692668,31.3771473 M151.447485,31.3771473 C151.447485,27.7660923 154.572967,25.1171033 158.039436,25.1171033 C161.470357,25.1171033 164.48779,27.6578835 164.48779,31.2500374 C164.48779,34.9702462 161.596181,37.5464659 157.967871,37.5464659 C154.464918,37.5464659 151.447485,35.0241143 151.447485,31.3771473" id="Fill-58" fill="#0E7DC1"></path>
                    <g id="Group-62" transform="translate(166.050017, 24.914767)">
                        <mask id="mask-2" fill="white">
                            <use xlink:href="#path-1"></use>
                        </mask>
                        <g id="Clip-61"></g>
                        <path d="M2.17338423,1.92630549 C1.61723361,1.12773407 1.18550357,0.855558242 0.216332768,0.837602198 L0.216332768,0.419887912 C0.790257756,0.438316484 1.34687612,0.475173626 1.92220435,0.492657143 C2.38948313,0.475173626 2.87360078,0.438316484 3.34087956,0.419887912 L10.9202443,9.76506374 L10.9567285,9.76506374 L10.9567285,4.72036044 C10.9567285,3.94021758 10.9567285,2.67053626 10.7953559,1.92630549 C10.5797248,0.910371429 10.0946716,0.982668132 9.19659832,0.837602198 L9.19659832,0.419887912 C9.86126613,0.438316484 10.5076918,0.475173626 11.1718919,0.492657143 C11.801011,0.475173626 12.4114202,0.438316484 13.076088,0.419887912 L13.076088,0.837602198 C12.4114202,0.910371429 11.9446092,0.855558242 11.7112036,1.63617363 C11.5311212,2.21643736 11.4955725,4.08528352 11.4955725,4.81108571 L11.4955725,12.6314154 L10.9567285,12.6314154 C10.5614827,12.1414044 10.1662369,11.6339099 9.77099105,11.1254703 L2.74824471,2.5249978 L2.71176048,2.5249978 L2.71176048,8.62154725 C2.71176048,9.29348132 2.71176048,10.6538879 2.98211798,11.2705363 C3.28708871,11.9783824 3.87925581,11.9419978 4.54439137,12.0152396 L4.54439137,12.4320088 C3.86194919,12.4140527 3.1612649,12.3776681 2.47882271,12.3592396 C1.8141549,12.3776681 1.14995483,12.4140527 0.485287021,12.4320088 L0.485287021,12.0152396 C1.18550357,11.9419978 1.85063913,11.9056132 2.0293183,11.1254703 C2.17338423,10.4729099 2.17338423,9.32939341 2.17338423,8.62154725 L2.17338423,1.92630549 Z" id="Fill-60" fill="#0E7DC1" mask="url(#mask-2)"></path>
                    </g>
                </g>
            </g>
        </g>
    </g>
</svg>