<?xml version="1.0" encoding="UTF-8" standalone="no"?>
<svg width="56px" height="50px" viewBox="0 0 56 50" version="1.1" xmlns="http://www.w3.org/2000/svg" xmlns:xlink="http://www.w3.org/1999/xlink">
    <!-- Generator: sketchtool 3.7 (28169) - http://www.bohemiancoding.com/sketch -->
    <title>26A5944F-DB43-426E-8D08-CF7329D21365</title>
    <desc>Created with sketchtool.</desc>
    <defs>
        <polygon id="path-1" points="27.9817063 45.9183673 0 45.9183673 0 0.760204082 55.9634127 0.760204082 55.9634127 45.9183673"></polygon>
    </defs>
    <g id="Page-1" stroke="none" stroke-width="1" fill="none" fill-rule="evenodd">
        <g id="Landing_v2_4-(final)-" transform="translate(-619.000000, -4409.000000)">
            <g id="Footer" transform="translate(0.000000, 4233.000000)">
                <g id="WHO" transform="translate(619.000000, 176.000000)">
                    <g id="Group-3" transform="translate(0.000000, 3.235510)">
                        <g id="Clip-2"></g>
                        <path d="M45.5185139,5.76326531 C46.5899696,7.03265306 48.4632228,7.78061224 49.5592861,9.05714286 C48.7728684,5.29183673 45.8517418,2.21734694 42.4005266,1.48265306 C44.0820456,2.74387755 44.4460329,4.49387755 45.5185139,5.76326531 L45.5185139,5.76326531 Z M4.01780506,15.305102 C6.39551392,10.1591837 9.94413418,11.2459184 11.4482734,6.33979592 C10.601362,7.84489796 6.72464051,8.47857143 4.92110886,12.3367347 C5.84081772,10.0459184 5.38045063,6.53877551 6.93483038,4.64795918 C2.29014684,8.05510204 4.26900759,13.5765306 4.01780506,15.305102 L4.01780506,15.305102 Z M8.32515949,27.6602041 C8.75169114,29.6683673 7.50080506,32.5602041 9.48889367,35.3285714 C7.42595696,33.0265306 3.05708354,32.4387755 1.26893165,28.9387755 C3.50002025,37.4918367 9.30536203,35.7316327 11.9250456,37.5918367 C9.7708557,34.5102041 11.5333747,32.4653061 8.32515949,27.6602041 L8.32515949,27.6602041 Z M7.65460253,33.0336735 C6.3688557,28.2520408 8.65326076,26.6020408 6.91637468,22.0122449 C6.7369443,24.5969388 5.00826076,25.855102 6.17507089,30.5836735 C4.11110886,26.5785714 0.9234,25.0867347 -0.000410126582,22.3397959 C0.0621341772,29.8520408 6.12483038,30.9602041 7.65460253,33.0336735 L7.65460253,33.0336735 Z M16.9624253,41.0520408 C15.1804253,38.5918367 16.3964506,37.205102 11.3867544,32.7397959 C12.4459063,34.3734694 11.3539443,36.4204082 14.732362,39.6102041 C11.4257165,37.6653061 6.85998228,38.494898 4.66272911,35.9030612 C8.43999494,43.0969388 15.0840456,40.1581633 16.9624253,41.0520408 L16.9624253,41.0520408 Z M41.2265392,39.6102041 C44.6090582,36.4204082 43.5140203,34.3734694 44.5731722,32.7397959 C39.5634759,37.205102 40.7784759,38.5918367 38.9913494,41.0520408 C40.878957,40.1581633 47.520957,43.0969388 51.2982228,35.9030612 C49.0968684,38.494898 44.5331848,37.6653061 41.2265392,39.6102041 L41.2265392,39.6102041 Z M46.4689823,35.3285714 C48.4621975,32.5602041 47.2072101,29.6683673 47.6337418,27.6602041 C44.4296278,32.4653061 46.1911215,34.5102041 44.034881,37.5918367 C46.6555899,35.7316327 52.4609316,37.4918367 54.6909949,28.9387755 C52.902843,32.4387755 48.5339696,33.0265306 46.4689823,35.3285714 L46.4689823,35.3285714 Z M38.4592101,41.3918367 C36.4998304,40.8734694 34.4830329,40.6102041 32.9788937,40.5734694 C31.1056405,40.5316327 29.4271975,40.8816327 27.9794506,41.4214286 C26.5306785,40.8816327 24.8553114,40.5316327 22.9820582,40.5734694 C21.477919,40.6102041 19.4590709,40.8734694 17.4996911,41.3918367 C14.4852608,42.1918367 11.877881,42.8102041 9.60577975,41.6653061 C11.7815013,43.5897959 14.3222354,44.2734694 17.9959443,43.8816327 C21.0524127,43.555102 23.5193241,42.0367347 26.4004633,42.0530612 C26.4363494,42.0530612 26.4763367,42.055102 26.5152987,42.0581633 C23.4772861,43.5816327 21.762957,45.7336735 21.762957,45.7336735 L23.1522608,45.9183673 C23.1522608,45.9183673 24.6164127,42.9918367 27.9774,42.2285714 C31.3435139,42.9918367 32.8086911,45.9183673 32.8086911,45.9183673 L34.1959443,45.7336735 C34.1959443,45.7336735 32.4836658,43.5816327 29.4466785,42.0581633 C29.4825646,42.055102 29.5205013,42.0530612 29.5594633,42.0530612 C32.4416278,42.0367347 34.9085392,43.555102 37.9650076,43.8816327 C41.6356405,44.2734694 44.1763747,43.5897959 46.3572228,41.6653061 C44.0820456,42.8102041 41.4736405,42.1918367 38.4592101,41.3918367 L38.4592101,41.3918367 Z M7.12451392,16.8265306 C5.87772911,19.2 3.94808354,19.7459184 4.15314684,24.6469388 C3.11142532,20.2908163 0.619906329,18.6734694 0.652716456,15.8897959 C-1.08416962,23.15 3.55026076,24.0132653 4.73757722,27.055102 C4.56327342,22.6938776 7.35931139,21.8112245 7.12451392,16.8265306 L7.12451392,16.8265306 Z M8.85934937,11.2183673 C8.43076709,11.8204082 8.12214684,12.0795918 6.97071646,13.0234694 C5.39480506,14.3132653 4.13674177,16.0122449 3.60767848,18.4846939 C3.72866582,15.8214286 2.07483038,11.9959184 3.17396962,9.20510204 C-1.08416962,15.1867347 3.41696962,18.7714286 3.57691899,20.9336735 C4.67605823,16.7673469 7.21371646,16.7357143 8.85934937,11.2183673 L8.85934937,11.2183673 Z M52.3512228,18.4846939 C51.8201089,16.0122449 50.5640962,14.3132653 48.9881848,13.0234694 C47.8377797,12.0795918 47.5271089,11.8204082 47.0954506,11.2183673 C48.7462101,16.7357143 51.2818177,16.7673469 52.3830076,20.9336735 C52.5409063,18.7714286 57.0420456,15.1867347 52.7839063,9.20510204 C53.8840709,11.9959184 52.2312608,15.8214286 52.3512228,18.4846939 L52.3512228,18.4846939 Z M55.9634127,22.3397959 C55.0375519,25.0867347 51.8447165,26.5785714 49.785881,30.5836735 C50.9526911,25.855102 49.2240076,24.5969388 49.0404759,22.0122449 C47.3066658,26.6020408 49.5890203,28.2520408 48.3063494,33.0336735 C49.8350962,30.9602041 55.8957418,29.8520408 55.9634127,22.3397959 L55.9634127,22.3397959 Z M48.836438,16.8265306 C48.5985646,21.8112245 51.3956278,22.6938776 51.2223494,27.055102 C52.4117165,24.0132653 57.0420456,23.15 55.3051595,15.8897959 C55.3410456,18.6734694 52.8485013,20.2908163 51.8078051,24.6469388 C52.011843,19.7459184 50.0811722,19.2 48.836438,16.8265306 L48.836438,16.8265306 Z M10.439362,5.76326531 C11.514919,4.49387755 11.877881,2.74387755 13.5594,1.48265306 C10.1051089,2.21734694 7.18398228,5.29183673 6.40166582,9.05714286 C7.49772911,7.78061224 9.36995696,7.03265306 10.439362,5.76326531 L10.439362,5.76326531 Z M44.5126785,6.33979592 C46.0137418,11.2459184 49.5633873,10.1591837 51.9410962,15.305102 C51.6939949,13.5765306 53.6718304,8.05510204 49.0261215,4.64795918 C50.5774253,6.53877551 50.1191089,10.0459184 51.0377924,12.3367347 C49.2363114,8.47857143 45.3595899,7.84489796 44.5126785,6.33979592 L44.5126785,6.33979592 Z M32.4580329,9.12653061 C31.5649823,8.75816327 30.6196405,8.49795918 29.6312354,8.3622449 C29.6281595,8.56428571 29.6209823,8.77959184 29.616881,8.98877551 C30.5294127,9.12244898 31.4029823,9.36326531 32.2293873,9.70306122 C32.3401215,9.53061224 32.4170203,9.33979592 32.4580329,9.12653061 L32.4580329,9.12653061 Z M31.7403114,3.05 L31.9299949,2.88163265 L31.5711342,2.72755102 L30.6196405,2.7122449 L30.3725392,2.88163265 L29.8137418,2.83469388 L29.8055392,2.97142857 C30.1613241,2.99387755 30.507881,3.02755102 30.7826658,3.07244898 L31.2461089,3.03469388 L31.7403114,3.05 Z M29.9131975,23.4183673 C29.9131975,23.2571429 29.6989063,23.1020408 29.3820835,22.9530612 L29.3246658,22.9520408 C29.3226152,23.0846939 29.3082608,23.7204082 29.3031342,24.0336735 C29.6948051,23.8602041 29.9131975,23.6734694 29.9131975,23.4183673 L29.9131975,23.4183673 Z M18.9177038,11.4163265 C18.9361595,11.2857143 18.9607671,11.1816327 18.9946025,11.0704082 C18.8797671,11.0979592 18.7403241,11.1122449 18.6090835,11.1071429 L18.9177038,11.4163265 Z M28.0009823,39.2030612 C38.6786278,39.2030612 47.3620329,30.5581633 47.3620329,19.9316327 C47.3620329,9.96836735 39.7193241,1.74489796 29.9624127,0.760204082 C29.9572861,0.797959184 29.9460076,0.835714286 29.9388304,0.871428571 C29.8998684,1.05612245 29.8639823,1.22653061 29.8362987,1.37755102 C34.2082481,1.80408163 38.141362,3.72857143 41.1117038,6.62959184 L38.9749443,8.75714286 L39.0579949,8.38469388 L38.7780835,8.25918367 L38.3946152,8.23571429 L38.4766405,7.99081633 L38.2141595,7.11938776 L37.6850962,6.54081633 L36.0128051,5.66734694 L35.8723367,5.81632653 L35.5678177,5.90408163 C36.1430203,6.74591837 36.4495899,7.71632653 36.4495899,8.69489796 C36.4495899,8.82653061 36.4475392,8.95102041 36.4424127,9.0755102 L37.2677924,10.1112245 L36.8812481,10.1989796 L37.1355266,10.5857143 L36.4085772,11.3091837 L36.1143114,10.7530612 C35.9748684,11.1418367 35.7913367,11.5071429 35.5616658,11.8397959 C35.6160076,11.8908163 35.6724,11.9397959 35.7257165,11.9908163 L33.4761722,14.227551 C33.3408304,14.1 33.1983114,13.9755102 33.0516911,13.855102 C32.8343241,13.9540816 32.616957,14.0459184 32.393438,14.1316327 C32.4580329,14.1795918 32.5226278,14.2306122 32.5861975,14.2816327 L32.471362,14.3959184 L32.208881,14.5418367 L32.1094253,14.805102 L31.9453747,14.6408163 L31.4716785,14.7979592 L31.6008684,15.0030612 L31.9299949,14.9183673 L32.1453114,14.9387755 L32.1586405,14.8183673 L32.3206405,14.7387755 L32.3749823,14.6408163 L32.6671975,14.5612245 L32.8999443,14.5489796 C32.9419823,14.5887755 32.9901722,14.6295918 33.0332354,14.6704082 L32.1381342,15.5581633 L32.0745646,15.4612245 L31.1415266,15.6163265 L30.9344127,15.822449 L30.7293494,15.8459184 L31.3096785,15.2979592 L31.0994886,15.1918367 L30.5622228,15.9122449 L30.7190962,15.894898 L30.7098684,16.1612245 L30.9098051,16.2367347 L30.9467165,16.5214286 L30.6206658,16.4540816 L30.2833367,16.5183673 L29.4671848,16.0989796 C29.4671848,16.0989796 29.4200203,18.2857143 29.3995139,19.3857143 C31.3271089,20.0306122 33.3797924,20.9632653 33.3797924,23.4183673 C33.3797924,24.494898 32.9112228,25.3683673 31.9904886,26.0071429 L31.9966405,26.0132653 C31.9843367,26.0204082 31.9699823,26.0316327 31.9566532,26.0387755 L31.9515266,26.0367347 C31.9320456,26.05 31.9115392,26.0683673 31.8910329,26.0785714 C31.1066658,26.594898 30.102881,26.8683673 29.2323873,27.1387755 C29.2272608,27.1418367 29.2057291,28.8571429 29.2057291,28.8571429 C30.5909316,29.5418367 32.2734759,30.5397959 32.1196785,33.3918367 C32.0971215,34.0918367 31.8254127,34.2897959 31.5885646,34.35 C30.7785646,34.55 29.940881,34.6816327 29.0837165,34.7469388 C29.0796152,34.9653061 29.0775646,35.1785714 29.0744886,35.3734694 C32.8025392,35.1183673 36.177881,33.55 38.7257924,31.1316327 L40.976362,33.3683673 C37.6061468,36.5918367 33.0311848,38.5765306 28.0009823,38.5765306 C22.9964127,38.5765306 18.4450329,36.6132653 15.0799443,33.4214286 L17.3305139,31.1836735 C19.8527924,33.555102 23.1727671,35.1 26.8434,35.3683673 C26.8423747,35.1765306 26.8392987,34.9632653 26.8351975,34.7397959 C23.3419443,34.4714286 20.1829443,32.9969388 17.7724253,30.7387755 L18.3742861,30.144898 L19.1965899,30.2367347 L19.6374759,29.7653061 L20.7858304,29.8081633 L20.9550076,29.4071429 L20.9139949,29.2418367 C22.5780835,30.5 24.5907797,31.3285714 26.7757291,31.5520408 C26.7726532,31.3102041 26.7685519,31.094898 26.7644506,30.9234694 C24.3488051,30.655102 22.1659063,29.6153061 20.4679823,28.0581633 L22.7206025,25.8183673 C23.2660709,26.305102 23.8781848,26.7132653 24.5446405,27.0367347 C24.5928304,26.8234694 24.6687038,26.6285714 24.7702101,26.45 C24.1868051,26.1602041 23.6464633,25.8 23.1635392,25.3765306 L25.4212861,23.1295918 C25.7760456,23.4183673 26.1861722,23.6418367 26.6239823,23.7969388 C26.6209063,23.5755102 26.6188557,23.3408163 26.6137291,23.1244898 C26.3461215,23.0071429 26.0959443,22.8591837 25.8683241,22.6836735 L26.5040203,22.0520408 C26.2805013,21.9846939 26.0539063,21.9132653 25.8303873,21.8367347 L25.4069316,22.2591837 C25.1916152,22.022449 25.0091089,21.7530612 24.8655646,21.4663265 C24.4769696,21.2928571 24.1037544,21.0989796 23.7520709,20.8704082 C22.3637924,19.9632653 21.6614506,18.6816327 21.6614506,17.0673469 C21.6614506,15.8326531 22.0100582,14.8959184 22.5739823,14.1714286 L20.3295646,11.9397959 C21.9464886,10.4030612 24.0248051,9.34387755 26.3368937,8.99795918 C26.3317671,8.77959184 26.3286911,8.56428571 26.3215139,8.36632653 C23.8422987,8.71938776 21.6142861,9.85 19.8866278,11.4979592 L19.5082861,11.1214286 C19.4201089,11.2704082 19.3196278,11.4602041 19.2037671,11.7030612 L19.4426658,11.9397959 C17.5140456,13.9887755 16.3113494,16.7265306 16.2621342,19.7357143 L13.0816025,19.7357143 C13.1277418,15.8530612 14.6841722,12.3234694 17.1910709,9.7 L18.2030582,10.705102 C18.2491975,10.7081633 18.2973873,10.705102 18.3476278,10.7010204 C18.5260329,10.6908163 18.7269949,10.6326531 18.9187291,10.5367347 L17.6340076,9.25714286 C18.3137924,8.60408163 19.0561215,8.01632653 19.8476658,7.49795918 C19.9132861,7.28571429 19.9727544,7.09795918 20.0055646,7.03061224 C20.0465772,6.95102041 20.2475392,6.6877551 20.4946405,6.38163265 C19.2847671,7.04591837 18.1753747,7.86428571 17.1910709,8.81734694 L14.9446025,6.57755102 C17.8923873,3.72244898 21.7803873,1.81836735 26.1000456,1.38265306 C26.0836405,1.30816327 26.072362,1.25 26.072362,1.25 C26.0416025,1.09897959 26.0087924,0.936734694 25.9780329,0.767346939 C16.2488051,1.77857143 8.63583038,9.98571429 8.63583038,19.9316327 C8.63583038,30.5581633 17.3223114,39.2030612 28.0009823,39.2030612 L28.0009823,39.2030612 Z M32.1801722,25.8918367 L32.1770962,25.8755102 L32.1832481,25.8867347 C32.1811975,25.8867347 32.1811975,25.8918367 32.1801722,25.8918367 L32.1801722,25.8918367 Z M41.5556658,7.07653061 C44.7197924,10.3765306 46.6801975,14.8357143 46.7314633,19.7357143 L43.5509316,19.7357143 C43.5191468,17.3081633 42.9244633,15.0132653 41.889919,12.977551 L41.9186278,12.9173469 L42.1390709,13.0346939 L42.1903367,12.8683673 L41.6223114,11.8755102 L40.9466278,10.9479592 L40.1571342,10.2897959 C39.8864506,9.95408163 39.602438,9.62653061 39.3009949,9.3122449 L41.5556658,7.07653061 Z M37.5025899,11.1316327 L38.2674759,11.1642857 L38.4469063,11.3846939 L38.3597544,11.7112245 L39.420957,12.3663265 L39.6290962,12.3367347 L40.9845646,13.8857143 L41.543362,13.6908163 C42.4005266,15.5346939 42.8947291,17.5806122 42.923438,19.7357143 L39.7377797,19.7357143 C39.7244506,18.9081633 39.6198684,18.1040816 39.4435139,17.3265306 L39.5891089,17.1336735 L39.7869949,16.1397959 L39.6352481,15.0744898 L39.2538304,13.8489796 L38.3669316,12.555102 L38.5812228,12.6704082 L38.6899063,12.5591837 L37.9752608,12.0806122 L37.9311722,12.2397959 L38.6417165,13.2510204 L39.0436405,14.0826531 L39.3358557,14.905102 L39.4260835,15.4591837 L39.5747544,16.3928571 L39.3061215,16.4091837 C39.3061215,16.4091837 38.9985266,15.8408163 38.9031722,15.6040816 L39.0436405,15.394898 L38.7750076,15.0030612 L38.7750076,14.6204082 L38.5812228,14.3765306 L38.3371975,14.4071429 C38.2531215,14.244898 38.1659696,14.0897959 38.0685646,13.9346939 L38.2377418,14.0214286 L38.2849063,13.9755102 L38.1957038,13.7734694 L38.4028177,13.6591837 L38.3084886,13.5418367 L37.998843,13.6591837 L38.1136785,13.1795918 L37.9311722,13.0734694 L37.7671215,13.4591837 C37.4185139,12.9397959 37.0340203,12.45 36.6105646,11.994898 L37.5025899,11.1316327 Z M36.8668937,18.555102 L37.4359443,18.2489796 L38.0193494,18.1571429 L38.1475139,17.8744898 L38.4704886,17.6765306 L38.5935266,17.4081633 L38.6950329,16.9397959 C38.7421975,17.1030612 38.7873114,17.272449 38.8231975,17.4397959 L38.5166278,18.355102 L38.5022734,18.6622449 L38.9534127,18.0704082 C39.0436405,18.6132653 39.1010582,19.1683673 39.1123367,19.7357143 L36.3234759,19.7357143 L36.2599063,19.494898 L36.5787797,19.2367347 L36.6454253,19.0857143 L36.7889696,18.9816327 L37.1611595,18.9418367 L37.2031975,18.7734694 L36.8668937,18.555102 Z M33.0445139,16.3755102 L33.3295519,16.3112245 L33.3162228,16.244898 L33.0311848,16.0571429 L33.1296152,15.4591837 L33.4710456,15.1204082 C33.6832861,15.3591837 33.8821975,15.6163265 34.0626532,15.8816327 L33.9416658,16.2489796 L33.6320203,16.0295918 L33.3931215,16.0938776 L33.5100076,16.3112245 L33.6258684,16.3112245 L33.4987291,16.6346939 L33.4064506,16.5071429 L33.0445139,16.3755102 Z M34.2615646,26.894898 L33.5756278,26.6969388 L33.3685139,26.7765306 L32.9809443,26.4785714 L32.6159316,26.35 C32.795362,26.2204082 32.9706911,26.0836735 33.138843,25.9418367 L33.7037924,26.3387755 L34.1385266,26.5632653 L34.3517924,26.7785714 L34.2615646,26.894898 Z M33.9139823,14.6765306 L36.1645519,12.4387755 C36.6925899,13.005102 37.1591089,13.6295918 37.5589823,14.2979592 L37.2780456,14.3765306 L37.2913747,14.8755102 L38.1382861,15.405102 C38.3423241,15.8612245 38.5207291,16.3346939 38.6642734,16.8204082 L38.5166278,17.0367347 L38.2121089,17.2265306 L38.1331595,17.694898 L37.9270709,17.8081633 L37.7548177,18.0122449 L37.5764127,17.9520408 L37.2667671,17.9367347 L37.4482481,17.694898 L37.5764127,17.0632653 L37.7825013,16.9316327 L37.1775646,16.3520408 L36.7223241,16.5071429 L36.6187671,16.9316327 L36.3347544,17.2418367 L36.0374127,16.994898 L35.9318051,16.7367347 L36.1009823,16.6316327 L36.1942861,16.8030612 L36.3347544,16.7520408 L36.2752861,16.4673469 L36.0753494,16.4540816 L36.0630456,16.5704082 L35.9318051,16.5959184 L35.2345899,15.7857143 L34.9946658,15.6040816 L35.0869443,15.5071429 L35.2991848,15.4316327 L35.1033494,15.3540816 C35.1033494,15.3540816 34.8541975,15.4112245 34.8275392,15.4112245 L34.9680076,15.5887755 L34.6132481,15.5836735 C34.4010076,15.2632653 34.1662101,14.9591837 33.9139823,14.6765306 L33.9139823,14.6765306 Z M35.0592608,26.5969388 L34.7547418,26.294898 L34.9895392,25.9918367 L35.2827797,25.4 L35.1699949,25.2316327 L35.3648051,24.7887755 L35.3412228,24.3918367 L35.2233114,23.9785714 L34.9464759,23.8816327 L34.8459949,24.1132653 L34.677843,24.0683673 C34.9167418,23.6918367 35.1710203,23.3336735 35.3442987,22.9122449 L35.6283114,22.7928571 L35.7913367,22.5765306 L35.8682354,22.6642857 L36.0630456,22.4346939 L35.9061722,22.2397959 L36.0476658,22.2020408 L36.3091215,22.305102 L36.8002481,22.3173469 L37.0996405,22.1612245 L37.8737544,21.9581633 L37.7271342,21.7 L37.6799696,21.3897959 L38.0941975,21.5704082 L38.2510709,21.4816327 L38.1731468,21.1612245 L37.6604886,21.3489796 L37.0996405,21.2346939 L36.6690076,20.3612245 L39.1031089,20.3612245 C38.9985266,23.15 37.8460709,25.6755102 36.0312608,27.5653061 L35.6959823,27.2336735 L35.8436278,26.7887755 L35.5842228,25.8081633 L35.0592608,26.5969388 Z M35.4898937,32.7734694 L35.7913367,32.1367347 L35.6724,31.8520408 L36.1143114,31.4683673 L36.1143114,31.2336735 L35.7390456,31 L36.0476658,30.3836735 L36.5131595,29.7816327 L36.0476658,29.2765306 L35.6959823,29.2765306 L35.4806658,28.9265306 C35.6703494,28.7704082 35.8518304,28.6132653 36.0312608,28.4469388 L38.2828557,30.6867347 C37.4410709,31.4836735 36.5029063,32.1897959 35.4898937,32.7734694 L35.4898937,32.7734694 Z M38.2941342,29.8153061 L38.5391848,29.5418367 L38.3084886,28.3183673 L38.144438,28.2520408 L38.2469696,28.0469388 L37.7148304,27.8785714 L37.6092228,28.3183673 L37.5589823,28.8704082 L37.4451722,28.9734694 L36.4762481,28.0102041 C38.4058937,26.0071429 39.6260203,23.322449 39.7326532,20.3612245 L42.9183114,20.3612245 C42.8096278,24.1969388 41.2285899,27.6683673 38.7257924,30.244898 L38.2941342,29.8153061 Z M39.1718051,30.6887755 C41.7884127,28 43.4371215,24.3683673 43.548881,20.3612245 L46.7294127,20.3612245 C46.6176532,25.2418367 44.6131595,29.6653061 41.4223747,32.9285714 L39.1718051,30.6887755 Z M20.0209443,27.6204082 C19.7881975,27.3836735 19.5687797,27.1367347 19.3585899,26.8785714 L19.4580456,26.0785714 L19.1217418,25.3102041 L19.0417671,24.1071429 L18.6634253,23.3785714 L18.7454506,22.9244898 L18.2881595,22.0530612 L17.8923873,21.8591837 L18.053362,21.3979592 L17.8882861,21.0316327 L18.0523367,20.6173469 L18.4880962,20.6173469 L18.6377924,20.3612245 L19.3821722,20.3612245 L19.4980329,20.5816327 L19.3585899,21.3357143 L19.2693873,21.4632653 L19.5503241,22.0673469 L19.3657671,22.1673469 L19.2386278,22.0081633 L19.1842861,22.0673469 L19.3104,22.4265306 L19.5277671,22.8459184 L19.6313241,22.8346939 L19.6907924,22.4622449 L19.5831342,22.3204082 L19.5718557,22.0673469 L19.5400709,21.5408163 L19.6989949,20.6153061 L19.5462228,20.3612245 L20.0793873,20.3612245 C20.1880709,22.3071429 20.9980709,24.0602041 22.2704886,25.3836735 L20.0209443,27.6204082 Z M17.9169949,21.4265306 L17.6186278,21.9 L17.0987924,21.9 L17.0588051,21.8663265 C16.9737038,21.3765306 16.9183367,20.8734694 16.8978304,20.3612245 L17.8534253,20.3612245 L17.6258051,21.127551 L17.9169949,21.4265306 Z M18.963843,19.2591837 L19.0212608,18.6255102 L19.3996025,18.4081633 L20.0722101,18.527551 L20.1737165,18.65 C20.1152734,19.0030612 20.0804127,19.3673469 20.0722101,19.7357143 L19.3104,19.7357143 L18.963843,19.2591837 Z M22.1925646,21.622449 L22.3525139,21.544898 L22.7677671,21.8561224 L22.5883367,22.0040816 L23.0548557,22.3122449 L23.0261468,21.9795918 L23.2732481,21.5704082 L23.5367544,21.844898 L23.8033367,22.2255102 L23.3204127,22.3316327 L23.5398304,22.7673469 L23.8751089,22.5897959 L23.8320456,22.4489796 L24.0842734,22.2806122 L24.2298684,21.5908163 C24.4134,22.0040816 24.6605013,22.3755102 24.960919,22.7040816 L22.7134253,24.9418367 C21.639919,23.8204082 20.9211722,22.3591837 20.7427671,20.7397959 L21.2021089,21.227551 L21.6337671,21.2183673 L22.1925646,21.622449 Z M19.8866278,12.3816327 L22.1371975,14.6204082 C21.6676025,15.1326531 21.2656785,15.7081633 20.9447544,16.3326531 L20.7858304,16.3214286 L20.4679823,16.4214286 L20.3592987,16.4091837 L20.0219696,16.7183673 L20.4505519,16.6530612 L20.8309443,16.5581633 C20.810438,16.6040816 20.7858304,16.655102 20.7653241,16.7020408 L20.4300456,16.9112245 L20.2721468,16.9112245 L19.776919,17.2846939 L19.3021975,17.2438776 L18.6060076,18.527551 L18.7454506,18.7846939 L18.3660835,19.1979592 L18.3127671,19.7357143 L16.8906532,19.7357143 C16.9429443,16.8989796 18.0707924,14.3142857 19.8866278,12.3816327 L19.8866278,12.3816327 Z M16.9798557,29.2734694 L17.6934759,29.6867347 L17.8431722,29.7867347 L17.3253873,30.3020408 C17.0834127,30.0520408 16.8486152,29.7918367 16.6250962,29.5336735 L16.9798557,29.2734694 Z M16.2693114,20.3612245 C16.2805899,20.6704082 16.3062228,20.9755102 16.3410835,21.277551 L15.9494127,21.3663265 L15.8725139,21.7591837 L15.0604633,22.7846939 L15.0809696,24.1969388 L14.246362,24.4765306 L13.7921468,24.4785714 C13.3717671,23.172449 13.1226152,21.794898 13.0826278,20.3612245 L16.2693114,20.3612245 Z M13.1256911,24.4571429 L12.9390835,24.4234694 L12.7617038,24.2255102 L11.8707038,24.1469388 L12.1475392,24.5204082 L11.3190835,24.3632653 L11.5354253,24.1653061 L11.333438,23.9704082 L10.7377291,24.2255102 L10.5244633,24.6204082 L10.6075139,25.5204082 L11.2893494,27.1571429 L11.6225772,27.6704082 L11.8112354,27.7418367 L11.2893494,26.7632653 L11.1775899,26.2602041 L11.2934506,26.1367347 L11.2257797,25.8632653 L11.5354253,25.905102 L12.0142481,26.6285714 L12.1331848,26.6765306 L12.1198557,26.1469388 L12.3136405,26.2602041 L12.3577291,26.55 L12.8642354,26.6836735 L13.0723747,26.5316327 L13.1451722,26.5816327 L13.1369696,26.9653061 L13.3604886,27.2367347 L13.6291215,27.3 L14.2197038,28.294898 L14.5765139,28.3887755 L14.6892987,27.9265306 C15.3096152,28.95 16.0488684,29.894898 16.8814253,30.744898 L14.6329063,32.9816327 C11.4123873,29.7102041 9.38533671,25.2683673 9.27460253,20.3612245 L12.4530835,20.3612245 C12.4951215,21.7816327 12.7247924,23.155102 13.1256911,24.4571429 L13.1256911,24.4571429 Z M14.4985899,7.02244898 L16.7460835,9.25714286 C14.1274253,11.9938776 12.5012734,15.6806122 12.4500076,19.7357143 L9.27050127,19.7357143 C9.31971646,14.8071429 11.3037038,10.3306122 14.4985899,7.02244898 L14.4985899,7.02244898 Z M37.5312987,5.86428571 L37.3385392,5.55816327 L36.9222608,5.35 L36.5962101,5.59489796 L37.0145392,5.81326531 L37.4790076,6.15 L37.5312987,5.86428571 Z M35.6047291,14.8 L35.6160076,15.0479592 L36.1666025,14.8806122 L36.3378304,14.5479592 L35.9564127,14.05 L36.1563494,13.744898 L36.6731089,14.1132653 L36.7684633,14.0367347 L36.663881,13.9632653 L36.5490456,13.7438776 L36.7582101,13.622449 L36.5521215,13.3530612 L36.0702228,13.594898 L35.9030962,13.8857143 L35.8036405,14.1489796 L36.0169063,14.5030612 L35.9400076,14.6755102 L35.6047291,14.8 Z M12.5976532,29.0020408 L12.6366152,28.8602041 L12.3485013,28.2418367 L12.0111722,28.1153061 L12.5976532,29.0020408 Z M25.6068684,17.1030612 C25.6068684,17.6357143 25.932919,18.0081633 26.5235013,18.3316327 C26.5235013,18.3316327 26.5183747,18.2428571 26.5152987,18.0979592 L26.1451595,17.7265306 L26.3440709,17.3683673 L26.5019696,17.3265306 C26.4906911,16.705102 26.477362,16.0142857 26.4763367,15.9142857 L26.4476278,15.9183673 C25.9021595,16.2173469 25.6068684,16.5836735 25.6068684,17.1030612 L25.6068684,17.1030612 Z" id="Fill-1" fill="#0E7DC1"></path>
                    </g>
                    <path d="M29.1624608,34.0641837 C30.1590684,34.5672449 31.0798025,35.2590816 31.4673722,36.577449 C31.6334734,34.3958163 30.404119,33.4509184 29.1870684,32.8111224 C29.1870684,32.8141837 29.1593848,34.0641837 29.1624608,34.0641837" id="Fill-4" fill="#0E7DC1"></path>
                    <path d="M35.7975911,11.9317347 C35.7975911,9.95112245 34.3498443,7.75418367 30.8155785,6.97765306 C30.5551481,6.92153061 30.1542494,6.88173469 29.7348949,6.85112245 C29.728743,7.15112245 29.7143886,7.83785714 29.7143886,7.83785714 C29.7082367,8.05010204 29.6908063,8.84193878 29.6836291,9.01744898 C30.0107051,9.04193878 30.2547304,9.0827551 30.3654646,9.10622449 C32.4212241,9.59602041 33.1574013,10.7735714 33.1574013,11.9317347 C33.1574013,13.8123469 31.5394519,14.5235714 29.5554646,15.0592857 C29.3411734,15.1154082 29.1197051,15.1735714 28.8961861,15.2286735 C28.2974013,15.3786735 27.6740089,15.522551 27.0608696,15.6868367 C26.8424772,15.745 26.6240848,15.8062245 26.410819,15.8715306 C24.2115152,16.5409184 22.3167304,17.595 22.3167304,20.3031633 C22.3167304,22.9847959 24.4750215,23.9847959 26.5820468,24.6317347 C26.5687177,23.8592857 26.5523127,23.0847959 26.5379582,22.3052041 C25.6069709,21.872551 24.949743,21.3031633 24.949743,20.3378571 C24.949743,19.400102 25.5475025,18.8347959 26.4610595,18.4215306 C26.6650975,18.3327551 26.8855405,18.2460204 27.1111101,18.1684694 C27.6401734,17.9919388 28.2246038,17.8409184 28.8438949,17.6919388 C29.0592114,17.639898 29.2827304,17.5868367 29.5031734,17.5327551 C32.4714646,16.8184694 35.7975911,15.8939796 35.7975911,11.9317347" id="Fill-6" fill="#0E7DC1"></path>
                    <path d="M25.1359405,30.8431633 C25.1400418,31.9247959 25.9387633,32.5145918 26.7395354,32.9615306 C26.7374848,32.779898 26.7057,31.1033673 26.7057,31.0747959 C26.7241557,30.740102 27.0481557,30.540102 27.3126873,30.4166327 C27.6992316,30.2380612 28.0868013,30.1033673 28.5851051,29.929898 C28.8229785,29.8513265 29.0270165,29.7696939 29.255662,29.7013265 C30.8654089,29.2196939 32.7253329,28.6064286 32.7253329,26.6533673 C32.7253329,24.7033673 31.1309658,23.9043878 29.3838266,23.3033673 C29.3735734,23.9268367 29.3540924,24.8319388 29.3407633,25.462551 C30.0789911,25.7492857 30.5670418,26.1003061 30.5670418,26.6533673 C30.5670418,27.3513265 29.8154848,27.7533673 29.2853962,27.9564286 C29.0659785,28.0452041 28.7276241,28.1564286 28.6373962,28.1829592 C28.205738,28.3166327 27.7474215,28.4696939 27.3167886,28.6278571 C27.088143,28.7145918 26.8697506,28.8033673 26.6657127,28.9064286 C25.9100544,29.2931633 25.1287633,29.8564286 25.1359405,30.8431633" id="Fill-8" fill="#0E7DC1"></path>
                    <path d="M26.2240063,7.16326531 C25.1546013,7.46836735 24.5240316,7.86836735 24.2830823,7.95 C23.5899684,8.17857143 22.6118165,8.21734694 21.6018797,9.31428571 C21.4193734,9.50714286 20.9836139,10.055102 20.6719177,10.5040816 C20.3673987,10.944898 20.3550949,11.6479592 20.1274747,12.0214286 C19.8045,12.5683673 19.8855,12.8816327 19.8855,12.8816327 L19.8937025,12.8989796 C19.8783228,12.9663265 19.8178291,13.2571429 19.5215127,13.5857143 C19.1841835,13.9571429 18.7371456,14.1632653 18.2080823,14.0795918 C18.6674241,14.3091837 19.3072215,13.9867347 19.3072215,13.9867347 C19.3072215,13.9867347 19.1841835,14.3346939 19.0621709,14.9020408 C19.5779051,13.7326531 20.0536519,13.3122449 20.2012975,13.1918367 C20.4258418,13.2418367 20.8841582,13.2193878 21.7372215,12.7346939 C22.7040949,12.1857143 24.1549177,11.2806122 24.5660696,10.7142857 C25.007981,10.1 25.6159937,9.69183673 26.2762975,9.43061224 C26.2547658,8.57142857 26.2414367,7.80816327 26.2240063,7.16326531 L26.2240063,7.16326531 Z M22.1473481,10.794898 L21.6521203,10.9030612 L22.2478291,9.93469388 L22.9460696,9.95714286 L22.1473481,10.794898 Z" id="Fill-10" fill="#0E7DC1"></path>
                    <path d="M28.2170165,30.7115306 C28.1267886,30.740102 27.8827633,30.8431633 27.7289658,30.8962245 C27.5690165,30.9564286 27.3660038,31.035 27.3660038,31.0931633 C27.3660038,31.1094898 27.5187759,39.4931633 27.5187759,39.6747959 C27.5187759,41.4013265 28.4025987,41.4115306 28.4025987,39.6747959 C28.4025987,39.5533673 28.5810038,30.5880612 28.5810038,30.5880612 C28.5810038,30.5880612 28.3687633,30.6564286 28.2170165,30.7115306" id="Fill-12" fill="#0E7DC1"></path>
                    <path d="M28.107,27.6854082 C28.2997595,27.6241837 28.4791899,27.5690816 28.6432405,27.5190816 C28.6524684,26.9905102 28.8011392,19.6935714 28.8308734,18.3660204 C28.1726203,18.5303061 27.601519,18.6843878 27.1267975,18.8537755 C27.1493544,19.8507143 27.2898228,27.1456122 27.3041772,27.9405102 C27.578962,27.8486735 27.8527215,27.7619388 28.107,27.6854082 Z" id="Fill-14" fill="#0E7DC1"></path>
                    <path d="M28.0399443,0 C25.5586785,0 26.6127038,3.66326531 26.8085392,4.85816327 C26.8177671,4.91326531 27.0084759,13.1316327 27.0484633,15.0163265 C27.4268051,14.9193878 27.7989949,14.8255102 28.161957,14.7387755 C28.421362,14.6755102 28.6735899,14.6102041 28.9114633,14.5510204 C28.9504253,12.7367347 29.1319063,4.89183673 29.1390835,4.83979592 C29.2857038,3.56632653 30.5847797,0 28.0399443,0" id="Fill-16" fill="#0E7DC1"></path>
                </g>
            </g>
        </g>
    </g>
</svg>