<?xml version="1.0" encoding="UTF-8" standalone="no"?>
<svg width="42px" height="48px" viewBox="0 0 42 48" version="1.1" xmlns="http://www.w3.org/2000/svg" xmlns:xlink="http://www.w3.org/1999/xlink">
    <!-- Generator: Sketch 3.8.3 (29802) - http://www.bohemiancoding.com/sketch -->
    <title>image-icon</title>
    <desc>Created with Sketch.</desc>
    <defs></defs>
    <g id="Page-1" stroke="none" stroke-width="1" fill="none" fill-rule="evenodd">
        <g id="image-icon">
            <g transform="translate(5.000000, 0.000000)">
                <path d="M16.0869565,28.8000488 L24.1304348,22.4249512 L28.9565217,30.8062989 L28.9565217,17.600049 L8.04347826,17.600049 L8.04347826,30.6326661 L11.2608696,24.6978027 L16.0869565,28.8000488 L16.0869565,28.8000488 Z M15.2826087,19.2000488 C16.6153008,19.2000488 17.6956522,20.2745605 17.6956522,21.6000488 C17.6956522,22.9255371 16.6153008,24.0000488 15.2826087,24.0000488 C13.9499166,24.0000488 12.8695652,22.9255371 12.8695652,21.6000488 C12.8695652,20.2745605 13.9499166,19.2000488 15.2826087,19.2000488 L15.2826087,19.2000488 Z" id="Shape" fill="#FFFFFF"></path>
                <path d="M25.7391304,9.6000488 L25.7391304,1.6000488 L1.60869565,1.6000488 L1.60869565,46.4000488 L35.3913043,46.4000488 L35.3913043,11.2000488 L27.3478261,11.2000488 C26.4594302,11.2000488 25.7391304,10.4836426 25.7391304,9.6000488 L25.7391304,9.6000488 Z M30.5652174,33.6000488 L6.43478261,33.6000488 L6.43478261,16.0000488 L30.5652174,16.0000488 L30.5652174,33.6000488 L30.5652174,33.6000488 Z" id="Shape" fill="#FFFFFF"></path>
                <path d="M36.9798717,9.49965824 C36.955423,9.11899424 36.8113828,8.74965824 36.5288007,8.46870128 L28.4853224,0.46870128 C28.1776043,0.16254896 27.7661027,-4.88000001e-05 27.3474334,-4.88000001e-05 C27.3474334,-4.88000001e-05 27.3471389,4.87999999e-05 27.3469424,4.87999999e-05 L0.804347826,4.87999999e-05 C0.359757113,4.87999999e-05 0,0.35786128 0,0.8000488 L0,47.2000488 C0,47.6422363 0.359757113,48.0000488 0.804347826,48.0000488 L36.1956522,48.0000488 C36.6402429,48.0000488 37,47.6422363 37,47.2000488 L37,9.6000488 C37,9.5651856 36.9843883,9.53374016 36.9798717,9.49965824 L36.9798717,9.49965824 Z M35.3913043,46.4000488 L1.60869565,46.4000488 L1.60869565,1.6000488 L25.7391304,1.6000488 L25.7391304,9.6000488 C25.7391304,10.4836426 26.4594302,11.2000488 27.3478261,11.2000488 L35.3913043,11.2000488 L35.3913043,46.4000488 L35.3913043,46.4000488 Z M27.3478261,9.6000488 L27.3478261,1.6000488 L35.3913043,9.6000488 L27.3478261,9.6000488 L27.3478261,9.6000488 Z" id="Shape" fill="#C8C8C8"></path>
                <polygon id="Shape" fill="#E6E6E6" points="27.3478261 1.6000488 27.3478261 9.6000488 35.3913043 9.6000488"></polygon>
                <path d="M6.43478261,33.6000488 L30.5652174,33.6000488 L30.5652174,16.0000488 L6.43478261,16.0000488 L6.43478261,33.6000488 L6.43478261,33.6000488 Z M8.04347826,17.6000488 L28.9565217,17.6000488 L28.9565217,30.8062987 L24.1304348,22.424951 L16.0869565,28.8000486 L11.2608696,24.6978026 L8.04347826,30.6326659 L8.04347826,17.6000488 L8.04347826,17.6000488 Z" id="Shape" fill="#4A90E2"></path>
                <ellipse id="Oval" fill="#4A90E2" cx="15.2826087" cy="21.6000488" rx="2.41304348" ry="2.4"></ellipse>
            </g>
        </g>
    </g>
</svg>