<?xml version="1.0" encoding="UTF-8" standalone="no"?>
<svg width="42px" height="48px" viewBox="0 0 42 48" version="1.1" xmlns="http://www.w3.org/2000/svg" xmlns:xlink="http://www.w3.org/1999/xlink">
    <!-- Generator: Sketch 3.8.3 (29802) - http://www.bohemiancoding.com/sketch -->
    <title>ms_powerpoint-icon</title>
    <desc>Created with Sketch.</desc>
    <defs></defs>
    <g id="Page-1" stroke="none" stroke-width="1" fill="none" fill-rule="evenodd">
        <g id="ms_powerpoint-icon">
            <g>
                <path d="M30.6923077,9.60004272 L30.6923077,1.60004272 L6.46153846,1.60004272 L6.46153846,8.00004272 L15.3461538,8.00004272 C15.7925932,8.00004272 16.1538462,8.3578552 16.1538462,8.80004272 L16.1538462,23.2000427 C16.1538462,23.6422302 15.7925932,24.0000427 15.3461538,24.0000427 L6.46153846,24.0000427 L6.46153846,46.4000427 L40.3846154,46.4000427 L40.3846154,11.2000427 L32.3076923,11.2000427 C31.4155039,11.2000427 30.6923077,10.4836365 30.6923077,9.60004272 L30.6923077,9.60004272 Z" id="Shape" fill="#FFFFFF"></path>
                <path d="M41.979788,9.49965216 C41.9552377,9.11898816 41.8105986,8.74965216 41.5268414,8.46859744 L33.4499183,0.46859744 C33.1409208,0.16254272 32.7277081,-5.48799999e-05 32.307298,-5.48799999e-05 C32.307298,-5.48799999e-05 32.3070022,4.27200001e-05 32.306805,4.27200001e-05 L5.65384615,4.27200001e-05 C5.20740683,4.27200001e-05 4.84615385,0.3578552 4.84615385,0.80004272 L4.84615385,8.00004272 L0.807692308,8.00004272 C0.361252985,8.00004272 0,8.3578552 0,8.80004272 L0,23.2000427 C0,23.6422302 0.361252985,24.0000427 0.807692308,24.0000427 L4.84615385,24.0000427 L4.84615385,47.2000427 C4.84615385,47.6422302 5.20740683,48.0000427 5.65384615,48.0000427 L41.1923077,48.0000427 C41.638747,48.0000427 42,47.6422302 42,47.2000427 L42,9.60004272 C42,9.56517952 41.9843233,9.53373408 41.979788,9.49965216 L41.979788,9.49965216 Z M40.3846154,46.4000427 L6.46153846,46.4000427 L6.46153846,24.0000427 L15.3461538,24.0000427 C15.7925932,24.0000427 16.1538462,23.6422302 16.1538462,23.2000427 L16.1538462,8.80004272 C16.1538462,8.3578552 15.7925932,8.00004272 15.3461538,8.00004272 L6.46153846,8.00004272 L6.46153846,1.60004272 L30.6923077,1.60004272 L30.6923077,9.60004272 C30.6923077,10.4836365 31.4155039,11.2000427 32.3076923,11.2000427 L40.3846154,11.2000427 L40.3846154,46.4000427 L40.3846154,46.4000427 Z M1.61538462,9.60004272 L14.5384615,9.60004272 L14.5384615,22.4000427 L1.61538462,22.4000427 L1.61538462,9.60004272 L1.61538462,9.60004272 Z M32.3076923,9.60004272 L32.3076923,1.60004272 L40.3846154,9.60004272 L32.3076923,9.60004272 L32.3076923,9.60004272 Z" id="Shape" fill="#C8C8C8"></path>
                <path d="M22,31 L15,31 C15.2555712,27.2506685 18.2506685,24.2555712 22,24 L22,31 L22,31 Z" id="Shape" fill="#B3B3B3"></path>
                <path d="M15,32.5419899 L21.97943,32.5419899 L23.5417704,32.5419899 L23.5417704,24 C27.9252181,24.2988757 31.3407661,28.1215571 30.9728317,32.6582807 C30.6579328,36.5411792 27.5075628,39.6760596 23.6238098,39.9754878 C21.5435436,40.1359747 19.6168596,39.4989993 18.1119744,38.3407867 C17.9733084,38.2341638 17.8429292,38.1170443 17.7155886,37.9968863 L17.2943422,37.5985695 C17.1670015,37.4784115 17.0426994,37.3546626 16.9283413,37.2220745 C15.8284051,35.948676 15.1215399,34.3261288 15,32.5419899 Z" id="Shape" fill="#B3B3B3"></path>
                <polygon id="Shape" fill="#E6E6E6" points="32.3076923 1.60004272 32.3076923 9.60004272 40.3846154 9.60004272"></polygon>
                <polygon id="Shape" fill="#FFFFFF" points="14.5384615 22.4000427 14.5384615 9.60004272 1.61538462 9.60004272 1.61538462 22.4000427"></polygon>
                <path d="M14.5384615,22.4000427 L14.5384615,9.60004272 L1.61538462,9.60004272 L1.61538462,22.4000427 L14.5384615,22.4000427 Z M9.68408203,14.2919922 C9.48714094,14.1324862 9.21126479,14.0527344 8.85644531,14.0527344 L7.45507812,14.0527344 L7.45507812,16.171875 L8.85644531,16.171875 C9.21126479,16.171875 9.48714094,16.0856128 9.68408203,15.9130859 C9.88102312,15.740559 9.97949219,15.4671243 9.97949219,15.0927734 C9.97949219,14.7184226 9.88102312,14.4514982 9.68408203,14.2919922 Z M10.8242188,16.8847656 C10.3945291,17.2363299 9.78092847,17.4121094 8.98339844,17.4121094 L7.45507812,17.4121094 L7.45507812,20 L5.9609375,20 L5.9609375,12.8027344 L9.09570312,12.8027344 C9.81836299,12.8027344 10.3945291,12.9882794 10.8242188,13.359375 C11.2539084,13.7304706 11.46875,14.3050091 11.46875,15.0830078 C11.46875,15.9326214 11.2539084,16.5332014 10.8242188,16.8847656 Z" id="Combined-Shape" fill="#E16042"></path>
            </g>
        </g>
    </g>
</svg>