<?xml version="1.0" encoding="UTF-8" standalone="no"?>
<svg width="42px" height="48px" viewBox="0 0 42 48" version="1.1" xmlns="http://www.w3.org/2000/svg" xmlns:xlink="http://www.w3.org/1999/xlink">
    <!-- Generator: Sketch 3.8.3 (29802) - http://www.bohemiancoding.com/sketch -->
    <title>ms_word-icon</title>
    <desc>Created with Sketch.</desc>
    <defs></defs>
    <g id="Page-1" stroke="none" stroke-width="1" fill="none" fill-rule="evenodd">
        <g id="ms_word-icon">
            <g>
                <path d="M30.6923077,9.60004272 L30.6923077,1.60004272 L6.46153846,1.60004272 L6.46153846,8.00004272 L15.3461538,8.00004272 C15.7925932,8.00004272 16.1538462,8.3578552 16.1538462,8.80004272 L16.1538462,23.2000427 C16.1538462,23.6422302 15.7925932,24.0000427 15.3461538,24.0000427 L6.46153846,24.0000427 L6.46153846,46.4000427 L40.3846154,46.4000427 L40.3846154,11.2000427 L32.3076923,11.2000427 C31.4155039,11.2000427 30.6923077,10.4836365 30.6923077,9.60004272 L30.6923077,9.60004272 Z M37.1538462,43.2000427 L9.69230769,43.2000427 L9.69230769,40.0000427 L37.1538462,40.0000427 L37.1538462,43.2000427 L37.1538462,43.2000427 Z M37.1538462,36.8000427 L9.69230769,36.8000427 L9.69230769,33.6000427 L37.1538462,33.6000427 L37.1538462,36.8000427 L37.1538462,36.8000427 Z M37.1538462,30.4000427 L9.69230769,30.4000427 L9.69230769,27.2000427 L37.1538462,27.2000427 L37.1538462,30.4000427 L37.1538462,30.4000427 Z M37.1538462,24.0000427 L19.3846154,24.0000427 L19.3846154,20.8000427 L37.1538462,20.8000427 L37.1538462,24.0000427 L37.1538462,24.0000427 Z M37.1538462,17.6000427 L19.3846154,17.6000427 L19.3846154,14.4000427 L37.1538462,14.4000427 L37.1538462,17.6000427 L37.1538462,17.6000427 Z" id="Shape" fill="#FFFFFF"></path>
                <path d="M41.979788,9.49970704 C41.9552377,9.11904304 41.8105986,8.74970704 41.5268414,8.46865232 L33.4499183,0.46865232 C33.1409208,0.1625976 32.7277081,0 32.307298,0 C32.307298,0 32.3070022,9.76e-05 32.306805,9.76e-05 L5.65384615,9.76e-05 C5.20740683,9.76e-05 4.84615385,0.35791008 4.84615385,0.8000976 L4.84615385,8.0000976 L0.807692308,8.0000976 C0.361252985,8.0000976 0,8.35791008 0,8.8000976 L0,23.2000976 C0,23.6422851 0.361252985,24.0000976 0.807692308,24.0000976 L4.84615385,24.0000976 L4.84615385,47.2000976 C4.84615385,47.6422851 5.20740683,48.0000976 5.65384615,48.0000976 L41.1923077,48.0000976 C41.638747,48.0000976 42,47.6422851 42,47.2000976 L42,9.6000976 C42,9.5652344 41.9843233,9.53378896 41.979788,9.49970704 Z" id="Shape" fill="#FFFFFF"></path>
                <path d="M41.979788,9.49965216 C41.9552377,9.11898816 41.8105986,8.74965216 41.5268414,8.46859744 L33.4499183,0.46859744 C33.1409208,0.16254272 32.7277081,-5.48799999e-05 32.307298,-5.48799999e-05 C32.307298,-5.48799999e-05 32.3070022,4.27200001e-05 32.306805,4.27200001e-05 L5.65384615,4.27200001e-05 C5.20740683,4.27200001e-05 4.84615385,0.3578552 4.84615385,0.80004272 L4.84615385,8.00004272 L0.807692308,8.00004272 C0.361252985,8.00004272 0,8.3578552 0,8.80004272 L0,23.2000427 C0,23.6422302 0.361252985,24.0000427 0.807692308,24.0000427 L4.84615385,24.0000427 L4.84615385,47.2000427 C4.84615385,47.6422302 5.20740683,48.0000427 5.65384615,48.0000427 L41.1923077,48.0000427 C41.638747,48.0000427 42,47.6422302 42,47.2000427 L42,9.60004272 C42,9.56517952 41.9843233,9.53373408 41.979788,9.49965216 L41.979788,9.49965216 Z M40.3846154,46.4000427 L6.46153846,46.4000427 L6.46153846,24.0000427 L15.3461538,24.0000427 C15.7925932,24.0000427 16.1538462,23.6422302 16.1538462,23.2000427 L16.1538462,8.80004272 C16.1538462,8.3578552 15.7925932,8.00004272 15.3461538,8.00004272 L6.46153846,8.00004272 L6.46153846,1.60004272 L30.6923077,1.60004272 L30.6923077,9.60004272 C30.6923077,10.4836365 31.4155039,11.2000427 32.3076923,11.2000427 L40.3846154,11.2000427 L40.3846154,46.4000427 L40.3846154,46.4000427 Z M1.61538462,9.60004272 L14.5384615,9.60004272 L14.5384615,22.4000427 L1.61538462,22.4000427 L1.61538462,9.60004272 L1.61538462,9.60004272 Z M32.3076923,9.60004272 L32.3076923,1.60004272 L40.3846154,9.60004272 L32.3076923,9.60004272 L32.3076923,9.60004272 Z" id="Shape" fill="#C8C8C8"></path>
                <polygon id="Shape" fill="#E6E6E6" points="32.3076923 1.60004272 32.3076923 9.60004272 40.3846154 9.60004272"></polygon>
                <polygon id="Shape" fill="#FFFFFF" points="14.5384615 22.4000427 14.5384615 9.60004272 1.61538462 9.60004272 1.61538462 22.4000427"></polygon>
                <path d="M14.5384615,22.4000427 L14.5384615,9.60004272 L1.61538462,9.60004272 L1.61538462,22.4000427 L14.5384615,22.4000427 Z M5.2120643,12.6000427 L6.16421274,16.7211365 L6.36929087,17.8685974 L6.5792518,16.7455505 L7.38979868,12.6000427 L8.97671274,12.6000427 L9.83120493,16.7211365 L10.0509315,17.8685974 L10.2706581,16.7650818 L11.2325721,12.6000427 L12.7608924,12.6000427 L10.7345252,19.7973083 L9.29897837,19.7973083 L8.42983774,15.588324 L8.17593149,14.1967224 L7.92202524,15.588324 L7.05288462,19.7973083 L5.65640024,19.7973083 L3.61538462,12.6000427 L5.2120643,12.6000427 Z" id="Combined-Shape" fill="#0071BC"></path>
                <rect id="Rectangle-path" fill="#B3B3B3" x="19.3846154" y="14.4000427" width="17.7692308" height="3.2"></rect>
                <rect id="Rectangle-path" fill="#B3B3B3" x="19.3846154" y="20.8000427" width="17.7692308" height="3.2"></rect>
                <rect id="Rectangle-path" fill="#B3B3B3" x="9.69230769" y="27.2000427" width="27.4615385" height="3.2"></rect>
                <rect id="Rectangle-path" fill="#B3B3B3" x="9.69230769" y="33.6000427" width="27.4615385" height="3.2"></rect>
                <rect id="Rectangle-path" fill="#B3B3B3" x="9.69230769" y="40.0000427" width="27.4615385" height="3.2"></rect>
            </g>
        </g>
    </g>
</svg>