<?xml version="1.0" encoding="UTF-8" standalone="no"?>
<svg width="42px" height="48px" viewBox="0 0 42 48" version="1.1" xmlns="http://www.w3.org/2000/svg" xmlns:xlink="http://www.w3.org/1999/xlink">
    <!-- Generator: Sketch 3.8.3 (29802) - http://www.bohemiancoding.com/sketch -->
    <title>pdf-icon</title>
    <desc>Created with Sketch.</desc>
    <defs></defs>
    <g id="Page-1" stroke="none" stroke-width="1" fill="none" fill-rule="evenodd">
        <g id="pdf-icon">
            <g>
                <path d="M30.6923077,9.60004272 L30.6923077,1.60004272 L6.46153846,1.60004272 L6.46153846,8.00004272 L28.2692308,8.00004272 C28.7156701,8.00004272 29.0769231,8.3578552 29.0769231,8.80004272 L29.0769231,20.0000427 C29.0769231,20.4422302 28.7156701,20.8000427 28.2692308,20.8000427 L6.46153846,20.8000427 L6.46153846,46.4000427 L40.3846154,46.4000427 L40.3846154,11.2000427 L32.3076923,11.2000427 C31.4156025,11.2000427 30.6923077,10.4836365 30.6923077,9.60004272 L30.6923077,9.60004272 Z" id="Shape" fill="#FFFFFF"></path>
                <path d="M41.979788,9.49965216 C41.9552377,9.11898816 41.8105986,8.74965216 41.5268414,8.46859744 L33.4499183,0.46859744 C33.1409208,0.16254272 32.7277081,-5.48799999e-05 32.307298,-5.48799999e-05 C32.307298,-5.48799999e-05 32.3070022,4.27200001e-05 32.306805,4.27200001e-05 L5.65384615,4.27200001e-05 C5.20740683,4.27200001e-05 4.84615385,0.3578552 4.84615385,0.80004272 L4.84615385,8.00004272 L0.807692308,8.00004272 C0.361252985,8.00004272 0,8.3578552 0,8.80004272 L0,20.0000427 C0,20.4422302 0.361252985,20.8000427 0.807692308,20.8000427 L4.84615385,20.8000427 L4.84615385,47.2000427 C4.84615385,47.6422302 5.20740683,48.0000427 5.65384615,48.0000427 L41.1923077,48.0000427 C41.638747,48.0000427 42,47.6422302 42,47.2000427 L42,9.60004272 C42,9.56517952 41.9843233,9.53373408 41.979788,9.49965216 L41.979788,9.49965216 Z M40.3846154,46.4000427 L6.46153846,46.4000427 L6.46153846,20.8000427 L28.2692308,20.8000427 C28.7156701,20.8000427 29.0769231,20.4422302 29.0769231,20.0000427 L29.0769231,8.80004272 C29.0769231,8.3578552 28.7156701,8.00004272 28.2692308,8.00004272 L6.46153846,8.00004272 L6.46153846,1.60004272 L30.6923077,1.60004272 L30.6923077,9.60004272 C30.6923077,10.4836365 31.4156025,11.2000427 32.3076923,11.2000427 L40.3846154,11.2000427 L40.3846154,46.4000427 L40.3846154,46.4000427 Z M1.61538462,9.60004272 L27.4615385,9.60004272 L27.4615385,19.2000427 L1.61538462,19.2000427 L1.61538462,9.60004272 L1.61538462,9.60004272 Z M32.3076923,9.60004272 L32.3076923,1.60004272 L40.3846154,9.60004272 L32.3076923,9.60004272 L32.3076923,9.60004272 Z" id="Shape" fill="#C8C8C8"></path>
                <polygon id="Path" fill="#FFFFFF" points="27.4615385 19.2000427 27.4615385 9.60004272 1.61538462 9.60004272 1.61538462 19.2000427"></polygon>
                <polygon id="Shape" fill="#E6E6E6" points="32.3076923 1.60004272 32.3076923 9.60004272 40.3846154 9.60004272"></polygon>
                <path d="M8.22521038,13.4750427 C8.22521038,12.9578552 7.91759317,12.6250427 7.38912268,12.6250427 L6.51044165,12.6250427 L6.51044165,14.3391053 L7.37492474,14.3391053 C7.91759317,14.3391053 8.22521038,14.0000427 8.22521038,13.4750427 L8.22521038,13.4750427 Z" id="Shape" fill="#E62F32"></path>
                <path d="M15.6427284,14.3469178 C15.6427284,13.2281677 14.9707032,12.6250427 13.9547777,12.6250427 L13.191256,12.6250427 L13.191256,16.0812926 L13.9547775,16.0812926 C14.9849009,16.0812928 15.6427284,15.4781677 15.6427284,14.3469178 L15.6427284,14.3469178 Z" id="Shape" fill="#E62F32"></path>
                <path d="M27.4615385,19.2000427 L27.4615385,9.60004272 L1.61538462,9.60004272 L1.61538462,19.2000427 L27.4615385,19.2000427 L27.4615385,19.2000427 Z M19.8452523,12.1375427 C19.8452523,11.9469178 19.9446363,11.8406677 20.1370943,11.8406677 L22.4607873,11.8406677 C22.6532452,11.8406677 22.7605169,11.9469176 22.7605169,12.1375427 L22.7605169,12.3344178 C22.7605169,12.5266053 22.6532454,12.6250427 22.4607873,12.6250427 L20.7602163,12.6250427 L20.7602163,14.0484802 L22.1468599,14.0484802 C22.3393178,14.0484802 22.4465895,14.1469176 22.4465895,14.3391051 L22.4465895,14.5375426 C22.4465895,14.7281675 22.339318,14.8344176 22.1468599,14.8344176 L20.7602163,14.8344176 L20.7602163,16.5687926 C20.7602163,16.7672301 20.6592548,16.8656677 20.4667969,16.8656677 L20.1370943,16.8656677 C19.9446364,16.8656677 19.8452523,16.7672302 19.8452523,16.5687926 L19.8452523,12.1375427 L19.8452523,12.1375427 Z M12.2762921,12.1375427 C12.2762921,11.9469178 12.3756761,11.8406677 12.5681341,11.8406677 L14.0052585,11.8406677 C15.5701623,11.8406677 16.5923979,12.7594178 16.5923979,14.3469176 C16.5923979,15.9312926 15.5701623,16.8656677 14.0052585,16.8656677 L12.568134,16.8656677 C12.3756761,16.8656677 12.2762919,16.7672302 12.2762919,16.5687926 L12.2762919,12.1375427 L12.2762921,12.1375427 Z M5.59547778,12.1375427 C5.59547778,11.9469178 5.69486174,11.8406677 5.88731979,11.8406677 L7.546875,11.8406677 C8.49654443,11.8406677 9.16225962,12.4969176 9.16225962,13.4750427 C9.16225962,14.4531678 8.49654443,15.1312926 7.546875,15.1312926 L6.51044165,15.1312926 L6.51044165,16.5687926 C6.51044165,16.7672301 6.40948011,16.8656677 6.21702222,16.8656677 L5.88731963,16.8656677 C5.69486174,16.8656677 5.59547762,16.7672302 5.59547762,16.5687926 L5.59547762,12.1375427 L5.59547778,12.1375427 Z" id="Shape" fill="#E62F32"></path>
                <path d="M5.88731963,16.8656677 L6.21702222,16.8656677 C6.40948011,16.8656677 6.51044165,16.7672302 6.51044165,16.5687926 L6.51044165,15.1312928 L7.546875,15.1312928 C8.49654443,15.1312928 9.16225962,14.4531678 9.16225962,13.4750429 C9.16225962,12.4969179 8.49654443,11.8406678 7.546875,11.8406678 L5.88731963,11.8406678 C5.69486174,11.8406678 5.59547762,11.9469178 5.59547762,12.1375429 L5.59547762,16.5687928 C5.59547778,16.7672302 5.69486174,16.8656677 5.88731963,16.8656677 L5.88731963,16.8656677 Z M6.51044165,12.6250427 L7.38912252,12.6250427 C7.91759301,12.6250427 8.22521022,12.9578552 8.22521022,13.4750427 C8.22521022,14.0000427 7.91759301,14.3391053 7.37492474,14.3391053 L6.51044165,14.3391053 L6.51044165,12.6250427 L6.51044165,12.6250427 Z" id="Shape" fill="#FFFFFF"></path>
                <path d="M12.568134,16.8656677 L14.0052583,16.8656677 C15.5701621,16.8656677 16.5923977,15.9312926 16.5923977,14.3469176 C16.5923977,12.7594176 15.5701621,11.8406677 14.0052583,11.8406677 L12.568134,11.8406677 C12.3756761,11.8406677 12.2762919,11.9469176 12.2762919,12.1375427 L12.2762919,16.5687926 C12.2762921,16.7672302 12.3756761,16.8656677 12.568134,16.8656677 L12.568134,16.8656677 Z M13.191256,12.6250427 L13.9547775,12.6250427 C14.9707029,12.6250427 15.6427283,13.2281677 15.6427283,14.3469178 C15.6427283,15.4781677 14.9849007,16.0812928 13.9547775,16.0812928 L13.191256,16.0812928 L13.191256,12.6250427 L13.191256,12.6250427 Z" id="Shape" fill="#FFFFFF"></path>
                <path d="M20.1370943,16.8656677 L20.4667969,16.8656677 C20.6592548,16.8656677 20.7602163,16.7672302 20.7602163,16.5687926 L20.7602163,14.8344178 L22.1468599,14.8344178 C22.3393178,14.8344178 22.4465895,14.7281678 22.4465895,14.5375427 L22.4465895,14.3391053 C22.4465895,14.1469178 22.339318,14.0484803 22.1468599,14.0484803 L20.7602163,14.0484803 L20.7602163,12.6250427 L22.4607873,12.6250427 C22.6532452,12.6250427 22.7605169,12.5266053 22.7605169,12.3344178 L22.7605169,12.1375427 C22.7605169,11.9469178 22.6532454,11.8406677 22.4607873,11.8406677 L20.1370943,11.8406677 C19.9446364,11.8406677 19.8452523,11.9469176 19.8452523,12.1375427 L19.8452523,16.5687926 C19.8452523,16.7672302 19.9446364,16.8656677 20.1370943,16.8656677 L20.1370943,16.8656677 Z" id="Shape" fill="#FFFFFF"></path>
            </g>
        </g>
    </g>
</svg>