<?xml version="1.0" encoding="UTF-8" standalone="no"?>
<svg width="42px" height="48px" viewBox="0 0 42 48" version="1.1" xmlns="http://www.w3.org/2000/svg" xmlns:xlink="http://www.w3.org/1999/xlink">
    <!-- Generator: Sketch 3.8.3 (29802) - http://www.bohemiancoding.com/sketch -->
    <title>postscript-icon</title>
    <desc>Created with Sketch.</desc>
    <defs></defs>
    <g id="Page-1" stroke="none" stroke-width="1" fill="none" fill-rule="evenodd">
        <g id="postscript-icon">
            <g transform="translate(5.000000, 0.000000)" id="Shape">
                <path d="M25.7391304,9.60004272 L25.7391304,1.60004272 L1.60869565,1.60004272 L1.60869565,46.4000427 L35.3913043,46.4000427 L35.3913043,11.2000427 L27.3478261,11.2000427 C26.4594302,11.2000427 25.7391304,10.4836365 25.7391304,9.60004272 L25.7391304,9.60004272 Z M14.0870838,23.8312928 L9.30812668,25.7187928 L9.30812668,25.7469178 L14.0870838,27.6187928 L14.0870838,29.7078554 L6.78825567,26.4969179 L6.78825567,24.9547304 L14.0870838,21.7422304 L14.0870838,23.8312928 L14.0870838,23.8312928 Z M17.6893683,30.4719178 L15.604662,30.4719178 L19.3122028,19.0625427 L21.3969089,19.0625427 L17.6893683,30.4719178 L17.6893683,30.4719178 Z M30.2148863,26.4969178 L22.9160581,29.7078552 L22.9160581,27.6187926 L27.6950153,25.7469176 L27.6950153,25.7187926 L22.9160581,23.8312926 L22.9160581,21.7422301 L30.2148863,24.9547301 L30.2148863,26.4969178 L30.2148863,26.4969178 Z" fill="#FFFFFF"></path>
                <path d="M36.9798717,9.49965216 C36.955423,9.11898816 36.8113828,8.74965216 36.5288007,8.46859744 L28.4853224,0.46859744 C28.1776043,0.16254272 27.7661027,-5.48799999e-05 27.3474334,-5.48799999e-05 C27.3474334,-5.48799999e-05 27.3471389,4.27200001e-05 27.3469424,4.27200001e-05 L0.804347826,4.27200001e-05 C0.359757113,4.27200001e-05 0,0.3578552 0,0.80004272 L0,47.2000427 C0,47.6422302 0.359757113,48.0000427 0.804347826,48.0000427 L36.1956522,48.0000427 C36.6402429,48.0000427 37,47.6422302 37,47.2000427 L37,9.60004272 C37,9.56517952 36.9843883,9.53373408 36.9798717,9.49965216 L36.9798717,9.49965216 Z M35.3913043,46.4000427 L1.60869565,46.4000427 L1.60869565,1.60004272 L25.7391304,1.60004272 L25.7391304,9.60004272 C25.7391304,10.4836365 26.4594302,11.2000427 27.3478261,11.2000427 L35.3913043,11.2000427 L35.3913043,46.4000427 L35.3913043,46.4000427 Z M27.3478261,9.60004272 L27.3478261,1.60004272 L35.3913043,9.60004272 L27.3478261,9.60004272 L27.3478261,9.60004272 Z" fill="#C8C8C8"></path>
                <polygon fill="#E6E6E6" points="27.3478261 1.60004272 27.3478261 9.60004272 35.3913043 9.60004272"></polygon>
                <polygon fill="#5B5858" points="6.78825583 26.4969178 14.0870838 29.7078552 14.0870838 27.6187928 9.30812668 25.7469178 9.30812668 25.7187928 14.0870838 23.8312928 14.0870838 21.7422302 6.78825583 24.9547302"></polygon>
                <polygon fill="#5B5858" points="15.604662 30.4719178 17.6893683 30.4719178 21.3969089 19.0625427 19.3122028 19.0625427"></polygon>
                <polygon fill="#5B5858" points="22.9160581 23.8312928 27.6950153 25.7187928 27.6950153 25.7469178 22.9160581 27.6187928 22.9160581 29.7078552 30.2148863 26.4969178 30.2148863 24.9547302 22.9160581 21.7422302"></polygon>
            </g>
        </g>
    </g>
</svg>