<?xml version="1.0" encoding="UTF-8" standalone="no"?>
<svg width="42px" height="48px" viewBox="0 0 42 48" version="1.1" xmlns="http://www.w3.org/2000/svg" xmlns:xlink="http://www.w3.org/1999/xlink">
    <!-- Generator: Sketch 3.8.3 (29802) - http://www.bohemiancoding.com/sketch -->
    <title>video-icon</title>
    <desc>Created with Sketch.</desc>
    <defs></defs>
    <g id="Page-1" stroke="none" stroke-width="1" fill="none" fill-rule="evenodd">
        <g id="video-icon">
            <g transform="translate(5.000000, 0.000000)">
                <path d="M25.7391304,9.60004272 L25.7391304,1.60004272 L1.60869565,1.60004272 L1.60869565,46.4000427 L35.3913043,46.4000427 L35.3913043,11.2000427 L27.3478261,11.2000427 C26.4594302,11.2000427 25.7391304,10.4836365 25.7391304,9.60004272 L25.7391304,9.60004272 Z" id="Shape" fill="#FFFFFF"></path>
                <path d="M36.9798717,9.49965216 C36.955423,9.11898816 36.8113828,8.74965216 36.5288007,8.46859744 L28.4853224,0.46859744 C28.1776043,0.16254272 27.7661027,-5.48799999e-05 27.3474334,-5.48799999e-05 C27.3474334,-5.48799999e-05 27.3471389,4.27200001e-05 27.3469424,4.27200001e-05 L0.804347826,4.27200001e-05 C0.359757113,4.27200001e-05 0,0.3578552 0,0.80004272 L0,47.2000427 C0,47.6422302 0.359757113,48.0000427 0.804347826,48.0000427 L36.1956522,48.0000427 C36.6402429,48.0000427 37,47.6422302 37,47.2000427 L37,9.60004272 C37,9.56517952 36.9843883,9.53373408 36.9798717,9.49965216 L36.9798717,9.49965216 Z M35.3913043,46.4000427 L1.60869565,46.4000427 L1.60869565,1.60004272 L25.7391304,1.60004272 L25.7391304,9.60004272 C25.7391304,10.4836365 26.4594302,11.2000427 27.3478261,11.2000427 L35.3913043,11.2000427 L35.3913043,46.4000427 L35.3913043,46.4000427 Z M27.3478261,9.60004272 L27.3478261,1.60004272 L35.3913043,9.60004272 L27.3478261,9.60004272 L27.3478261,9.60004272 Z" id="Shape" fill="#C8C8C8"></path>
                <polygon id="Shape" fill="#E6E6E6" points="27.3478261 1.60004272 27.3478261 9.60004272 35.3913043 9.60004272"></polygon>
                <path d="M19,36 C24.5228475,36 29,31.5228475 29,26 C29,20.4771525 24.5228475,16 19,16 C13.4771525,16 9,20.4771525 9,26 C9,31.5228475 13.4771525,36 19,36 Z M24.8745806,25.7647059 L16.4552258,20.0502815 C16.3660968,19.9899943 16.2505484,19.9837085 16.1553226,20.0325668 C16.0598065,20.0819966 16,20.1791418 16,20.2854301 L16,31.7142788 C16,31.8205671 16.0598065,31.917998 16.1553226,31.9674278 C16.1977097,31.9891426 16.2441613,32 16.2903226,32 C16.3480968,32 16.4055806,31.9828567 16.4552258,31.9494273 L24.8745806,26.235003 C24.9532581,26.1815731 25,26.0938567 25,25.9998544 C25,25.9058521 24.9529677,25.8181357 24.8745806,25.7647059 Z" id="Combined-Shape" fill="#E62F32"></path>
            </g>
        </g>
    </g>
</svg>