<?xml version="1.0" encoding="utf-8"?>
<!-- Generated by IcoMoon.io -->
<!DOCTYPE svg PUBLIC "-//W3C//DTD SVG 1.1//EN" "http://www.w3.org/Graphics/SVG/1.1/DTD/svg11.dtd">
<svg version="1.1" xmlns="http://www.w3.org/2000/svg" xmlns:xlink="http://www.w3.org/1999/xlink" width="560" height="448" viewBox="0 0 560 448">
<path d="M523.253 238.277c0.528-0.528 0.528-1.055 0.791-1.847s0.264-1.319 0.528-2.111c0-0.528 0.528-1.055 0.528-1.583 0.264-2.375 0.528-4.75 0-7.388 0-0.528-0.528-1.055-0.528-1.583-0.264-0.791-0.264-1.319-0.528-2.111s-0.528-1.055-0.791-1.847c-0.264-0.264-0.528-1.055-0.791-1.319-1.055-0.528-1.583-1.583-2.375-2.375l-184.698-184.698c-7.388-7.388-18.998-7.388-26.386 0s-7.388 18.998 0 26.386l152.772 152.772h-435.126c-10.554 0-18.734 8.18-18.734 18.734 0 5.277 2.111 10.027 5.277 13.193s8.18 5.541 13.193 5.277l435.389 0.264-152.772 152.772c-7.388 7.388-7.388 18.998 0 26.386s18.998 7.388 26.386 0l184.698-184.698c0.791-0.791 1.319-1.847 2.375-2.902 0.264-0.264 0.528-1.055 0.791-1.319z"></path>
</svg>
