<?xml version="1.0" encoding="utf-8"?>
<!DOCTYPE svg PUBLIC "-//W3C//DTD SVG 1.1//EN" "http://www.w3.org/Graphics/SVG/1.1/DTD/svg11.dtd">
<svg version="1.1" xmlns="http://www.w3.org/2000/svg" xmlns:xlink="http://www.w3.org/1999/xlink" width="448" height="448" viewBox="0 0 448 448">
<path d="M0 37.333c0-20.619 16.744-37.333 37.425-37.333h373.149c20.67 0 37.425 16.757 37.425 37.333 0 20.619-16.744 37.333-37.425 37.333h-373.149c-20.67 0-37.425-16.757-37.425-37.333zM0 224c0-20.618 16.744-37.333 37.425-37.333h373.149c20.67 0 37.425 16.757 37.425 37.333 0 20.619-16.744 37.333-37.425 37.333h-373.149c-20.67 0-37.425-16.757-37.425-37.333zM0 410.667c0-20.618 16.744-37.333 37.425-37.333h373.149c20.67 0 37.425 16.757 37.425 37.333 0 20.619-16.744 37.333-37.425 37.333h-373.149c-20.67 0-37.425-16.757-37.425-37.333z"></path>
</svg>
