<?xml version="1.0" encoding="utf-8"?>
<!DOCTYPE svg PUBLIC "-//W3C//DTD SVG 1.1//EN" "http://www.w3.org/Graphics/SVG/1.1/DTD/svg11.dtd">
<svg version="1.1" xmlns="http://www.w3.org/2000/svg" xmlns:xlink="http://www.w3.org/1999/xlink" width="448" height="448" viewBox="0 0 448 448">
<path d="M220.207 440.404c-121.418 0-220.207-98.779-220.207-220.197s98.789-220.197 220.207-220.197c121.408 0 220.207 98.779 220.207 220.197s-98.799 220.197-220.207 220.197v0zM220.207 14.943c-113.185 0-205.274 92.079-205.274 205.264 0 113.175 92.089 205.264 205.274 205.264s205.274-92.089 205.274-205.264c0-113.185-92.089-205.264-205.274-205.264v0z"></path>
<path d="M220.207 252.164c-4.122 0-7.467-3.345-7.467-7.467v-115.753c0-4.122 3.345-7.467 7.467-7.467s7.467 3.345 7.467 7.467v115.753c0 4.122-3.345 7.467-7.467 7.467v0z"></path>
<path d="M312.943 300.309h-185.462c-4.122 0-7.467-3.345-7.467-7.467s3.345-7.467 7.467-7.467h185.452c4.122 0 7.467 3.345 7.467 7.467s-3.335 7.467-7.457 7.467v0z"></path>
<path d="M220.207 252.164c-1.901 0-3.823-0.727-5.267-2.18l-33.192-33.112c-2.927-2.917-2.927-7.646-0.020-10.563 2.907-2.927 7.656-2.927 10.563-0.020l33.192 33.112c2.927 2.917 2.927 7.656 0.020 10.573-1.463 1.463-3.375 2.19-5.296 2.19v0z"></path>
<path d="M220.207 252.164c-1.911 0-3.833-0.727-5.286-2.2-2.907-2.917-2.907-7.656 0.020-10.573l33.192-33.112c2.907-2.907 7.666-2.907 10.563 0.020 2.917 2.917 2.917 7.646-0.020 10.563l-33.182 33.112c-1.463 1.463-3.375 2.19-5.286 2.19v0z"></path>
</svg>
