<?xml version="1.0" encoding="utf-8"?>
<!-- Generated by IcoMoon.io -->
<!DOCTYPE svg PUBLIC "-//W3C//DTD SVG 1.1//EN" "http://www.w3.org/Graphics/SVG/1.1/DTD/svg11.dtd">
<svg version="1.1" xmlns="http://www.w3.org/2000/svg" xmlns:xlink="http://www.w3.org/1999/xlink" width="1024" height="1024" viewBox="0 0 1024 1024">
<g id="icomoon-ignore">
</g>
<path d="M0 85.333c0-47.128 38.273-85.333 85.544-85.333h852.911c47.245 0 85.544 38.301 85.544 85.333 0 47.128-38.273 85.333-85.544 85.333h-852.911c-47.245 0-85.544-38.301-85.544-85.333zM0 512c0-47.128 38.273-85.333 85.544-85.333h852.911c47.245 0 85.544 38.301 85.544 85.333 0 47.128-38.273 85.333-85.544 85.333h-852.911c-47.245 0-85.544-38.301-85.544-85.333zM0 938.667c0-47.128 38.273-85.333 85.544-85.333h852.911c47.245 0 85.544 38.301 85.544 85.333 0 47.128-38.273 85.333-85.544 85.333h-852.911c-47.245 0-85.544-38.301-85.544-85.333z"></path>
</svg>
