<?xml version="1.0" encoding="utf-8"?>
<!-- Generated by IcoMoon.io -->
<!DOCTYPE svg PUBLIC "-//W3C//DTD SVG 1.1//EN" "http://www.w3.org/Graphics/SVG/1.1/DTD/svg11.dtd">
<svg version="1.1" xmlns="http://www.w3.org/2000/svg" xmlns:xlink="http://www.w3.org/1999/xlink" width="448" height="448" viewBox="0 0 448 448">
<path d="M168 336c39.788 0 76.337-13.972 105.149-37.175l142.949 143.677c3.649 3.668 8.437 5.497 13.235 5.497 4.76 0 9.529-1.811 13.169-5.432 7.308-7.271 7.336-19.096 0.065-26.404l-143.127-143.845c22.82-28.691 36.559-64.904 36.559-104.319 0-92.633-75.367-168-168-168s-168 75.367-168 168c0 92.633 75.367 168 168 168v0zM168 37.333c72.053 0 130.667 58.613 130.667 130.667s-58.613 130.667-130.667 130.667c-72.053 0-130.667-58.613-130.667-130.667s58.613-130.667 130.667-130.667v0z"></path>
</svg>
