<?xml version="1.0" encoding="utf-8"?>
<!DOCTYPE svg PUBLIC "-//W3C//DTD SVG 1.1//EN" "http://www.w3.org/Graphics/SVG/1.1/DTD/svg11.dtd">
<svg version="1.1" xmlns="http://www.w3.org/2000/svg" xmlns:xlink="http://www.w3.org/1999/xlink" width="528" height="448" viewBox="0 0 528 448">
<path d="M527.464 60.855q-22.4 32.762-54.157 55.829 0.334 4.68 0.334 14.041 0 43.461-12.702 86.753t-38.612 83.075-61.68 70.372-86.251 48.809-107.981 18.219q-90.597 0-165.816-48.475 11.701 1.338 26.075 1.338 75.218 0 134.056-46.135-35.102-0.668-62.85-21.563t-38.11-53.321q11.032 1.672 20.393 1.672 14.375 0 28.416-3.678-37.442-7.689-62.014-37.274t-24.572-68.7v-1.338q22.733 12.702 48.809 13.707-22.063-14.709-35.102-38.444t-13.039-51.483q0-29.42 14.709-54.491 40.45 49.811 98.454 79.733t124.196 33.264q-2.674-12.702-2.674-24.74 0-44.796 31.592-76.389t76.389-31.592q46.803 0 78.897 34.101 36.44-7.021 68.532-26.075-12.369 38.444-47.471 59.505 31.090-3.342 62.182-16.715z"></path>
</svg>
